<svg width="253" height="203" viewBox="0 0 253 203" fill="none" xmlns="http://www.w3.org/2000/svg">
<path fill-rule="evenodd" clip-rule="evenodd" d="M5.09357 55.6378L27.0965 56.4317C31.6295 56.5952 36.0429 57.9195 39.9079 60.2759L101.216 96.732L106.46 88.2584L45.1524 51.8023C39.815 48.5482 33.7204 46.7194 27.4605 46.4936L10.7064 45.8892L5.09357 55.6378Z" fill="#F7A4BA"/>
<path d="M61.4945 76.1318C61.0268 76.4256 60.8859 77.0429 61.1798 77.5106C61.4736 77.9782 62.0909 78.1191 62.5585 77.8252L61.4945 76.1318ZM157.045 33.7919C157.593 33.8607 158.093 33.4722 158.161 32.9243C158.23 32.3763 157.842 31.8763 157.294 31.8075L157.045 33.7919ZM62.5585 77.8252C69.1901 73.6582 75.7382 68.451 82.4662 63.1142C89.2102 57.7647 96.1465 52.2752 103.616 47.474C118.531 37.8864 135.505 31.0868 157.045 33.7919L157.294 31.8075C135.134 29.0245 117.689 36.0499 102.534 45.7916C94.9684 50.6549 87.9567 56.2061 81.2233 61.5473C74.474 66.901 68.0154 72.0344 61.4945 76.1318L62.5585 77.8252Z" fill="#161853"/>
<path d="M139.566 96.5602C139.772 96.0479 139.525 95.4653 139.012 95.2588C138.5 95.0523 137.918 95.3001 137.711 95.8123L139.566 96.5602ZM140.851 101.4L140.46 102.32L140.851 101.4ZM125.639 64.0811L124.871 63.4413L125.639 64.0811ZM145.191 43.3459C145.56 42.9349 145.526 42.3027 145.115 41.9337C144.704 41.5647 144.072 41.5987 143.703 42.0096L145.191 43.3459ZM137.711 95.8123C137.391 96.6051 137.101 97.8043 137.404 99.0498C137.722 100.36 138.656 101.553 140.46 102.32L141.242 100.48C139.949 99.9295 139.499 99.2021 139.347 98.5775C139.18 97.8885 139.332 97.1394 139.566 96.5602L137.711 95.8123ZM140.46 102.32C141.287 102.672 142.421 103.434 143.608 104.505C144.786 105.566 145.964 106.884 146.897 108.297C148.823 111.214 149.449 114.088 147.813 116.144L149.378 117.389C151.89 114.232 150.58 110.245 148.565 107.194C147.528 105.623 146.234 104.179 144.948 103.02C143.672 101.87 142.351 100.951 141.242 100.48L140.46 102.32ZM147.813 116.144C146.886 117.308 145.998 117.822 145.117 117.972C144.208 118.126 143.141 117.923 141.813 117.329C140.485 116.734 138.993 115.793 137.264 114.594C135.512 113.379 133.659 112.002 131.47 110.461L130.319 112.096C132.416 113.573 134.401 115.043 136.124 116.238C137.869 117.448 139.489 118.479 140.996 119.154C142.502 119.829 143.994 120.191 145.453 119.943C146.94 119.69 148.23 118.831 149.378 117.389L147.813 116.144ZM131.47 110.461C129.316 108.944 127.765 107.862 126.609 106.98C125.451 106.098 124.755 105.465 124.282 104.863C123.354 103.684 123.186 102.543 122.467 99.265L120.514 99.6931C121.178 102.726 121.425 104.466 122.71 106.1C123.343 106.905 124.202 107.661 125.396 108.571C126.591 109.482 128.186 110.594 130.319 112.096L131.47 110.461ZM122.467 99.265C121.774 96.0994 120.523 91.0648 119.456 86.5576C118.921 84.2956 118.431 82.1631 118.075 80.4454C117.71 78.6814 117.512 77.4714 117.512 76.9781H115.512C115.512 77.7195 115.764 79.1506 116.116 80.851C116.478 82.5976 116.973 84.7527 117.51 87.0183C118.586 91.5664 119.825 96.5475 120.514 99.6931L122.467 99.265ZM117.512 76.9781C117.512 76.6034 117.666 76.0566 118.081 75.2804C118.489 74.5185 119.1 73.6247 119.9 72.5773C121.508 70.4724 123.755 67.9074 126.408 64.721L124.871 63.4413C122.269 66.5662 119.952 69.2147 118.311 71.3631C117.486 72.4424 116.8 73.4351 116.318 74.3367C115.843 75.2241 115.512 76.1179 115.512 76.9781H117.512ZM126.408 64.721C130.597 59.6892 140.67 48.3803 145.191 43.3459L143.703 42.0096C139.188 47.0366 129.089 58.3751 124.871 63.4413L126.408 64.721Z" fill="#161853"/>
<path d="M147.76 37.464C147.456 37.9255 147.585 38.5455 148.046 38.8489C148.508 39.1523 149.128 39.0241 149.431 38.5626L147.76 37.464ZM159.935 32.7996L159.784 33.7882L159.935 32.7996ZM217.173 54.0623C217.701 54.2228 218.26 53.9245 218.42 53.396C218.581 52.8676 218.282 52.3091 217.754 52.1486L217.173 54.0623ZM149.431 38.5626C150.709 36.619 154.582 32.9942 159.784 33.7882L160.086 31.8111C153.782 30.8489 149.248 35.2 147.76 37.464L149.431 38.5626ZM159.784 33.7882C163.223 34.3131 167.864 36.2379 173.33 38.6212C178.739 40.9798 184.874 43.7468 191.151 45.8228L191.779 43.9239C185.61 41.8838 179.576 39.1628 174.129 36.7879C168.739 34.4378 163.838 32.3837 160.086 31.8111L159.784 33.7882ZM191.151 45.8228C201.118 49.1191 212.651 52.6889 217.173 54.0623L217.754 52.1486C213.241 50.7779 201.725 47.2133 191.779 43.9239L191.151 45.8228Z" fill="#161853"/>
<path d="M153.088 51.6266C153.332 51.1312 153.128 50.5317 152.633 50.2876C152.138 50.0434 151.538 50.2472 151.294 50.7426L153.088 51.6266ZM135.043 73.6856L135.719 74.4223L135.043 73.6856ZM153.574 105.242L153.629 104.243L153.574 105.242ZM160.489 104.428C160.797 103.969 160.675 103.348 160.216 103.04C159.758 102.732 159.136 102.854 158.828 103.312L160.489 104.428ZM151.294 50.7426C149.306 54.7766 143.105 64.9296 134.367 72.9488L135.719 74.4223C144.682 66.1969 151.019 55.8247 153.088 51.6266L151.294 50.7426ZM134.367 72.9488C131.579 75.507 129.628 77.6272 128.392 79.4644C127.155 81.3033 126.574 82.9481 126.681 84.5238C126.789 86.1059 127.578 87.4245 128.659 88.6306C129.728 89.8235 131.179 91.0082 132.75 92.2952L134.017 90.7483C132.407 89.4285 131.093 88.3493 130.148 87.2956C129.215 86.255 128.742 85.3441 128.677 84.3879C128.611 83.4254 128.947 82.2233 130.052 80.5808C131.158 78.9365 132.975 76.9407 135.719 74.4223L134.367 72.9488ZM132.75 92.2952C135.885 94.865 139.746 98.2742 143.394 101.032C145.227 102.417 147.043 103.667 148.733 104.593C150.403 105.507 152.049 106.159 153.519 106.24L153.629 104.243C152.61 104.187 151.282 103.708 149.694 102.838C148.126 101.98 146.398 100.795 144.6 99.4363C140.988 96.7058 137.243 93.3921 134.017 90.7483L132.75 92.2952ZM153.519 106.24C155.601 106.355 157.153 106.143 158.266 105.799C159.335 105.469 160.118 104.979 160.489 104.428L158.828 103.312C158.83 103.31 158.562 103.615 157.676 103.889C156.836 104.148 155.529 104.348 153.629 104.243L153.519 106.24Z" fill="#161853"/>
<path d="M156.616 44.3245C157.815 42.9525 160.986 40.2085 164.084 40.2085" stroke="#161853" stroke-width="2" stroke-linecap="round"/>
<path d="M161.015 68.518C161.344 68.0741 161.251 67.4479 160.807 67.1192C160.363 66.7905 159.737 66.8839 159.408 67.3277L161.015 68.518ZM177.359 85.4846L177.523 84.498L177.359 85.4846ZM167.31 86.7504C166.797 86.9541 166.546 87.5354 166.75 88.0487C166.953 88.562 167.535 88.813 168.048 88.6093L167.31 86.7504ZM159.408 67.3277C157.751 69.5658 155.168 73.0189 152.807 76.1028C150.418 79.224 148.327 81.8722 147.614 82.5795L149.023 83.9993C149.859 83.1699 152.055 80.3758 154.396 77.3184C156.764 74.2237 159.354 70.7618 161.015 68.518L159.408 67.3277ZM147.614 82.5795C146.622 83.564 145.193 85.1796 144.748 87.2655C144.28 89.4612 144.947 91.9272 147.635 94.4464L149.003 92.987C146.713 90.8413 146.411 89.0541 146.704 87.6826C147.02 86.2012 148.079 84.9357 149.023 83.9993L147.614 82.5795ZM147.635 94.4464C150.091 96.7477 153.107 99.7379 155.818 102.117C157.178 103.311 158.496 104.383 159.666 105.161C160.252 105.55 160.82 105.88 161.354 106.115C161.877 106.346 162.434 106.516 162.977 106.516V104.516C162.829 104.516 162.565 104.463 162.161 104.285C161.768 104.112 161.304 103.848 160.774 103.496C159.714 102.791 158.474 101.787 157.137 100.614C154.455 98.26 151.525 95.3505 149.003 92.987L147.635 94.4464ZM162.977 106.516C163.545 106.516 164.276 106.269 164.989 105.973C165.753 105.657 166.665 105.209 167.664 104.674C169.663 103.601 172.067 102.143 174.419 100.588C176.771 99.0322 179.091 97.3656 180.918 95.8715C181.831 95.1252 182.635 94.4106 183.262 93.7657C183.865 93.1461 184.392 92.5053 184.643 91.9087L182.799 91.1343C182.704 91.3608 182.409 91.7748 181.829 92.3707C181.274 92.9414 180.533 93.603 179.652 94.3231C177.893 95.7616 175.632 97.3879 173.316 98.9195C171.001 100.451 168.651 101.874 166.718 102.911C165.75 103.43 164.902 103.844 164.223 104.126C163.494 104.428 163.101 104.516 162.977 104.516V106.516ZM184.643 91.9087C185.087 90.8497 185.078 89.8219 184.705 88.8933C184.344 87.9948 183.672 87.261 182.91 86.6791C181.394 85.5224 179.289 84.7902 177.523 84.498L177.196 86.4712C178.748 86.7279 180.516 87.3677 181.697 88.269C182.282 88.7161 182.666 89.1828 182.849 89.6391C183.02 90.0654 183.045 90.5468 182.799 91.1343L184.643 91.9087ZM177.523 84.498C175.964 84.2403 173.936 84.6174 172.126 85.1096C170.272 85.6134 168.476 86.2877 167.31 86.7504L168.048 88.6093C169.187 88.1573 170.903 87.5145 172.65 87.0396C174.44 86.5531 176.1 86.2899 177.196 86.4712L177.523 84.498Z" fill="#161853"/>
<path d="M170.445 82.7407C169.431 85.0274 166.518 90.0398 162.977 91.796" stroke="#161853" stroke-width="2" stroke-linecap="round"/>
<path d="M180.402 83.015C181.877 82.6491 185.823 81.4234 189.805 79.4478" stroke="#161853" stroke-width="2" stroke-linecap="round"/>
<path d="M170.998 51.1846C169.154 52.0992 165.411 54.6969 165.19 57.7702" stroke="#161853" stroke-width="2" stroke-linecap="round"/>
<path d="M188.423 88.5029C189.068 89.7835 191.244 92.5641 194.784 93.4422" stroke="#161853" stroke-width="2" stroke-linecap="round"/>
<path d="M176.482 97.7935C176.006 97.5142 175.393 97.674 175.114 98.1504C174.835 98.6268 174.994 99.2395 175.471 99.5188L176.482 97.7935ZM210.476 99.6535C211.027 99.6935 211.506 99.2794 211.546 98.7286C211.586 98.1777 211.172 97.6988 210.621 97.6588L210.476 99.6535ZM175.471 99.5188C177.7 100.826 183.74 102.826 190.883 100.997L190.387 99.0594C183.812 100.743 178.31 98.8648 176.482 97.7935L175.471 99.5188ZM190.883 100.997C197.586 99.2807 206.734 99.3818 210.476 99.6535L210.621 97.6588C206.804 97.3817 197.402 97.2633 190.387 99.0594L190.883 100.997Z" fill="#161853"/>
<path d="M211.786 51.2403C211.665 51.7792 212.004 52.314 212.543 52.4347C213.082 52.5554 213.617 52.2164 213.737 51.6774L211.786 51.2403ZM246.586 126.819C247.137 126.773 247.546 126.29 247.5 125.74C247.455 125.189 246.972 124.78 246.421 124.825L246.586 126.819ZM209.826 102.529C210.12 111.859 215.01 118.339 221.99 122.26C228.926 126.157 237.918 127.535 246.586 126.819L246.421 124.825C238.034 125.519 229.468 124.167 222.97 120.516C216.514 116.89 212.094 111.002 211.825 102.466L209.826 102.529ZM213.737 51.6774C213.788 51.4529 213.85 51.1996 213.919 50.9355L211.984 50.431C211.911 50.7089 211.843 50.986 211.786 51.2403L213.737 51.6774ZM217.044 51.574C216.078 59.8495 214.16 68.3769 212.526 76.9922C210.9 85.5711 209.564 94.2029 209.826 102.529L211.825 102.466C211.57 94.3731 212.868 85.9236 214.491 77.3648C216.107 68.8424 218.053 60.1757 219.031 51.8059L217.044 51.574ZM215.716 49.8277C216.567 49.9766 217.141 50.746 217.044 51.574L219.031 51.8059C219.254 49.8952 217.926 48.1842 216.061 47.8576L215.716 49.8277ZM213.919 50.9355C214.117 50.1774 214.887 49.6826 215.716 49.8277L216.061 47.8576C214.264 47.543 212.458 48.6097 211.984 50.431L213.919 50.9355Z" fill="#161853"/>
<path d="M215.279 47.8018C214.732 47.8831 214.355 48.3919 214.437 48.9382C214.518 49.4844 215.027 49.8613 215.573 49.78L215.279 47.8018ZM251.858 53.0029C252.407 52.9484 252.808 52.4586 252.754 51.9091C252.699 51.3595 252.21 50.9581 251.66 51.0127L251.858 53.0029ZM215.426 48.7909C215.573 49.78 215.573 49.78 215.573 49.78C215.573 49.78 215.573 49.78 215.573 49.78C215.573 49.78 215.573 49.78 215.573 49.78C215.574 49.7799 215.575 49.7798 215.576 49.7796C215.579 49.7792 215.583 49.7785 215.59 49.7776C215.602 49.7758 215.622 49.773 215.649 49.7693C215.702 49.7619 215.783 49.7511 215.891 49.7376C216.105 49.7105 216.424 49.6729 216.835 49.6317C217.656 49.5491 218.845 49.4521 220.3 49.3954C223.215 49.2821 227.184 49.3316 231.418 49.9779L231.72 48.0008C227.325 47.3299 223.222 47.2802 220.222 47.3969C218.721 47.4554 217.491 47.5556 216.635 47.6417C216.206 47.6847 215.871 47.7242 215.64 47.7532C215.525 47.7678 215.437 47.7796 215.376 47.788C215.345 47.7922 215.322 47.7955 215.306 47.7979C215.298 47.799 215.291 47.7999 215.287 47.8006C215.284 47.8009 215.283 47.8012 215.281 47.8014C215.281 47.8015 215.28 47.8016 215.28 47.8017C215.279 47.8017 215.279 47.8017 215.279 47.8017C215.279 47.8018 215.279 47.8018 215.426 48.7909ZM231.418 49.9779C235.703 50.6319 239.302 51.5102 242.628 52.1787C245.918 52.8397 248.933 53.293 251.858 53.0029L251.66 51.0127C249.053 51.2713 246.287 50.8739 243.022 50.2179C239.794 49.5692 236.064 48.6639 231.72 48.0008L231.418 49.9779Z" fill="#161853"/>
<path d="M118.172 73.8623C118.724 73.8623 119.172 73.4146 119.172 72.8623C119.172 72.31 118.724 71.8623 118.172 71.8623V73.8623ZM119.278 91.1497C119.83 91.1497 120.278 90.702 120.278 90.1497C120.278 89.5974 119.83 89.1497 119.278 89.1497V91.1497ZM118.172 71.8623C118.168 71.8623 118.164 71.8623 118.16 71.8623C118.157 71.8623 118.153 71.8623 118.149 71.8623C118.145 71.8623 118.141 71.8623 118.137 71.8623C118.134 71.8623 118.13 71.8623 118.126 71.8623C118.122 71.8623 118.118 71.8623 118.114 71.8623C118.11 71.8623 118.107 71.8623 118.103 71.8623C118.099 71.8623 118.095 71.8623 118.091 71.8623C118.087 71.8623 118.083 71.8623 118.079 71.8623C118.075 71.8623 118.071 71.8623 118.067 71.8623C118.063 71.8623 118.059 71.8623 118.055 71.8623C118.051 71.8623 118.047 71.8623 118.043 71.8623C118.039 71.8623 118.035 71.8623 118.031 71.8623C118.027 71.8623 118.023 71.8623 118.019 71.8623C118.015 71.8623 118.011 71.8623 118.007 71.8623C118.003 71.8623 117.999 71.8623 117.995 71.8623C117.991 71.8623 117.987 71.8623 117.983 71.8623C117.979 71.8623 117.974 71.8623 117.97 71.8623C117.966 71.8623 117.962 71.8623 117.958 71.8623C117.954 71.8623 117.95 71.8623 117.946 71.8623C117.941 71.8623 117.937 71.8623 117.933 71.8623C117.929 71.8623 117.925 71.8623 117.92 71.8623C117.916 71.8623 117.912 71.8623 117.908 71.8623C117.904 71.8623 117.899 71.8623 117.895 71.8623C117.891 71.8623 117.887 71.8623 117.882 71.8623C117.878 71.8623 117.874 71.8623 117.87 71.8623C117.865 71.8623 117.861 71.8623 117.857 71.8623C117.853 71.8623 117.848 71.8623 117.844 71.8623C117.84 71.8623 117.835 71.8623 117.831 71.8623C117.827 71.8623 117.822 71.8623 117.818 71.8623C117.814 71.8623 117.809 71.8623 117.805 71.8623C117.801 71.8623 117.796 71.8623 117.792 71.8623C117.788 71.8623 117.783 71.8623 117.779 71.8623C117.774 71.8623 117.77 71.8623 117.766 71.8623C117.761 71.8623 117.757 71.8623 117.752 71.8623C117.748 71.8623 117.743 71.8623 117.739 71.8623C117.734 71.8623 117.73 71.8623 117.726 71.8623C117.721 71.8623 117.717 71.8623 117.712 71.8623C117.708 71.8623 117.703 71.8623 117.699 71.8623C117.694 71.8623 117.69 71.8623 117.685 71.8623C117.681 71.8623 117.676 71.8623 117.671 71.8623C117.667 71.8623 117.662 71.8623 117.658 71.8623C117.653 71.8623 117.649 71.8623 117.644 71.8623C117.64 71.8623 117.635 71.8623 117.63 71.8623C117.626 71.8623 117.621 71.8623 117.617 71.8623C117.612 71.8623 117.607 71.8623 117.603 71.8623C117.598 71.8623 117.593 71.8623 117.589 71.8623C117.584 71.8623 117.58 71.8623 117.575 71.8623C117.57 71.8623 117.566 71.8623 117.561 71.8623C117.556 71.8623 117.552 71.8623 117.547 71.8623C117.542 71.8623 117.537 71.8623 117.533 71.8623C117.528 71.8623 117.523 71.8623 117.519 71.8623C117.514 71.8623 117.509 71.8623 117.504 71.8623C117.5 71.8623 117.495 71.8623 117.49 71.8623C117.485 71.8623 117.481 71.8623 117.476 71.8623C117.471 71.8623 117.466 71.8623 117.461 71.8623C117.457 71.8623 117.452 71.8623 117.447 71.8623C117.442 71.8623 117.437 71.8623 117.432 71.8623C117.428 71.8623 117.423 71.8623 117.418 71.8623C117.413 71.8623 117.408 71.8623 117.403 71.8623C117.399 71.8623 117.394 71.8623 117.389 71.8623C117.384 71.8623 117.379 71.8623 117.374 71.8623C117.369 71.8623 117.364 71.8623 117.359 71.8623C117.355 71.8623 117.35 71.8623 117.345 71.8623C117.34 71.8623 117.335 71.8623 117.33 71.8623C117.325 71.8623 117.32 71.8623 117.315 71.8623C117.31 71.8623 117.305 71.8623 117.3 71.8623C117.295 71.8623 117.29 71.8623 117.285 71.8623C117.28 71.8623 117.275 71.8623 117.27 71.8623C117.265 71.8623 117.26 71.8623 117.255 71.8623C117.25 71.8623 117.245 71.8623 117.24 71.8623C117.235 71.8623 117.23 71.8623 117.225 71.8623C117.22 71.8623 117.215 71.8623 117.21 71.8623C117.205 71.8623 117.2 71.8623 117.194 71.8623C117.189 71.8623 117.184 71.8623 117.179 71.8623C117.174 71.8623 117.169 71.8623 117.164 71.8623C117.159 71.8623 117.154 71.8623 117.148 71.8623C117.143 71.8623 117.138 71.8623 117.133 71.8623C117.128 71.8623 117.123 71.8623 117.118 71.8623C117.112 71.8623 117.107 71.8623 117.102 71.8623C117.097 71.8623 117.092 71.8623 117.086 71.8623C117.081 71.8623 117.076 71.8623 117.071 71.8623C117.066 71.8623 117.06 71.8623 117.055 71.8623C117.05 71.8623 117.045 71.8623 117.04 71.8623C117.034 71.8623 117.029 71.8623 117.024 71.8623C117.019 71.8623 117.013 71.8623 117.008 71.8623C117.003 71.8623 116.997 71.8623 116.992 71.8623C116.987 71.8623 116.982 71.8623 116.976 71.8623C116.971 71.8623 116.966 71.8623 116.96 71.8623C116.955 71.8623 116.95 71.8623 116.944 71.8623C116.939 71.8623 116.934 71.8623 116.928 71.8623C116.923 71.8623 116.918 71.8623 116.912 71.8623C116.907 71.8623 116.902 71.8623 116.896 71.8623C116.891 71.8623 116.886 71.8623 116.88 71.8623C116.875 71.8623 116.869 71.8623 116.864 71.8623C116.859 71.8623 116.853 71.8623 116.848 71.8623C116.842 71.8623 116.837 71.8623 116.832 71.8623C116.826 71.8623 116.821 71.8623 116.815 71.8623C116.81 71.8623 116.804 71.8623 116.799 71.8623C116.793 71.8623 116.788 71.8623 116.783 71.8623C116.777 71.8623 116.772 71.8623 116.766 71.8623C116.761 71.8623 116.755 71.8623 116.75 71.8623C116.744 71.8623 116.739 71.8623 116.733 71.8623C116.728 71.8623 116.722 71.8623 116.717 71.8623C116.711 71.8623 116.706 71.8623 116.7 71.8623C116.694 71.8623 116.689 71.8623 116.683 71.8623C116.678 71.8623 116.672 71.8623 116.667 71.8623C116.661 71.8623 116.656 71.8623 116.65 71.8623C116.644 71.8623 116.639 71.8623 116.633 71.8623C116.628 71.8623 116.622 71.8623 116.616 71.8623C116.611 71.8623 116.605 71.8623 116.6 71.8623C116.594 71.8623 116.588 71.8623 116.583 71.8623C116.577 71.8623 116.571 71.8623 116.566 71.8623C116.56 71.8623 116.555 71.8623 116.549 71.8623C116.543 71.8623 116.538 71.8623 116.532 71.8623C116.526 71.8623 116.521 71.8623 116.515 71.8623C116.509 71.8623 116.504 71.8623 116.498 71.8623C116.492 71.8623 116.486 71.8623 116.481 71.8623C116.475 71.8623 116.469 71.8623 116.464 71.8623C116.458 71.8623 116.452 71.8623 116.446 71.8623C116.441 71.8623 116.435 71.8623 116.429 71.8623C116.423 71.8623 116.418 71.8623 116.412 71.8623C116.406 71.8623 116.4 71.8623 116.395 71.8623C116.389 71.8623 116.383 71.8623 116.377 71.8623C116.372 71.8623 116.366 71.8623 116.36 71.8623C116.354 71.8623 116.348 71.8623 116.343 71.8623C116.337 71.8623 116.331 71.8623 116.325 71.8623C116.319 71.8623 116.314 71.8623 116.308 71.8623C116.302 71.8623 116.296 71.8623 116.29 71.8623C116.284 71.8623 116.279 71.8623 116.273 71.8623C116.267 71.8623 116.261 71.8623 116.255 71.8623C116.249 71.8623 116.243 71.8623 116.237 71.8623C116.232 71.8623 116.226 71.8623 116.22 71.8623C116.214 71.8623 116.208 71.8623 116.202 71.8623C116.196 71.8623 116.19 71.8623 116.184 71.8623C116.179 71.8623 116.173 71.8623 116.167 71.8623C116.161 71.8623 116.155 71.8623 116.149 71.8623C116.143 71.8623 116.137 71.8623 116.131 71.8623C116.125 71.8623 116.119 71.8623 116.113 71.8623C116.107 71.8623 116.101 71.8623 116.095 71.8623C116.089 71.8623 116.083 71.8623 116.077 71.8623C116.071 71.8623 116.065 71.8623 116.059 71.8623C116.053 71.8623 116.047 71.8623 116.041 71.8623C116.035 71.8623 116.029 71.8623 116.023 71.8623C116.017 71.8623 116.011 71.8623 116.005 71.8623C115.999 71.8623 115.993 71.8623 115.987 71.8623C115.981 71.8623 115.975 71.8623 115.969 71.8623C115.963 71.8623 115.957 71.8623 115.951 71.8623C115.945 71.8623 115.939 71.8623 115.933 71.8623C115.927 71.8623 115.921 71.8623 115.915 71.8623C115.909 71.8623 115.902 71.8623 115.896 71.8623C115.89 71.8623 115.884 71.8623 115.878 71.8623C115.872 71.8623 115.866 71.8623 115.86 71.8623C115.854 71.8623 115.848 71.8623 115.841 71.8623C115.835 71.8623 115.829 71.8623 115.823 71.8623C115.817 71.8623 115.811 71.8623 115.805 71.8623C115.799 71.8623 115.792 71.8623 115.786 71.8623C115.78 71.8623 115.774 71.8623 115.768 71.8623C115.762 71.8623 115.755 71.8623 115.749 71.8623C115.743 71.8623 115.737 71.8623 115.731 71.8623C115.725 71.8623 115.718 71.8623 115.712 71.8623C115.706 71.8623 115.7 71.8623 115.694 71.8623C115.687 71.8623 115.681 71.8623 115.675 71.8623C115.669 71.8623 115.663 71.8623 115.656 71.8623C115.65 71.8623 115.644 71.8623 115.638 71.8623C115.632 71.8623 115.625 71.8623 115.619 71.8623C115.613 71.8623 115.607 71.8623 115.6 71.8623C115.594 71.8623 115.588 71.8623 115.582 71.8623C115.575 71.8623 115.569 71.8623 115.563 71.8623C115.557 71.8623 115.55 71.8623 115.544 71.8623C115.538 71.8623 115.531 71.8623 115.525 71.8623C115.519 71.8623 115.513 71.8623 115.506 71.8623C115.5 71.8623 115.494 71.8623 115.487 71.8623C115.481 71.8623 115.475 71.8623 115.468 71.8623C115.462 71.8623 115.456 71.8623 115.449 71.8623C115.443 71.8623 115.437 71.8623 115.431 71.8623C115.424 71.8623 115.418 71.8623 115.412 71.8623C115.405 71.8623 115.399 71.8623 115.392 71.8623C115.386 71.8623 115.38 71.8623 115.373 71.8623C115.367 71.8623 115.361 71.8623 115.354 71.8623C115.348 71.8623 115.342 71.8623 115.335 71.8623C115.329 71.8623 115.323 71.8623 115.316 71.8623C115.31 71.8623 115.303 71.8623 115.297 71.8623C115.291 71.8623 115.284 71.8623 115.278 71.8623C115.271 71.8623 115.265 71.8623 115.259 71.8623C115.252 71.8623 115.246 71.8623 115.239 71.8623C115.233 71.8623 115.227 71.8623 115.22 71.8623C115.214 71.8623 115.207 71.8623 115.201 71.8623C115.194 71.8623 115.188 71.8623 115.182 71.8623C115.175 71.8623 115.169 71.8623 115.162 71.8623C115.156 71.8623 115.149 71.8623 115.143 71.8623C115.136 71.8623 115.13 71.8623 115.123 71.8623C115.117 71.8623 115.111 71.8623 115.104 71.8623C115.098 71.8623 115.091 71.8623 115.085 71.8623C115.078 71.8623 115.072 71.8623 115.065 71.8623C115.059 71.8623 115.052 71.8623 115.046 71.8623C115.039 71.8623 115.033 71.8623 115.026 71.8623C115.02 71.8623 115.013 71.8623 115.007 71.8623C115 71.8623 114.994 71.8623 114.987 71.8623C114.981 71.8623 114.974 71.8623 114.968 71.8623C114.961 71.8623 114.955 71.8623 114.948 71.8623C114.941 71.8623 114.935 71.8623 114.928 71.8623C114.922 71.8623 114.915 71.8623 114.909 71.8623C114.902 71.8623 114.896 71.8623 114.889 71.8623C114.883 71.8623 114.876 71.8623 114.869 71.8623C114.863 71.8623 114.856 71.8623 114.85 71.8623C114.843 71.8623 114.837 71.8623 114.83 71.8623C114.824 71.8623 114.817 71.8623 114.81 71.8623C114.804 71.8623 114.797 71.8623 114.791 71.8623C114.784 71.8623 114.777 71.8623 114.771 71.8623C114.764 71.8623 114.758 71.8623 114.751 71.8623C114.744 71.8623 114.738 71.8623 114.731 71.8623C114.725 71.8623 114.718 71.8623 114.711 71.8623C114.705 71.8623 114.698 71.8623 114.692 71.8623C114.685 71.8623 114.678 71.8623 114.672 71.8623C114.665 71.8623 114.658 71.8623 114.652 71.8623C114.645 71.8623 114.639 71.8623 114.632 71.8623C114.625 71.8623 114.619 71.8623 114.612 71.8623C114.605 71.8623 114.599 71.8623 114.592 71.8623C114.585 71.8623 114.579 71.8623 114.572 71.8623C114.565 71.8623 114.559 71.8623 114.552 71.8623C114.545 71.8623 114.539 71.8623 114.532 71.8623C114.525 71.8623 114.519 71.8623 114.512 71.8623C114.505 71.8623 114.499 71.8623 114.492 71.8623C114.485 71.8623 114.479 71.8623 114.472 71.8623C114.465 71.8623 114.459 71.8623 114.452 71.8623C114.445 71.8623 114.439 71.8623 114.432 71.8623C114.425 71.8623 114.418 71.8623 114.412 71.8623C114.405 71.8623 114.398 71.8623 114.392 71.8623C114.385 71.8623 114.378 71.8623 114.372 71.8623C114.365 71.8623 114.358 71.8623 114.351 71.8623C114.345 71.8623 114.338 71.8623 114.331 71.8623C114.325 71.8623 114.318 71.8623 114.311 71.8623C114.304 71.8623 114.298 71.8623 114.291 71.8623C114.284 71.8623 114.277 71.8623 114.271 71.8623C114.264 71.8623 114.257 71.8623 114.25 71.8623C114.244 71.8623 114.237 71.8623 114.23 71.8623C114.223 71.8623 114.217 71.8623 114.21 71.8623C114.203 71.8623 114.196 71.8623 114.19 71.8623C114.183 71.8623 114.176 71.8623 114.169 71.8623C114.163 71.8623 114.156 71.8623 114.149 71.8623C114.142 71.8623 114.136 71.8623 114.129 71.8623C114.122 71.8623 114.115 71.8623 114.108 71.8623C114.102 71.8623 114.095 71.8623 114.088 71.8623C114.081 71.8623 114.075 71.8623 114.068 71.8623C114.061 71.8623 114.054 71.8623 114.047 71.8623C114.041 71.8623 114.034 71.8623 114.027 71.8623C114.02 71.8623 114.013 71.8623 114.007 71.8623C114 71.8623 113.993 71.8623 113.986 71.8623C113.979 71.8623 113.973 71.8623 113.966 71.8623C113.959 71.8623 113.952 71.8623 113.945 71.8623C113.939 71.8623 113.932 71.8623 113.925 71.8623C113.918 71.8623 113.911 71.8623 113.905 71.8623C113.898 71.8623 113.891 71.8623 113.884 71.8623C113.877 71.8623 113.87 71.8623 113.864 71.8623C113.857 71.8623 113.85 71.8623 113.843 71.8623C113.836 71.8623 113.829 71.8623 113.823 71.8623C113.816 71.8623 113.809 71.8623 113.802 71.8623C113.795 71.8623 113.788 71.8623 113.782 71.8623C113.775 71.8623 113.768 71.8623 113.761 71.8623C113.754 71.8623 113.747 71.8623 113.741 71.8623C113.734 71.8623 113.727 71.8623 113.72 71.8623C113.713 71.8623 113.706 71.8623 113.699 71.8623C113.693 71.8623 113.686 71.8623 113.679 71.8623C113.672 71.8623 113.665 71.8623 113.658 71.8623C113.651 71.8623 113.645 71.8623 113.638 71.8623C113.631 71.8623 113.624 71.8623 113.617 71.8623C113.61 71.8623 113.603 71.8623 113.596 71.8623C113.59 71.8623 113.583 71.8623 113.576 71.8623C113.569 71.8623 113.562 71.8623 113.555 71.8623C113.548 71.8623 113.542 71.8623 113.535 71.8623C113.528 71.8623 113.521 71.8623 113.514 71.8623C113.507 71.8623 113.5 71.8623 113.493 71.8623C113.486 71.8623 113.48 71.8623 113.473 71.8623C113.466 71.8623 113.459 71.8623 113.452 71.8623C113.445 71.8623 113.438 71.8623 113.431 71.8623C113.424 71.8623 113.418 71.8623 113.411 71.8623C113.404 71.8623 113.397 71.8623 113.39 71.8623C113.383 71.8623 113.376 71.8623 113.369 71.8623C113.362 71.8623 113.356 71.8623 113.349 71.8623C113.342 71.8623 113.335 71.8623 113.328 71.8623C113.321 71.8623 113.314 71.8623 113.307 71.8623C113.3 71.8623 113.293 71.8623 113.287 71.8623C113.28 71.8623 113.273 71.8623 113.266 71.8623C113.259 71.8623 113.252 71.8623 113.245 71.8623C113.238 71.8623 113.231 71.8623 113.224 71.8623C113.217 71.8623 113.211 71.8623 113.204 71.8623C113.197 71.8623 113.19 71.8623 113.183 71.8623C113.176 71.8623 113.169 71.8623 113.162 71.8623C113.155 71.8623 113.148 71.8623 113.141 71.8623C113.134 71.8623 113.128 71.8623 113.121 71.8623C113.114 71.8623 113.107 71.8623 113.1 71.8623C113.093 71.8623 113.086 71.8623 113.079 71.8623C113.072 71.8623 113.065 71.8623 113.058 71.8623C113.051 71.8623 113.045 71.8623 113.038 71.8623C113.031 71.8623 113.024 71.8623 113.017 71.8623C113.01 71.8623 113.003 71.8623 112.996 71.8623C112.989 71.8623 112.982 71.8623 112.975 71.8623C112.968 71.8623 112.961 71.8623 112.955 71.8623C112.948 71.8623 112.941 71.8623 112.934 71.8623C112.927 71.8623 112.92 71.8623 112.913 71.8623C112.906 71.8623 112.899 71.8623 112.892 71.8623C112.885 71.8623 112.878 71.8623 112.871 71.8623C112.864 71.8623 112.858 71.8623 112.851 71.8623C112.844 71.8623 112.837 71.8623 112.83 71.8623C112.823 71.8623 112.816 71.8623 112.809 71.8623C112.802 71.8623 112.795 71.8623 112.788 71.8623C112.781 71.8623 112.774 71.8623 112.767 71.8623C112.76 71.8623 112.754 71.8623 112.747 71.8623C112.74 71.8623 112.733 71.8623 112.726 71.8623C112.719 71.8623 112.712 71.8623 112.705 71.8623C112.698 71.8623 112.691 71.8623 112.684 71.8623C112.677 71.8623 112.67 71.8623 112.663 71.8623C112.657 71.8623 112.65 71.8623 112.643 71.8623C112.636 71.8623 112.629 71.8623 112.622 71.8623C112.615 71.8623 112.608 71.8623 112.601 71.8623C112.594 71.8623 112.587 71.8623 112.58 71.8623C112.573 71.8623 112.566 71.8623 112.559 71.8623C112.553 71.8623 112.546 71.8623 112.539 71.8623C112.532 71.8623 112.525 71.8623 112.518 71.8623C112.511 71.8623 112.504 71.8623 112.497 71.8623C112.49 71.8623 112.483 71.8623 112.476 71.8623C112.469 71.8623 112.462 71.8623 112.456 71.8623C112.449 71.8623 112.442 71.8623 112.435 71.8623C112.428 71.8623 112.421 71.8623 112.414 71.8623C112.407 71.8623 112.4 71.8623 112.393 71.8623C112.386 71.8623 112.379 71.8623 112.372 71.8623C112.365 71.8623 112.359 71.8623 112.352 71.8623C112.345 71.8623 112.338 71.8623 112.331 71.8623C112.324 71.8623 112.317 71.8623 112.31 71.8623C112.303 71.8623 112.296 71.8623 112.289 71.8623C112.282 71.8623 112.275 71.8623 112.269 71.8623C112.262 71.8623 112.255 71.8623 112.248 71.8623C112.241 71.8623 112.234 71.8623 112.227 71.8623C112.22 71.8623 112.213 71.8623 112.206 71.8623C112.199 71.8623 112.192 71.8623 112.186 71.8623C112.179 71.8623 112.172 71.8623 112.165 71.8623C112.158 71.8623 112.151 71.8623 112.144 71.8623C112.137 71.8623 112.13 71.8623 112.123 71.8623C112.116 71.8623 112.11 71.8623 112.103 71.8623C112.096 71.8623 112.089 71.8623 112.082 71.8623C112.075 71.8623 112.068 71.8623 112.061 71.8623C112.054 71.8623 112.047 71.8623 112.04 71.8623C112.034 71.8623 112.027 71.8623 112.02 71.8623C112.013 71.8623 112.006 71.8623 111.999 71.8623C111.992 71.8623 111.985 71.8623 111.978 71.8623C111.972 71.8623 111.965 71.8623 111.958 71.8623C111.951 71.8623 111.944 71.8623 111.937 71.8623C111.93 71.8623 111.923 71.8623 111.916 71.8623C111.91 71.8623 111.903 71.8623 111.896 71.8623C111.889 71.8623 111.882 71.8623 111.875 71.8623C111.868 71.8623 111.861 71.8623 111.854 71.8623C111.848 71.8623 111.841 71.8623 111.834 71.8623C111.827 71.8623 111.82 71.8623 111.813 71.8623C111.806 71.8623 111.799 71.8623 111.793 71.8623C111.786 71.8623 111.779 71.8623 111.772 71.8623C111.765 71.8623 111.758 71.8623 111.751 71.8623C111.744 71.8623 111.738 71.8623 111.731 71.8623C111.724 71.8623 111.717 71.8623 111.71 71.8623C111.703 71.8623 111.696 71.8623 111.69 71.8623C111.683 71.8623 111.676 71.8623 111.669 71.8623C111.662 71.8623 111.655 71.8623 111.648 71.8623C111.642 71.8623 111.635 71.8623 111.628 71.8623C111.621 71.8623 111.614 71.8623 111.607 71.8623C111.601 71.8623 111.594 71.8623 111.587 71.8623C111.58 71.8623 111.573 71.8623 111.566 71.8623C111.559 71.8623 111.553 71.8623 111.546 71.8623C111.539 71.8623 111.532 71.8623 111.525 71.8623C111.518 71.8623 111.512 71.8623 111.505 71.8623C111.498 71.8623 111.491 71.8623 111.484 71.8623C111.478 71.8623 111.471 71.8623 111.464 71.8623C111.457 71.8623 111.45 71.8623 111.443 71.8623C111.437 71.8623 111.43 71.8623 111.423 71.8623C111.416 71.8623 111.409 71.8623 111.403 71.8623C111.396 71.8623 111.389 71.8623 111.382 71.8623C111.375 71.8623 111.369 71.8623 111.362 71.8623C111.355 71.8623 111.348 71.8623 111.341 71.8623C111.335 71.8623 111.328 71.8623 111.321 71.8623C111.314 71.8623 111.307 71.8623 111.301 71.8623C111.294 71.8623 111.287 71.8623 111.28 71.8623C111.273 71.8623 111.267 71.8623 111.26 71.8623C111.253 71.8623 111.246 71.8623 111.24 71.8623C111.233 71.8623 111.226 71.8623 111.219 71.8623C111.213 71.8623 111.206 71.8623 111.199 71.8623C111.192 71.8623 111.185 71.8623 111.179 71.8623C111.172 71.8623 111.165 71.8623 111.158 71.8623C111.152 71.8623 111.145 71.8623 111.138 71.8623C111.131 71.8623 111.125 71.8623 111.118 71.8623C111.111 71.8623 111.104 71.8623 111.098 71.8623C111.091 71.8623 111.084 71.8623 111.077 71.8623C111.071 71.8623 111.064 71.8623 111.057 71.8623C111.051 71.8623 111.044 71.8623 111.037 71.8623C111.03 71.8623 111.024 71.8623 111.017 71.8623C111.01 71.8623 111.004 71.8623 110.997 71.8623C110.99 71.8623 110.983 71.8623 110.977 71.8623C110.97 71.8623 110.963 71.8623 110.957 71.8623C110.95 71.8623 110.943 71.8623 110.936 71.8623C110.93 71.8623 110.923 71.8623 110.916 71.8623C110.91 71.8623 110.903 71.8623 110.896 71.8623C110.89 71.8623 110.883 71.8623 110.876 71.8623C110.87 71.8623 110.863 71.8623 110.856 71.8623C110.85 71.8623 110.843 71.8623 110.836 71.8623C110.83 71.8623 110.823 71.8623 110.816 71.8623C110.81 71.8623 110.803 71.8623 110.796 71.8623C110.79 71.8623 110.783 71.8623 110.776 71.8623C110.77 71.8623 110.763 71.8623 110.756 71.8623C110.75 71.8623 110.743 71.8623 110.736 71.8623C110.73 71.8623 110.723 71.8623 110.716 71.8623C110.71 71.8623 110.703 71.8623 110.697 71.8623C110.69 71.8623 110.683 71.8623 110.677 71.8623C110.67 71.8623 110.663 71.8623 110.657 71.8623C110.65 71.8623 110.644 71.8623 110.637 71.8623C110.63 71.8623 110.624 71.8623 110.617 71.8623C110.611 71.8623 110.604 71.8623 110.597 71.8623C110.591 71.8623 110.584 71.8623 110.578 71.8623C110.571 71.8623 110.564 71.8623 110.558 71.8623C110.551 71.8623 110.545 71.8623 110.538 71.8623C110.532 71.8623 110.525 71.8623 110.518 71.8623C110.512 71.8623 110.505 71.8623 110.499 71.8623C110.492 71.8623 110.486 71.8623 110.479 71.8623C110.473 71.8623 110.466 71.8623 110.459 71.8623C110.453 71.8623 110.446 71.8623 110.44 71.8623C110.433 71.8623 110.427 71.8623 110.42 71.8623C110.414 71.8623 110.407 71.8623 110.401 71.8623C110.394 71.8623 110.388 71.8623 110.381 71.8623C110.375 71.8623 110.368 71.8623 110.362 71.8623C110.355 71.8623 110.349 71.8623 110.342 71.8623C110.336 71.8623 110.329 71.8623 110.323 71.8623C110.316 71.8623 110.31 71.8623 110.303 71.8623C110.297 71.8623 110.29 71.8623 110.284 71.8623C110.277 71.8623 110.271 71.8623 110.264 71.8623C110.258 71.8623 110.251 71.8623 110.245 71.8623C110.238 71.8623 110.232 71.8623 110.225 71.8623C110.219 71.8623 110.212 71.8623 110.206 71.8623C110.2 71.8623 110.193 71.8623 110.187 71.8623C110.18 71.8623 110.174 71.8623 110.167 71.8623C110.161 71.8623 110.155 71.8623 110.148 71.8623C110.142 71.8623 110.135 71.8623 110.129 71.8623C110.122 71.8623 110.116 71.8623 110.11 71.8623C110.103 71.8623 110.097 71.8623 110.09 71.8623C110.084 71.8623 110.078 71.8623 110.071 71.8623C110.065 71.8623 110.058 71.8623 110.052 71.8623C110.046 71.8623 110.039 71.8623 110.033 71.8623C110.027 71.8623 110.02 71.8623 110.014 71.8623C110.007 71.8623 110.001 71.8623 109.995 71.8623C109.988 71.8623 109.982 71.8623 109.976 71.8623C109.969 71.8623 109.963 71.8623 109.957 71.8623C109.95 71.8623 109.944 71.8623 109.938 71.8623C109.931 71.8623 109.925 71.8623 109.919 71.8623C109.912 71.8623 109.906 71.8623 109.9 71.8623C109.893 71.8623 109.887 71.8623 109.881 71.8623C109.874 71.8623 109.868 71.8623 109.862 71.8623C109.856 71.8623 109.849 71.8623 109.843 71.8623C109.837 71.8623 109.83 71.8623 109.824 71.8623C109.818 71.8623 109.812 71.8623 109.805 71.8623C109.799 71.8623 109.793 71.8623 109.787 71.8623C109.78 71.8623 109.774 71.8623 109.768 71.8623C109.762 71.8623 109.755 71.8623 109.749 71.8623C109.743 71.8623 109.737 71.8623 109.73 71.8623C109.724 71.8623 109.718 71.8623 109.712 71.8623C109.705 71.8623 109.699 71.8623 109.693 71.8623C109.687 71.8623 109.681 71.8623 109.674 71.8623C109.668 71.8623 109.662 71.8623 109.656 71.8623C109.65 71.8623 109.643 71.8623 109.637 71.8623C109.631 71.8623 109.625 71.8623 109.619 71.8623C109.613 71.8623 109.606 71.8623 109.6 71.8623C109.594 71.8623 109.588 71.8623 109.582 71.8623C109.576 71.8623 109.569 71.8623 109.563 71.8623C109.557 71.8623 109.551 71.8623 109.545 71.8623C109.539 71.8623 109.533 71.8623 109.527 71.8623C109.52 71.8623 109.514 71.8623 109.508 71.8623C109.502 71.8623 109.496 71.8623 109.49 71.8623C109.484 71.8623 109.478 71.8623 109.472 71.8623C109.466 71.8623 109.459 71.8623 109.453 71.8623C109.447 71.8623 109.441 71.8623 109.435 71.8623C109.429 71.8623 109.423 71.8623 109.417 71.8623C109.411 71.8623 109.405 71.8623 109.399 71.8623C109.393 71.8623 109.387 71.8623 109.381 71.8623C109.375 71.8623 109.369 71.8623 109.363 71.8623C109.357 71.8623 109.351 71.8623 109.345 71.8623C109.339 71.8623 109.333 71.8623 109.327 71.8623C109.32 71.8623 109.315 71.8623 109.309 71.8623C109.303 71.8623 109.297 71.8623 109.291 71.8623C109.285 71.8623 109.279 71.8623 109.273 71.8623C109.267 71.8623 109.261 71.8623 109.255 71.8623C109.249 71.8623 109.243 71.8623 109.237 71.8623C109.231 71.8623 109.225 71.8623 109.219 71.8623C109.213 71.8623 109.207 71.8623 109.201 71.8623C109.195 71.8623 109.189 71.8623 109.183 71.8623C109.178 71.8623 109.172 71.8623 109.166 71.8623C109.16 71.8623 109.154 71.8623 109.148 71.8623C109.142 71.8623 109.136 71.8623 109.13 71.8623C109.125 71.8623 109.119 71.8623 109.113 71.8623C109.107 71.8623 109.101 71.8623 109.095 71.8623C109.089 71.8623 109.084 71.8623 109.078 71.8623C109.072 71.8623 109.066 71.8623 109.06 71.8623C109.054 71.8623 109.049 71.8623 109.043 71.8623C109.037 71.8623 109.031 71.8623 109.025 71.8623C109.019 71.8623 109.014 71.8623 109.008 71.8623C109.002 71.8623 108.996 71.8623 108.99 71.8623C108.985 71.8623 108.979 71.8623 108.973 71.8623C108.967 71.8623 108.962 71.8623 108.956 71.8623C108.95 71.8623 108.944 71.8623 108.939 71.8623C108.933 71.8623 108.927 71.8623 108.921 71.8623C108.916 71.8623 108.91 71.8623 108.904 71.8623C108.898 71.8623 108.893 71.8623 108.887 71.8623C108.881 71.8623 108.876 71.8623 108.87 71.8623C108.864 71.8623 108.859 71.8623 108.853 71.8623C108.847 71.8623 108.842 71.8623 108.836 71.8623C108.83 71.8623 108.825 71.8623 108.819 71.8623C108.813 71.8623 108.808 71.8623 108.802 71.8623C108.796 71.8623 108.791 71.8623 108.785 71.8623C108.779 71.8623 108.774 71.8623 108.768 71.8623V73.8623C108.774 73.8623 108.779 73.8623 108.785 73.8623C108.791 73.8623 108.796 73.8623 108.802 73.8623C108.808 73.8623 108.813 73.8623 108.819 73.8623C108.825 73.8623 108.83 73.8623 108.836 73.8623C108.842 73.8623 108.847 73.8623 108.853 73.8623C108.859 73.8623 108.864 73.8623 108.87 73.8623C108.876 73.8623 108.881 73.8623 108.887 73.8623C108.893 73.8623 108.898 73.8623 108.904 73.8623C108.91 73.8623 108.916 73.8623 108.921 73.8623C108.927 73.8623 108.933 73.8623 108.939 73.8623C108.944 73.8623 108.95 73.8623 108.956 73.8623C108.962 73.8623 108.967 73.8623 108.973 73.8623C108.979 73.8623 108.985 73.8623 108.99 73.8623C108.996 73.8623 109.002 73.8623 109.008 73.8623C109.014 73.8623 109.019 73.8623 109.025 73.8623C109.031 73.8623 109.037 73.8623 109.043 73.8623C109.049 73.8623 109.054 73.8623 109.06 73.8623C109.066 73.8623 109.072 73.8623 109.078 73.8623C109.084 73.8623 109.089 73.8623 109.095 73.8623C109.101 73.8623 109.107 73.8623 109.113 73.8623C109.119 73.8623 109.125 73.8623 109.13 73.8623C109.136 73.8623 109.142 73.8623 109.148 73.8623C109.154 73.8623 109.16 73.8623 109.166 73.8623C109.172 73.8623 109.178 73.8623 109.183 73.8623C109.189 73.8623 109.195 73.8623 109.201 73.8623C109.207 73.8623 109.213 73.8623 109.219 73.8623C109.225 73.8623 109.231 73.8623 109.237 73.8623C109.243 73.8623 109.249 73.8623 109.255 73.8623C109.261 73.8623 109.267 73.8623 109.273 73.8623C109.279 73.8623 109.285 73.8623 109.291 73.8623C109.297 73.8623 109.303 73.8623 109.309 73.8623C109.315 73.8623 109.32 73.8623 109.327 73.8623C109.333 73.8623 109.339 73.8623 109.345 73.8623C109.351 73.8623 109.357 73.8623 109.363 73.8623C109.369 73.8623 109.375 73.8623 109.381 73.8623C109.387 73.8623 109.393 73.8623 109.399 73.8623C109.405 73.8623 109.411 73.8623 109.417 73.8623C109.423 73.8623 109.429 73.8623 109.435 73.8623C109.441 73.8623 109.447 73.8623 109.453 73.8623C109.459 73.8623 109.466 73.8623 109.472 73.8623C109.478 73.8623 109.484 73.8623 109.49 73.8623C109.496 73.8623 109.502 73.8623 109.508 73.8623C109.514 73.8623 109.52 73.8623 109.527 73.8623C109.533 73.8623 109.539 73.8623 109.545 73.8623C109.551 73.8623 109.557 73.8623 109.563 73.8623C109.569 73.8623 109.576 73.8623 109.582 73.8623C109.588 73.8623 109.594 73.8623 109.6 73.8623C109.606 73.8623 109.613 73.8623 109.619 73.8623C109.625 73.8623 109.631 73.8623 109.637 73.8623C109.643 73.8623 109.65 73.8623 109.656 73.8623C109.662 73.8623 109.668 73.8623 109.674 73.8623C109.681 73.8623 109.687 73.8623 109.693 73.8623C109.699 73.8623 109.705 73.8623 109.712 73.8623C109.718 73.8623 109.724 73.8623 109.73 73.8623C109.737 73.8623 109.743 73.8623 109.749 73.8623C109.755 73.8623 109.762 73.8623 109.768 73.8623C109.774 73.8623 109.78 73.8623 109.787 73.8623C109.793 73.8623 109.799 73.8623 109.805 73.8623C109.812 73.8623 109.818 73.8623 109.824 73.8623C109.83 73.8623 109.837 73.8623 109.843 73.8623C109.849 73.8623 109.856 73.8623 109.862 73.8623C109.868 73.8623 109.874 73.8623 109.881 73.8623C109.887 73.8623 109.893 73.8623 109.9 73.8623C109.906 73.8623 109.912 73.8623 109.919 73.8623C109.925 73.8623 109.931 73.8623 109.938 73.8623C109.944 73.8623 109.95 73.8623 109.957 73.8623C109.963 73.8623 109.969 73.8623 109.976 73.8623C109.982 73.8623 109.988 73.8623 109.995 73.8623C110.001 73.8623 110.007 73.8623 110.014 73.8623C110.02 73.8623 110.027 73.8623 110.033 73.8623C110.039 73.8623 110.046 73.8623 110.052 73.8623C110.058 73.8623 110.065 73.8623 110.071 73.8623C110.078 73.8623 110.084 73.8623 110.09 73.8623C110.097 73.8623 110.103 73.8623 110.11 73.8623C110.116 73.8623 110.122 73.8623 110.129 73.8623C110.135 73.8623 110.142 73.8623 110.148 73.8623C110.155 73.8623 110.161 73.8623 110.167 73.8623C110.174 73.8623 110.18 73.8623 110.187 73.8623C110.193 73.8623 110.2 73.8623 110.206 73.8623C110.212 73.8623 110.219 73.8623 110.225 73.8623C110.232 73.8623 110.238 73.8623 110.245 73.8623C110.251 73.8623 110.258 73.8623 110.264 73.8623C110.271 73.8623 110.277 73.8623 110.284 73.8623C110.29 73.8623 110.297 73.8623 110.303 73.8623C110.31 73.8623 110.316 73.8623 110.323 73.8623C110.329 73.8623 110.336 73.8623 110.342 73.8623C110.349 73.8623 110.355 73.8623 110.362 73.8623C110.368 73.8623 110.375 73.8623 110.381 73.8623C110.388 73.8623 110.394 73.8623 110.401 73.8623C110.407 73.8623 110.414 73.8623 110.42 73.8623C110.427 73.8623 110.433 73.8623 110.44 73.8623C110.446 73.8623 110.453 73.8623 110.459 73.8623C110.466 73.8623 110.473 73.8623 110.479 73.8623C110.486 73.8623 110.492 73.8623 110.499 73.8623C110.505 73.8623 110.512 73.8623 110.518 73.8623C110.525 73.8623 110.532 73.8623 110.538 73.8623C110.545 73.8623 110.551 73.8623 110.558 73.8623C110.564 73.8623 110.571 73.8623 110.578 73.8623C110.584 73.8623 110.591 73.8623 110.597 73.8623C110.604 73.8623 110.611 73.8623 110.617 73.8623C110.624 73.8623 110.63 73.8623 110.637 73.8623C110.644 73.8623 110.65 73.8623 110.657 73.8623C110.663 73.8623 110.67 73.8623 110.677 73.8623C110.683 73.8623 110.69 73.8623 110.697 73.8623C110.703 73.8623 110.71 73.8623 110.716 73.8623C110.723 73.8623 110.73 73.8623 110.736 73.8623C110.743 73.8623 110.75 73.8623 110.756 73.8623C110.763 73.8623 110.77 73.8623 110.776 73.8623C110.783 73.8623 110.79 73.8623 110.796 73.8623C110.803 73.8623 110.81 73.8623 110.816 73.8623C110.823 73.8623 110.83 73.8623 110.836 73.8623C110.843 73.8623 110.85 73.8623 110.856 73.8623C110.863 73.8623 110.87 73.8623 110.876 73.8623C110.883 73.8623 110.89 73.8623 110.896 73.8623C110.903 73.8623 110.91 73.8623 110.916 73.8623C110.923 73.8623 110.93 73.8623 110.936 73.8623C110.943 73.8623 110.95 73.8623 110.957 73.8623C110.963 73.8623 110.97 73.8623 110.977 73.8623C110.983 73.8623 110.99 73.8623 110.997 73.8623C111.004 73.8623 111.01 73.8623 111.017 73.8623C111.024 73.8623 111.03 73.8623 111.037 73.8623C111.044 73.8623 111.051 73.8623 111.057 73.8623C111.064 73.8623 111.071 73.8623 111.077 73.8623C111.084 73.8623 111.091 73.8623 111.098 73.8623C111.104 73.8623 111.111 73.8623 111.118 73.8623C111.125 73.8623 111.131 73.8623 111.138 73.8623C111.145 73.8623 111.152 73.8623 111.158 73.8623C111.165 73.8623 111.172 73.8623 111.179 73.8623C111.185 73.8623 111.192 73.8623 111.199 73.8623C111.206 73.8623 111.213 73.8623 111.219 73.8623C111.226 73.8623 111.233 73.8623 111.24 73.8623C111.246 73.8623 111.253 73.8623 111.26 73.8623C111.267 73.8623 111.273 73.8623 111.28 73.8623C111.287 73.8623 111.294 73.8623 111.301 73.8623C111.307 73.8623 111.314 73.8623 111.321 73.8623C111.328 73.8623 111.335 73.8623 111.341 73.8623C111.348 73.8623 111.355 73.8623 111.362 73.8623C111.369 73.8623 111.375 73.8623 111.382 73.8623C111.389 73.8623 111.396 73.8623 111.403 73.8623C111.409 73.8623 111.416 73.8623 111.423 73.8623C111.43 73.8623 111.437 73.8623 111.443 73.8623C111.45 73.8623 111.457 73.8623 111.464 73.8623C111.471 73.8623 111.478 73.8623 111.484 73.8623C111.491 73.8623 111.498 73.8623 111.505 73.8623C111.512 73.8623 111.518 73.8623 111.525 73.8623C111.532 73.8623 111.539 73.8623 111.546 73.8623C111.553 73.8623 111.559 73.8623 111.566 73.8623C111.573 73.8623 111.58 73.8623 111.587 73.8623C111.594 73.8623 111.601 73.8623 111.607 73.8623C111.614 73.8623 111.621 73.8623 111.628 73.8623C111.635 73.8623 111.642 73.8623 111.648 73.8623C111.655 73.8623 111.662 73.8623 111.669 73.8623C111.676 73.8623 111.683 73.8623 111.69 73.8623C111.696 73.8623 111.703 73.8623 111.71 73.8623C111.717 73.8623 111.724 73.8623 111.731 73.8623C111.738 73.8623 111.744 73.8623 111.751 73.8623C111.758 73.8623 111.765 73.8623 111.772 73.8623C111.779 73.8623 111.786 73.8623 111.793 73.8623C111.799 73.8623 111.806 73.8623 111.813 73.8623C111.82 73.8623 111.827 73.8623 111.834 73.8623C111.841 73.8623 111.848 73.8623 111.854 73.8623C111.861 73.8623 111.868 73.8623 111.875 73.8623C111.882 73.8623 111.889 73.8623 111.896 73.8623C111.903 73.8623 111.91 73.8623 111.916 73.8623C111.923 73.8623 111.93 73.8623 111.937 73.8623C111.944 73.8623 111.951 73.8623 111.958 73.8623C111.965 73.8623 111.972 73.8623 111.978 73.8623C111.985 73.8623 111.992 73.8623 111.999 73.8623C112.006 73.8623 112.013 73.8623 112.02 73.8623C112.027 73.8623 112.034 73.8623 112.04 73.8623C112.047 73.8623 112.054 73.8623 112.061 73.8623C112.068 73.8623 112.075 73.8623 112.082 73.8623C112.089 73.8623 112.096 73.8623 112.103 73.8623C112.11 73.8623 112.116 73.8623 112.123 73.8623C112.13 73.8623 112.137 73.8623 112.144 73.8623C112.151 73.8623 112.158 73.8623 112.165 73.8623C112.172 73.8623 112.179 73.8623 112.186 73.8623C112.192 73.8623 112.199 73.8623 112.206 73.8623C112.213 73.8623 112.22 73.8623 112.227 73.8623C112.234 73.8623 112.241 73.8623 112.248 73.8623C112.255 73.8623 112.262 73.8623 112.269 73.8623C112.275 73.8623 112.282 73.8623 112.289 73.8623C112.296 73.8623 112.303 73.8623 112.31 73.8623C112.317 73.8623 112.324 73.8623 112.331 73.8623C112.338 73.8623 112.345 73.8623 112.352 73.8623C112.359 73.8623 112.365 73.8623 112.372 73.8623C112.379 73.8623 112.386 73.8623 112.393 73.8623C112.4 73.8623 112.407 73.8623 112.414 73.8623C112.421 73.8623 112.428 73.8623 112.435 73.8623C112.442 73.8623 112.449 73.8623 112.456 73.8623C112.462 73.8623 112.469 73.8623 112.476 73.8623C112.483 73.8623 112.49 73.8623 112.497 73.8623C112.504 73.8623 112.511 73.8623 112.518 73.8623C112.525 73.8623 112.532 73.8623 112.539 73.8623C112.546 73.8623 112.553 73.8623 112.559 73.8623C112.566 73.8623 112.573 73.8623 112.58 73.8623C112.587 73.8623 112.594 73.8623 112.601 73.8623C112.608 73.8623 112.615 73.8623 112.622 73.8623C112.629 73.8623 112.636 73.8623 112.643 73.8623C112.65 73.8623 112.657 73.8623 112.663 73.8623C112.67 73.8623 112.677 73.8623 112.684 73.8623C112.691 73.8623 112.698 73.8623 112.705 73.8623C112.712 73.8623 112.719 73.8623 112.726 73.8623C112.733 73.8623 112.74 73.8623 112.747 73.8623C112.754 73.8623 112.76 73.8623 112.767 73.8623C112.774 73.8623 112.781 73.8623 112.788 73.8623C112.795 73.8623 112.802 73.8623 112.809 73.8623C112.816 73.8623 112.823 73.8623 112.83 73.8623C112.837 73.8623 112.844 73.8623 112.851 73.8623C112.858 73.8623 112.864 73.8623 112.871 73.8623C112.878 73.8623 112.885 73.8623 112.892 73.8623C112.899 73.8623 112.906 73.8623 112.913 73.8623C112.92 73.8623 112.927 73.8623 112.934 73.8623C112.941 73.8623 112.948 73.8623 112.955 73.8623C112.961 73.8623 112.968 73.8623 112.975 73.8623C112.982 73.8623 112.989 73.8623 112.996 73.8623C113.003 73.8623 113.01 73.8623 113.017 73.8623C113.024 73.8623 113.031 73.8623 113.038 73.8623C113.045 73.8623 113.051 73.8623 113.058 73.8623C113.065 73.8623 113.072 73.8623 113.079 73.8623C113.086 73.8623 113.093 73.8623 113.1 73.8623C113.107 73.8623 113.114 73.8623 113.121 73.8623C113.128 73.8623 113.134 73.8623 113.141 73.8623C113.148 73.8623 113.155 73.8623 113.162 73.8623C113.169 73.8623 113.176 73.8623 113.183 73.8623C113.19 73.8623 113.197 73.8623 113.204 73.8623C113.211 73.8623 113.217 73.8623 113.224 73.8623C113.231 73.8623 113.238 73.8623 113.245 73.8623C113.252 73.8623 113.259 73.8623 113.266 73.8623C113.273 73.8623 113.28 73.8623 113.287 73.8623C113.293 73.8623 113.3 73.8623 113.307 73.8623C113.314 73.8623 113.321 73.8623 113.328 73.8623C113.335 73.8623 113.342 73.8623 113.349 73.8623C113.356 73.8623 113.362 73.8623 113.369 73.8623C113.376 73.8623 113.383 73.8623 113.39 73.8623C113.397 73.8623 113.404 73.8623 113.411 73.8623C113.418 73.8623 113.424 73.8623 113.431 73.8623C113.438 73.8623 113.445 73.8623 113.452 73.8623C113.459 73.8623 113.466 73.8623 113.473 73.8623C113.48 73.8623 113.486 73.8623 113.493 73.8623C113.5 73.8623 113.507 73.8623 113.514 73.8623C113.521 73.8623 113.528 73.8623 113.535 73.8623C113.542 73.8623 113.548 73.8623 113.555 73.8623C113.562 73.8623 113.569 73.8623 113.576 73.8623C113.583 73.8623 113.59 73.8623 113.596 73.8623C113.603 73.8623 113.61 73.8623 113.617 73.8623C113.624 73.8623 113.631 73.8623 113.638 73.8623C113.645 73.8623 113.651 73.8623 113.658 73.8623C113.665 73.8623 113.672 73.8623 113.679 73.8623C113.686 73.8623 113.693 73.8623 113.699 73.8623C113.706 73.8623 113.713 73.8623 113.72 73.8623C113.727 73.8623 113.734 73.8623 113.741 73.8623C113.747 73.8623 113.754 73.8623 113.761 73.8623C113.768 73.8623 113.775 73.8623 113.782 73.8623C113.788 73.8623 113.795 73.8623 113.802 73.8623C113.809 73.8623 113.816 73.8623 113.823 73.8623C113.829 73.8623 113.836 73.8623 113.843 73.8623C113.85 73.8623 113.857 73.8623 113.864 73.8623C113.87 73.8623 113.877 73.8623 113.884 73.8623C113.891 73.8623 113.898 73.8623 113.905 73.8623C113.911 73.8623 113.918 73.8623 113.925 73.8623C113.932 73.8623 113.939 73.8623 113.945 73.8623C113.952 73.8623 113.959 73.8623 113.966 73.8623C113.973 73.8623 113.979 73.8623 113.986 73.8623C113.993 73.8623 114 73.8623 114.007 73.8623C114.013 73.8623 114.02 73.8623 114.027 73.8623C114.034 73.8623 114.041 73.8623 114.047 73.8623C114.054 73.8623 114.061 73.8623 114.068 73.8623C114.075 73.8623 114.081 73.8623 114.088 73.8623C114.095 73.8623 114.102 73.8623 114.108 73.8623C114.115 73.8623 114.122 73.8623 114.129 73.8623C114.136 73.8623 114.142 73.8623 114.149 73.8623C114.156 73.8623 114.163 73.8623 114.169 73.8623C114.176 73.8623 114.183 73.8623 114.19 73.8623C114.196 73.8623 114.203 73.8623 114.21 73.8623C114.217 73.8623 114.223 73.8623 114.23 73.8623C114.237 73.8623 114.244 73.8623 114.25 73.8623C114.257 73.8623 114.264 73.8623 114.271 73.8623C114.277 73.8623 114.284 73.8623 114.291 73.8623C114.298 73.8623 114.304 73.8623 114.311 73.8623C114.318 73.8623 114.325 73.8623 114.331 73.8623C114.338 73.8623 114.345 73.8623 114.351 73.8623C114.358 73.8623 114.365 73.8623 114.372 73.8623C114.378 73.8623 114.385 73.8623 114.392 73.8623C114.398 73.8623 114.405 73.8623 114.412 73.8623C114.418 73.8623 114.425 73.8623 114.432 73.8623C114.439 73.8623 114.445 73.8623 114.452 73.8623C114.459 73.8623 114.465 73.8623 114.472 73.8623C114.479 73.8623 114.485 73.8623 114.492 73.8623C114.499 73.8623 114.505 73.8623 114.512 73.8623C114.519 73.8623 114.525 73.8623 114.532 73.8623C114.539 73.8623 114.545 73.8623 114.552 73.8623C114.559 73.8623 114.565 73.8623 114.572 73.8623C114.579 73.8623 114.585 73.8623 114.592 73.8623C114.599 73.8623 114.605 73.8623 114.612 73.8623C114.619 73.8623 114.625 73.8623 114.632 73.8623C114.639 73.8623 114.645 73.8623 114.652 73.8623C114.658 73.8623 114.665 73.8623 114.672 73.8623C114.678 73.8623 114.685 73.8623 114.692 73.8623C114.698 73.8623 114.705 73.8623 114.711 73.8623C114.718 73.8623 114.725 73.8623 114.731 73.8623C114.738 73.8623 114.744 73.8623 114.751 73.8623C114.758 73.8623 114.764 73.8623 114.771 73.8623C114.777 73.8623 114.784 73.8623 114.791 73.8623C114.797 73.8623 114.804 73.8623 114.81 73.8623C114.817 73.8623 114.824 73.8623 114.83 73.8623C114.837 73.8623 114.843 73.8623 114.85 73.8623C114.856 73.8623 114.863 73.8623 114.869 73.8623C114.876 73.8623 114.883 73.8623 114.889 73.8623C114.896 73.8623 114.902 73.8623 114.909 73.8623C114.915 73.8623 114.922 73.8623 114.928 73.8623C114.935 73.8623 114.941 73.8623 114.948 73.8623C114.955 73.8623 114.961 73.8623 114.968 73.8623C114.974 73.8623 114.981 73.8623 114.987 73.8623C114.994 73.8623 115 73.8623 115.007 73.8623C115.013 73.8623 115.02 73.8623 115.026 73.8623C115.033 73.8623 115.039 73.8623 115.046 73.8623C115.052 73.8623 115.059 73.8623 115.065 73.8623C115.072 73.8623 115.078 73.8623 115.085 73.8623C115.091 73.8623 115.098 73.8623 115.104 73.8623C115.111 73.8623 115.117 73.8623 115.123 73.8623C115.13 73.8623 115.136 73.8623 115.143 73.8623C115.149 73.8623 115.156 73.8623 115.162 73.8623C115.169 73.8623 115.175 73.8623 115.182 73.8623C115.188 73.8623 115.194 73.8623 115.201 73.8623C115.207 73.8623 115.214 73.8623 115.22 73.8623C115.227 73.8623 115.233 73.8623 115.239 73.8623C115.246 73.8623 115.252 73.8623 115.259 73.8623C115.265 73.8623 115.271 73.8623 115.278 73.8623C115.284 73.8623 115.291 73.8623 115.297 73.8623C115.303 73.8623 115.31 73.8623 115.316 73.8623C115.323 73.8623 115.329 73.8623 115.335 73.8623C115.342 73.8623 115.348 73.8623 115.354 73.8623C115.361 73.8623 115.367 73.8623 115.373 73.8623C115.38 73.8623 115.386 73.8623 115.392 73.8623C115.399 73.8623 115.405 73.8623 115.412 73.8623C115.418 73.8623 115.424 73.8623 115.431 73.8623C115.437 73.8623 115.443 73.8623 115.449 73.8623C115.456 73.8623 115.462 73.8623 115.468 73.8623C115.475 73.8623 115.481 73.8623 115.487 73.8623C115.494 73.8623 115.5 73.8623 115.506 73.8623C115.513 73.8623 115.519 73.8623 115.525 73.8623C115.531 73.8623 115.538 73.8623 115.544 73.8623C115.55 73.8623 115.557 73.8623 115.563 73.8623C115.569 73.8623 115.575 73.8623 115.582 73.8623C115.588 73.8623 115.594 73.8623 115.6 73.8623C115.607 73.8623 115.613 73.8623 115.619 73.8623C115.625 73.8623 115.632 73.8623 115.638 73.8623C115.644 73.8623 115.65 73.8623 115.656 73.8623C115.663 73.8623 115.669 73.8623 115.675 73.8623C115.681 73.8623 115.687 73.8623 115.694 73.8623C115.7 73.8623 115.706 73.8623 115.712 73.8623C115.718 73.8623 115.725 73.8623 115.731 73.8623C115.737 73.8623 115.743 73.8623 115.749 73.8623C115.755 73.8623 115.762 73.8623 115.768 73.8623C115.774 73.8623 115.78 73.8623 115.786 73.8623C115.792 73.8623 115.799 73.8623 115.805 73.8623C115.811 73.8623 115.817 73.8623 115.823 73.8623C115.829 73.8623 115.835 73.8623 115.841 73.8623C115.848 73.8623 115.854 73.8623 115.86 73.8623C115.866 73.8623 115.872 73.8623 115.878 73.8623C115.884 73.8623 115.89 73.8623 115.896 73.8623C115.902 73.8623 115.909 73.8623 115.915 73.8623C115.921 73.8623 115.927 73.8623 115.933 73.8623C115.939 73.8623 115.945 73.8623 115.951 73.8623C115.957 73.8623 115.963 73.8623 115.969 73.8623C115.975 73.8623 115.981 73.8623 115.987 73.8623C115.993 73.8623 115.999 73.8623 116.005 73.8623C116.011 73.8623 116.017 73.8623 116.023 73.8623C116.029 73.8623 116.035 73.8623 116.041 73.8623C116.047 73.8623 116.053 73.8623 116.059 73.8623C116.065 73.8623 116.071 73.8623 116.077 73.8623C116.083 73.8623 116.089 73.8623 116.095 73.8623C116.101 73.8623 116.107 73.8623 116.113 73.8623C116.119 73.8623 116.125 73.8623 116.131 73.8623C116.137 73.8623 116.143 73.8623 116.149 73.8623C116.155 73.8623 116.161 73.8623 116.167 73.8623C116.173 73.8623 116.179 73.8623 116.184 73.8623C116.19 73.8623 116.196 73.8623 116.202 73.8623C116.208 73.8623 116.214 73.8623 116.22 73.8623C116.226 73.8623 116.232 73.8623 116.237 73.8623C116.243 73.8623 116.249 73.8623 116.255 73.8623C116.261 73.8623 116.267 73.8623 116.273 73.8623C116.279 73.8623 116.284 73.8623 116.29 73.8623C116.296 73.8623 116.302 73.8623 116.308 73.8623C116.314 73.8623 116.319 73.8623 116.325 73.8623C116.331 73.8623 116.337 73.8623 116.343 73.8623C116.348 73.8623 116.354 73.8623 116.36 73.8623C116.366 73.8623 116.372 73.8623 116.377 73.8623C116.383 73.8623 116.389 73.8623 116.395 73.8623C116.4 73.8623 116.406 73.8623 116.412 73.8623C116.418 73.8623 116.423 73.8623 116.429 73.8623C116.435 73.8623 116.441 73.8623 116.446 73.8623C116.452 73.8623 116.458 73.8623 116.464 73.8623C116.469 73.8623 116.475 73.8623 116.481 73.8623C116.486 73.8623 116.492 73.8623 116.498 73.8623C116.504 73.8623 116.509 73.8623 116.515 73.8623C116.521 73.8623 116.526 73.8623 116.532 73.8623C116.538 73.8623 116.543 73.8623 116.549 73.8623C116.555 73.8623 116.56 73.8623 116.566 73.8623C116.571 73.8623 116.577 73.8623 116.583 73.8623C116.588 73.8623 116.594 73.8623 116.6 73.8623C116.605 73.8623 116.611 73.8623 116.616 73.8623C116.622 73.8623 116.628 73.8623 116.633 73.8623C116.639 73.8623 116.644 73.8623 116.65 73.8623C116.656 73.8623 116.661 73.8623 116.667 73.8623C116.672 73.8623 116.678 73.8623 116.683 73.8623C116.689 73.8623 116.694 73.8623 116.7 73.8623C116.706 73.8623 116.711 73.8623 116.717 73.8623C116.722 73.8623 116.728 73.8623 116.733 73.8623C116.739 73.8623 116.744 73.8623 116.75 73.8623C116.755 73.8623 116.761 73.8623 116.766 73.8623C116.772 73.8623 116.777 73.8623 116.783 73.8623C116.788 73.8623 116.793 73.8623 116.799 73.8623C116.804 73.8623 116.81 73.8623 116.815 73.8623C116.821 73.8623 116.826 73.8623 116.832 73.8623C116.837 73.8623 116.842 73.8623 116.848 73.8623C116.853 73.8623 116.859 73.8623 116.864 73.8623C116.869 73.8623 116.875 73.8623 116.88 73.8623C116.886 73.8623 116.891 73.8623 116.896 73.8623C116.902 73.8623 116.907 73.8623 116.912 73.8623C116.918 73.8623 116.923 73.8623 116.928 73.8623C116.934 73.8623 116.939 73.8623 116.944 73.8623C116.95 73.8623 116.955 73.8623 116.96 73.8623C116.966 73.8623 116.971 73.8623 116.976 73.8623C116.982 73.8623 116.987 73.8623 116.992 73.8623C116.997 73.8623 117.003 73.8623 117.008 73.8623C117.013 73.8623 117.019 73.8623 117.024 73.8623C117.029 73.8623 117.034 73.8623 117.04 73.8623C117.045 73.8623 117.05 73.8623 117.055 73.8623C117.06 73.8623 117.066 73.8623 117.071 73.8623C117.076 73.8623 117.081 73.8623 117.086 73.8623C117.092 73.8623 117.097 73.8623 117.102 73.8623C117.107 73.8623 117.112 73.8623 117.118 73.8623C117.123 73.8623 117.128 73.8623 117.133 73.8623C117.138 73.8623 117.143 73.8623 117.148 73.8623C117.154 73.8623 117.159 73.8623 117.164 73.8623C117.169 73.8623 117.174 73.8623 117.179 73.8623C117.184 73.8623 117.189 73.8623 117.194 73.8623C117.2 73.8623 117.205 73.8623 117.21 73.8623C117.215 73.8623 117.22 73.8623 117.225 73.8623C117.23 73.8623 117.235 73.8623 117.24 73.8623C117.245 73.8623 117.25 73.8623 117.255 73.8623C117.26 73.8623 117.265 73.8623 117.27 73.8623C117.275 73.8623 117.28 73.8623 117.285 73.8623C117.29 73.8623 117.295 73.8623 117.3 73.8623C117.305 73.8623 117.31 73.8623 117.315 73.8623C117.32 73.8623 117.325 73.8623 117.33 73.8623C117.335 73.8623 117.34 73.8623 117.345 73.8623C117.35 73.8623 117.355 73.8623 117.359 73.8623C117.364 73.8623 117.369 73.8623 117.374 73.8623C117.379 73.8623 117.384 73.8623 117.389 73.8623C117.394 73.8623 117.399 73.8623 117.403 73.8623C117.408 73.8623 117.413 73.8623 117.418 73.8623C117.423 73.8623 117.428 73.8623 117.432 73.8623C117.437 73.8623 117.442 73.8623 117.447 73.8623C117.452 73.8623 117.457 73.8623 117.461 73.8623C117.466 73.8623 117.471 73.8623 117.476 73.8623C117.481 73.8623 117.485 73.8623 117.49 73.8623C117.495 73.8623 117.5 73.8623 117.504 73.8623C117.509 73.8623 117.514 73.8623 117.519 73.8623C117.523 73.8623 117.528 73.8623 117.533 73.8623C117.537 73.8623 117.542 73.8623 117.547 73.8623C117.552 73.8623 117.556 73.8623 117.561 73.8623C117.566 73.8623 117.57 73.8623 117.575 73.8623C117.58 73.8623 117.584 73.8623 117.589 73.8623C117.593 73.8623 117.598 73.8623 117.603 73.8623C117.607 73.8623 117.612 73.8623 117.617 73.8623C117.621 73.8623 117.626 73.8623 117.63 73.8623C117.635 73.8623 117.64 73.8623 117.644 73.8623C117.649 73.8623 117.653 73.8623 117.658 73.8623C117.662 73.8623 117.667 73.8623 117.671 73.8623C117.676 73.8623 117.681 73.8623 117.685 73.8623C117.69 73.8623 117.694 73.8623 117.699 73.8623C117.703 73.8623 117.708 73.8623 117.712 73.8623C117.717 73.8623 117.721 73.8623 117.726 73.8623C117.73 73.8623 117.734 73.8623 117.739 73.8623C117.743 73.8623 117.748 73.8623 117.752 73.8623C117.757 73.8623 117.761 73.8623 117.766 73.8623C117.77 73.8623 117.774 73.8623 117.779 73.8623C117.783 73.8623 117.788 73.8623 117.792 73.8623C117.796 73.8623 117.801 73.8623 117.805 73.8623C117.809 73.8623 117.814 73.8623 117.818 73.8623C117.822 73.8623 117.827 73.8623 117.831 73.8623C117.835 73.8623 117.84 73.8623 117.844 73.8623C117.848 73.8623 117.853 73.8623 117.857 73.8623C117.861 73.8623 117.865 73.8623 117.87 73.8623C117.874 73.8623 117.878 73.8623 117.882 73.8623C117.887 73.8623 117.891 73.8623 117.895 73.8623C117.899 73.8623 117.904 73.8623 117.908 73.8623C117.912 73.8623 117.916 73.8623 117.92 73.8623C117.925 73.8623 117.929 73.8623 117.933 73.8623C117.937 73.8623 117.941 73.8623 117.946 73.8623C117.95 73.8623 117.954 73.8623 117.958 73.8623C117.962 73.8623 117.966 73.8623 117.97 73.8623C117.974 73.8623 117.979 73.8623 117.983 73.8623C117.987 73.8623 117.991 73.8623 117.995 73.8623C117.999 73.8623 118.003 73.8623 118.007 73.8623C118.011 73.8623 118.015 73.8623 118.019 73.8623C118.023 73.8623 118.027 73.8623 118.031 73.8623C118.035 73.8623 118.039 73.8623 118.043 73.8623C118.047 73.8623 118.051 73.8623 118.055 73.8623C118.059 73.8623 118.063 73.8623 118.067 73.8623C118.071 73.8623 118.075 73.8623 118.079 73.8623C118.083 73.8623 118.087 73.8623 118.091 73.8623C118.095 73.8623 118.099 73.8623 118.103 73.8623C118.107 73.8623 118.11 73.8623 118.114 73.8623C118.118 73.8623 118.122 73.8623 118.126 73.8623C118.13 73.8623 118.134 73.8623 118.137 73.8623C118.141 73.8623 118.145 73.8623 118.149 73.8623C118.153 73.8623 118.157 73.8623 118.16 73.8623C118.164 73.8623 118.168 73.8623 118.172 73.8623V71.8623ZM108.768 71.8623C106.486 71.8623 104.614 73.417 103.537 75.3623C102.451 77.3243 102.05 79.8786 102.842 82.2361L104.738 81.5991C104.147 79.8405 104.437 77.8672 105.287 76.3306C106.147 74.7773 107.455 73.8623 108.768 73.8623V71.8623ZM102.842 82.2361C103.544 84.3269 104.457 86.6539 106.911 88.393C109.335 90.1112 113.107 91.1497 119.278 91.1497V89.1497C113.279 89.1497 109.999 88.1301 108.067 86.7613C106.165 85.4134 105.418 83.6243 104.738 81.5991L102.842 82.2361Z" fill="#161853"/>
<path d="M121.214 61.3374C117.065 61.7947 106.445 64.3558 97.1518 70.9415" stroke="#161853" stroke-width="2" stroke-linecap="round"/>
<path d="M92.1735 73.96C90.4218 76.3381 84.208 82.0274 74.4725 84.6617" stroke="#161853" stroke-width="2" stroke-linecap="round"/>
<path d="M27.5465 81.4814C27.7604 80.9722 27.5209 80.3861 27.0117 80.1722C26.5025 79.9584 25.9164 80.1978 25.7025 80.707L27.5465 81.4814ZM38.7565 94.3918C39.2809 94.5652 39.8465 94.2807 40.02 93.7563C40.1934 93.232 39.9089 92.6663 39.3845 92.4929L38.7565 94.3918ZM25.7025 80.707C25.1835 81.943 24.759 83.9251 25.1909 85.9162C25.6376 87.9752 26.9897 89.9681 29.8581 91.0817L30.5819 89.2173C28.3613 88.3552 27.4548 86.9181 27.1454 85.4922C26.8214 83.9984 27.1437 82.4407 27.5465 81.4814L25.7025 80.707ZM29.8581 91.0817C34.9519 93.0593 37.9024 94.1093 38.7565 94.3918L39.3845 92.4929C38.5792 92.2266 35.6662 91.1912 30.5819 89.2173L29.8581 91.0817Z" fill="#161853"/>
<path d="M51.8217 128.403C52.3672 128.49 52.8793 128.117 52.9655 127.572C53.0517 127.026 52.6794 126.514 52.1339 126.428L51.8217 128.403ZM41.5597 104.108L42.557 104.034L41.5597 104.108ZM41.5597 83.0152L41.022 82.1721L41.5597 83.0152ZM54.5589 90.4241L53.639 90.8164L54.5589 90.4241ZM60.0812 115.819C60.1988 116.359 60.7315 116.701 61.2712 116.583C61.8108 116.466 62.1529 115.933 62.0353 115.393L60.0812 115.819ZM42.557 104.034C42.3469 101.186 41.9971 98.5878 41.6544 96.2671C41.3093 93.9302 40.9782 91.9149 40.7909 90.1625C40.6029 88.404 40.5752 87.0264 40.7895 85.9696C40.9958 84.9529 41.4109 84.2963 42.0975 83.8584L41.022 82.1721C39.7725 82.969 39.1159 84.16 38.8295 85.5719C38.5512 86.9436 38.6099 88.5753 38.8022 90.375C38.9952 92.1807 39.3382 94.2723 39.6759 96.5592C40.016 98.8622 40.3576 101.405 40.5624 104.181L42.557 104.034ZM42.0975 83.8584C43.3603 83.0529 44.4984 82.7041 45.5193 82.6809C46.5348 82.6579 47.508 82.955 48.4517 83.5622C50.378 84.8016 52.1454 87.3138 53.639 90.8164L55.4787 90.0319C53.93 86.4 51.9636 83.4437 49.5338 81.8803C48.2995 81.086 46.939 80.6482 45.4739 80.6815C44.0143 80.7146 42.5249 81.2136 41.022 82.1721L42.0975 83.8584ZM53.639 90.8164C54.8167 93.5782 56.2394 98.9421 57.4719 104.118C58.6973 109.265 59.7101 114.117 60.0812 115.819L62.0353 115.393C61.6688 113.712 60.6488 108.826 59.4175 103.655C58.1931 98.5127 56.7349 92.9776 55.4787 90.0319L53.639 90.8164ZM52.1339 126.428C49.3653 125.99 47.4938 124.963 46.1916 123.594C44.8776 122.212 44.0692 120.405 43.5717 118.289C43.0729 116.168 42.9002 113.798 42.8141 111.34C42.7293 108.921 42.7286 106.361 42.557 104.034L40.5624 104.181C40.7306 106.462 40.7269 108.886 40.8153 111.41C40.9024 113.894 41.0791 116.426 41.6248 118.747C42.1717 121.073 43.1028 123.248 44.7424 124.972C46.3938 126.708 48.6898 127.908 51.8217 128.403L52.1339 126.428Z" fill="#161853"/>
<path d="M62.0848 147.313C62.4361 147.739 63.0664 147.8 63.4925 147.448C63.9186 147.097 63.9791 146.467 63.6278 146.04L62.0848 147.313ZM55.6652 142.835L55.0991 143.659L55.6652 142.835ZM69.5124 106.339L70.1852 107.079L69.5124 106.339ZM85.1683 93.5417L85.7586 94.3489L85.1683 93.5417ZM93.9357 102.554L93.1108 101.989L93.9357 102.554ZM66.6356 137.51C66.4224 138.019 66.6625 138.605 67.1719 138.818C67.6814 139.031 68.2673 138.791 68.4805 138.282L66.6356 137.51ZM63.6278 146.04C63.2797 145.618 62.7431 145.299 62.2485 145.043C61.7263 144.772 61.0895 144.495 60.4354 144.207C59.0962 143.618 57.5878 142.942 56.2314 142.011L55.0991 143.659C56.6307 144.711 58.303 145.454 59.6298 146.038C60.3088 146.336 60.8763 146.585 61.329 146.819C61.8093 147.068 62.018 147.232 62.0848 147.313L63.6278 146.04ZM70.1852 107.079C76.2427 101.57 79.837 98.6794 85.7586 94.3489L84.578 92.7345C78.6011 97.1056 74.9515 100.041 68.8396 105.6L70.1852 107.079ZM85.7586 94.3489C88.3033 92.488 91.1341 92.971 92.8382 94.5848C94.5082 96.1663 95.196 98.9463 93.1108 101.989L94.7605 103.119C97.3771 99.3017 96.6288 95.42 94.2134 93.1326C91.8321 90.8775 87.9283 90.2844 84.578 92.7345L85.7586 94.3489ZM93.1108 101.989C91.9782 103.641 90.1823 105.714 87.9773 108.173C85.7891 110.614 83.218 113.415 80.6011 116.469C75.3707 122.572 69.8671 129.79 66.6356 137.51L68.4805 138.282C71.5871 130.86 76.9213 123.837 82.1198 117.77C84.7173 114.739 87.2583 111.972 89.4664 109.508C91.6576 107.064 93.5422 104.897 94.7605 103.119L93.1108 101.989ZM56.2314 142.011C53.5684 140.182 52.6985 137.533 53.0237 134.332C53.3548 131.072 54.9306 127.328 57.0928 123.606C61.4094 116.177 67.8365 109.215 70.1852 107.079L68.8396 105.6C66.3682 107.847 59.8009 114.964 55.3635 122.601C53.1487 126.413 51.4077 130.45 51.0339 134.13C50.6541 137.868 51.6912 141.319 55.0991 143.659L56.2314 142.011Z" fill="#161853"/>
<path d="M65.9532 150.874C65.6953 150.386 65.0904 150.199 64.602 150.457C64.1136 150.715 63.9267 151.32 64.1845 151.808L65.9532 150.874ZM82.4932 162.317L81.8537 163.086L82.4932 162.317ZM99.3536 164.105C99.886 163.958 100.199 163.407 100.052 162.875C99.9052 162.342 99.3547 162.03 98.8222 162.177L99.3536 164.105ZM81.8537 163.086C83.5414 164.49 85.3871 165.485 88.1415 165.73C90.8338 165.97 94.338 165.487 99.3536 164.105L98.8222 162.177C93.881 163.538 90.6523 163.946 88.3186 163.738C86.047 163.536 84.5738 162.747 83.1328 161.549L81.8537 163.086ZM64.1845 151.808C66.368 155.944 69.4691 157.539 72.6597 158.732C75.8727 159.933 78.9771 160.693 81.8537 163.086L83.1328 161.549C79.9172 158.874 76.3272 157.968 73.36 156.859C70.3704 155.741 67.8054 154.383 65.9532 150.874L64.1845 151.808Z" fill="#161853"/>
<path d="M103.642 161.911C120.33 159.091 125.561 137.049 120.938 128.017" stroke="#161853" stroke-width="2" stroke-linecap="round"/>
<path d="M83.5942 148.54C83.4183 149.064 83.7002 149.63 84.2238 149.806C84.7473 149.982 85.3143 149.7 85.4901 149.177L83.5942 148.54ZM111.783 110.323L112.488 111.033L111.783 110.323ZM100.198 101.311L100.783 102.122L100.198 101.311ZM69.5689 131.607C69.3096 132.095 69.4946 132.7 69.9823 132.96C70.4699 133.219 71.0754 133.034 71.3347 132.546L69.5689 131.607ZM112.488 111.033C115.989 107.559 115.823 102.745 113.093 99.8864C110.304 96.9664 105.25 96.4309 99.6128 100.5L100.783 102.122C105.893 98.4333 109.764 99.2963 111.647 101.268C113.589 103.301 113.843 106.871 111.079 109.613L112.488 111.033ZM85.4901 149.177C87.3156 143.741 91.9493 136.292 97.236 129.104C102.506 121.94 108.344 115.145 112.488 111.033L111.079 109.613C106.846 113.813 100.942 120.691 95.6249 127.919C90.3246 135.125 85.5261 142.788 83.5942 148.54L85.4901 149.177ZM99.6128 100.5C89.2481 107.981 75.629 120.211 69.5689 131.607L71.3347 132.546C77.1731 121.567 90.4822 109.557 100.783 102.122L99.6128 100.5Z" fill="#161853"/>
<path d="M112.28 157.441C111.737 157.338 111.213 157.693 111.112 158.235C111.01 158.776 111.369 159.299 111.913 159.402L112.28 157.441ZM129.756 163.842L130.201 162.949L129.756 163.842ZM161.073 154.811C161.471 154.43 161.483 153.798 161.099 153.399C160.715 153.001 160.081 152.987 159.682 153.368L161.073 154.811ZM111.913 159.402C115.755 160.132 124.675 162.428 129.311 164.734L130.201 162.949C125.312 160.517 116.174 158.18 112.28 157.441L111.913 159.402ZM129.311 164.734C132.418 166.28 136.485 167.572 141.77 166.534C147.024 165.502 153.356 162.193 161.073 154.811L159.682 153.368C152.127 160.595 146.125 163.643 141.375 164.575C136.656 165.502 133.048 164.365 130.201 162.949L129.311 164.734Z" fill="#161853"/>
<path d="M167.229 141.964C167.117 142.504 167.465 143.031 168.007 143.141C168.549 143.251 169.079 142.902 169.192 142.362L167.229 141.964ZM177.223 126.637L177.968 127.301L177.223 126.637ZM183.784 107.293C183.514 106.812 182.904 106.641 182.421 106.911C181.937 107.181 181.763 107.789 182.032 108.27L183.784 107.293ZM169.192 142.362C169.65 140.162 172.06 133.866 177.968 127.301L176.477 125.973C170.357 132.773 167.767 139.383 167.229 141.964L169.192 142.362ZM177.968 127.301C181.788 123.056 183.944 119.317 184.793 115.992C185.649 112.635 185.158 109.748 183.784 107.293L182.032 108.27C183.156 110.277 183.581 112.641 182.85 115.508C182.11 118.407 180.174 121.864 176.477 125.973L177.968 127.301Z" fill="#161853"/>
<path d="M191.912 100.293C191.906 99.7406 191.454 99.2973 190.902 99.3028C190.35 99.3082 189.906 99.7604 189.912 100.313L191.912 100.293ZM189.252 150.244L190.248 150.332L189.252 150.244ZM182.198 201.253C182.333 201.788 182.876 202.113 183.412 201.978C183.947 201.843 184.272 201.3 184.137 200.764L182.198 201.253ZM189.912 100.313C190.004 109.63 189.801 132.642 188.256 150.156L190.248 150.332C191.802 132.722 192.004 109.635 191.912 100.293L189.912 100.313ZM188.256 150.156C187.295 161.053 184.897 170.082 183.157 178.3C181.426 186.476 180.339 193.877 182.198 201.253L184.137 200.764C182.4 193.871 183.388 186.866 185.114 178.715C186.831 170.606 189.273 161.387 190.248 150.332L188.256 150.156Z" fill="#161853"/>
<path d="M150.808 31.4275C153.85 23.2868 160.709 5.85313 163.807 1.24316" stroke="#161853" stroke-width="2" stroke-linecap="round"/>
<path d="M178.189 9.4751C175.976 23.744 190.635 25.116 190.635 44.0498" stroke="#161853" stroke-width="2" stroke-linecap="round"/>
<path d="M119.79 110.145C119.315 109.863 118.701 110.018 118.419 110.493C118.136 110.967 118.292 111.581 118.767 111.864L119.79 110.145ZM116.26 123.002C115.71 122.95 115.223 123.355 115.171 123.905C115.12 124.454 115.525 124.942 116.074 124.993L116.26 123.002ZM118.767 111.864L132.331 119.938L133.354 118.22L119.79 110.145L118.767 111.864ZM130.889 124.363L116.26 123.002L116.074 124.993L130.704 126.354L130.889 124.363ZM133.108 123.291C132.625 124.032 131.771 124.445 130.889 124.363L130.704 126.354C132.324 126.505 133.895 125.746 134.784 124.383L133.108 123.291ZM132.331 119.938C133.496 120.632 133.849 122.155 133.108 123.291L134.784 124.383C136.145 122.296 135.495 119.494 133.354 118.22L132.331 119.938Z" fill="#161853"/>
<path d="M107.713 114.674C115.541 109.701 120.281 117.285 117.106 122.443C113.836 127.755 106.203 139.398 102.39 148.858" stroke="#161853" stroke-width="2" stroke-linecap="round"/>
<path d="M68.6643 103.87L57.0481 97.5586" stroke="#161853" stroke-width="2" stroke-linecap="round"/>
<path d="M38.5955 88.0111C39.0815 88.2735 39.6882 88.0922 39.9505 87.6062C40.2129 87.1202 40.0316 86.5136 39.5456 86.2512L38.5955 88.0111ZM3.73476 68.0555L3.25972 68.9355L3.73476 68.0555ZM4.68037 64.6602L4.72125 63.6611L4.68037 64.6602ZM27.7258 65.6031L27.6849 66.6022L27.7258 65.6031ZM33.3772 67.3039L32.8594 68.1594V68.1594L33.3772 67.3039ZM74.2313 93.2003C74.7038 93.4863 75.3186 93.3351 75.6046 92.8626C75.8905 92.3901 75.7394 91.7753 75.2669 91.4893L74.2313 93.2003ZM3.39511 65.1152L4.05654 65.8652L3.39511 65.1152ZM39.5456 86.2512L4.2098 67.1756L3.25972 68.9355L38.5955 88.0111L39.5456 86.2512ZM4.63949 65.6594L27.6849 66.6022L27.7667 64.6039L4.72125 63.6611L4.63949 65.6594ZM32.8594 68.1594L74.2313 93.2003L75.2669 91.4893L33.895 66.4484L32.8594 68.1594ZM27.6849 66.6022C29.5154 66.6771 31.2961 67.2132 32.8594 68.1594L33.895 66.4484C32.0425 65.3271 29.9336 64.6926 27.7667 64.6039L27.6849 66.6022ZM4.05654 65.8652C4.21543 65.7251 4.42437 65.6506 4.63949 65.6594L4.72125 63.6611C3.99311 63.6313 3.28051 63.883 2.73368 64.3652L4.05654 65.8652ZM4.2098 67.1756C3.71075 66.9062 3.63671 66.2355 4.05654 65.8652L2.73368 64.3652C1.26616 65.6594 1.54084 68.0076 3.25972 68.9355L4.2098 67.1756Z" fill="#161853"/>
<path d="M82.7696 90.9771C83.2413 91.2643 83.8566 91.1148 84.1438 90.643C84.431 90.1713 84.2814 89.5561 83.8097 89.2688L82.7696 90.9771ZM37.7464 62.3926L37.2246 63.2456L37.2263 63.2467L37.7464 62.3926ZM26.1928 58.9805L26.1669 59.9801L26.1928 58.9805ZM3.83288 58.4018L3.807 59.4014L3.83288 58.4018ZM1.32232 61.4266L2.29814 61.208L1.32232 61.4266ZM0.756708 63.4766C0.87742 64.0155 1.41217 64.3545 1.9511 64.2338C2.49003 64.1131 2.82906 63.5784 2.70835 63.0394L0.756708 63.4766ZM83.8097 89.2688L38.2665 61.5384L37.2263 63.2467L82.7696 90.9771L83.8097 89.2688ZM26.2187 57.9808L3.85875 57.4021L3.807 59.4014L26.1669 59.9801L26.2187 57.9808ZM0.346497 61.6451L0.756708 63.4766L2.70835 63.0394L2.29814 61.208L0.346497 61.6451ZM3.85875 57.4021C1.58894 57.3433 -0.151591 59.4214 0.346497 61.6451L2.29814 61.208C2.08901 60.2743 2.81896 59.3758 3.807 59.4014L3.85875 57.4021ZM38.2682 61.5395C34.6379 59.3187 30.4807 58.0911 26.2187 57.9808L26.1669 59.9801C30.079 60.0814 33.894 61.2082 37.2246 63.2456L38.2682 61.5395Z" fill="#161853"/>
<path fill-rule="evenodd" clip-rule="evenodd" d="M16.9084 16.1601C20.0212 16.1601 22.5446 13.6556 22.5446 10.5662C22.5446 7.47684 20.0212 4.97239 16.9084 4.97239C13.7957 4.97239 11.2723 7.47684 11.2723 10.5662C11.2723 13.6556 13.7957 16.1601 16.9084 16.1601ZM16.9084 19.8893C22.0963 19.8893 26.302 15.7152 26.302 10.5662C26.302 5.41725 22.0963 1.24316 16.9084 1.24316C11.7205 1.24316 7.51486 5.41725 7.51486 10.5662C7.51486 15.7152 11.7205 19.8893 16.9084 19.8893Z" fill="#292C6D"/>
<path fill-rule="evenodd" clip-rule="evenodd" d="M202.901 150.04C204.769 150.04 206.283 148.537 206.283 146.683C206.283 144.83 204.769 143.327 202.901 143.327C201.033 143.327 199.519 144.83 199.519 146.683C199.519 148.537 201.033 150.04 202.901 150.04ZM202.901 152.277C206.014 152.277 208.537 149.773 208.537 146.683C208.537 143.594 206.014 141.089 202.901 141.089C199.788 141.089 197.265 143.594 197.265 146.683C197.265 149.773 199.788 152.277 202.901 152.277Z" fill="#292C6D"/>
<path fill-rule="evenodd" clip-rule="evenodd" d="M235.465 192.056C238.578 192.056 241.101 189.551 241.101 186.462C241.101 183.372 238.578 180.868 235.465 180.868C232.353 180.868 229.829 183.372 229.829 186.462C229.829 189.551 232.353 192.056 235.465 192.056ZM235.465 195.785C240.653 195.785 244.859 191.611 244.859 186.462C244.859 181.313 240.653 177.139 235.465 177.139C230.277 177.139 226.072 181.313 226.072 186.462C226.072 191.611 230.277 195.785 235.465 195.785Z" fill="#EC255A"/>
<path fill-rule="evenodd" clip-rule="evenodd" d="M43.8366 182.18C45.9502 182.18 47.6636 180.48 47.6636 178.382C47.6636 176.284 45.9502 174.584 43.8366 174.584C41.723 174.584 40.0096 176.284 40.0096 178.382C40.0096 180.48 41.723 182.18 43.8366 182.18ZM43.8366 185.219C47.6411 185.219 50.7253 182.158 50.7253 178.382C50.7253 174.606 47.6411 171.545 43.8366 171.545C40.0322 171.545 36.948 174.606 36.948 178.382C36.948 182.158 40.0322 185.219 43.8366 185.219Z" fill="#EC255A"/>
<path d="M84.3475 18.2418C85.8151 14.7021 90.5932 14.0666 92.948 17.098L103.312 30.4387C105.666 33.4701 103.832 37.8947 100.009 38.4031L83.1869 40.6404C79.3644 41.1488 76.4209 37.3597 77.8885 33.82L84.3475 18.2418Z" fill="#F6DDE3"/>
<path d="M79.3287 15.9032C80.0143 15.812 80.6446 16.2897 80.7365 16.9701L81.5017 22.6376C81.5935 23.3181 81.1122 23.9436 80.4266 24.0348C79.741 24.126 79.1108 23.6483 79.0189 22.9678L78.2537 17.3003C78.1618 16.6199 78.6431 15.9943 79.3287 15.9032Z" fill="#F7A4BA"/>
<path d="M80.8997 28.0097C81.5853 27.9185 82.0666 27.293 81.9747 26.6125C81.8829 25.9321 81.2526 25.4544 80.567 25.5455C79.8814 25.6367 79.4001 26.2623 79.492 26.9427C79.5838 27.6232 80.2141 28.1009 80.8997 28.0097Z" fill="#F7A4BA"/>
<path fill-rule="evenodd" clip-rule="evenodd" d="M73.3206 11.9313C75.1552 7.5067 81.1278 6.71236 84.0713 10.5015L94.4349 23.8423C97.3784 27.6314 95.0853 33.1622 90.3072 33.7977L73.4846 36.0351C68.7065 36.6705 65.0271 31.9341 66.8616 27.5095L73.3206 11.9313ZM82.0875 12.0195C80.3214 9.74604 76.7378 10.2226 75.6371 12.8774L69.1781 28.4556C68.0774 31.1104 70.285 33.9522 73.1519 33.5709L89.9745 31.3336C92.8413 30.9523 94.2172 27.6338 92.4511 25.3603L82.0875 12.0195Z" fill="#F7A4BA"/>
</svg>
