<svg width="148" height="89" viewBox="0 0 148 89" fill="none" xmlns="http://www.w3.org/2000/svg">
<g clip-path="url(#clip0_1879_9044)">
<path opacity="0.96" fill-rule="evenodd" clip-rule="evenodd" d="M50.2179 5.26882C50.4136 3.89882 50.8394 3.03349 51.2727 2.54862C51.6938 2.07733 52.1074 1.96848 52.4276 2.00777C53.0655 2.08604 54.228 3.01071 54.228 5.6281C54.228 9.46361 53.7642 17.7237 46.9785 30.3987C44.837 31.8371 42.9066 33.2915 41.5988 34.3502C41.1695 34.6977 41.1032 35.3274 41.4507 35.7566C41.7982 36.1859 42.4279 36.2522 42.8572 35.9047C44.1215 34.8812 46.0053 33.4614 48.0966 32.057C48.2271 32.0052 48.3465 31.9262 48.4458 31.824C50.1867 30.6714 52.2755 29.4331 54.255 28.4485C56.3304 27.4162 58.1557 26.7297 59.3185 26.624C60.2154 26.5425 61.2898 26.7728 62.4844 27.2939C63.6705 27.8113 64.9124 28.588 66.1177 29.5166C68.537 31.3804 70.7014 33.7718 71.88 35.6575C72.557 36.7407 72.2704 37.742 71.6761 38.3126C71.0798 38.8853 70.1838 39.0388 69.3682 38.3592C68.7814 37.8701 68.2331 37.3956 67.7059 36.9393L67.6928 36.9279C67.1644 36.4706 66.6539 36.0288 66.1592 35.6213C65.1754 34.8107 64.2025 34.091 63.1705 33.5996C62.1188 33.0988 61.0053 32.8343 59.7526 32.9271C58.5144 33.0188 57.2065 33.4546 55.7491 34.2495C49.9557 37.4096 46.1905 43.7605 46.7321 49.7179C47.0062 52.7336 48.2591 55.2198 50.7613 57.3841C53.218 59.509 56.8611 61.3092 61.8976 63.072C66.561 64.7041 69.6304 68.5732 71.0517 72.0671C71.765 73.8204 72.0241 75.3859 71.9203 76.4439C71.8682 76.9746 71.7337 77.2893 71.61 77.4488C71.5165 77.5691 71.4165 77.6274 71.228 77.6274C71.1073 77.6274 70.904 77.5889 70.5795 77.4482C70.2596 77.3094 69.8804 77.0976 69.4197 76.8101C68.9825 76.5372 68.5009 76.2147 67.9527 75.8476L67.8698 75.7921C67.292 75.4053 66.6501 74.9766 65.9444 74.5312C63.1109 72.7425 59.2426 70.6769 53.918 69.6463C46.0372 68.121 40.0678 68.3567 33.8272 71.087C27.6574 73.7862 21.2977 78.8951 12.5532 86.8901C12.1456 87.2628 12.1173 87.8953 12.49 88.3029C12.8626 88.7105 13.4952 88.7388 13.9028 88.3662C22.6583 80.3611 28.7985 75.47 34.6288 72.9193C40.3882 70.3996 45.9188 70.1352 53.538 71.6099C58.5337 72.5768 62.1655 74.5109 64.8768 76.2224C65.5574 76.652 66.1795 77.0673 66.7571 77.454L66.8515 77.5172C67.3889 77.8771 67.8955 78.2163 68.3608 78.5067C68.8516 78.8131 69.3287 79.0857 69.7837 79.283C70.2339 79.4783 70.7237 79.6274 71.228 79.6274C72.0395 79.6274 72.7207 79.2794 73.1898 78.6752C73.6285 78.1101 73.8378 77.3818 73.9107 76.6393C74.0569 75.1505 73.691 73.2474 72.9043 71.3134C71.3256 67.4327 67.895 63.0521 62.5583 61.1843C57.5949 59.4471 54.238 57.7469 52.0697 55.8714C49.9469 54.0353 48.9497 52.0212 48.7239 49.5368C48.2655 44.4942 51.5003 38.8452 56.7068 36.0053C57.9995 35.3003 59.0291 34.9861 59.9003 34.9216C60.757 34.8582 61.5247 35.0311 62.3106 35.4053C63.1161 35.7889 63.937 36.3817 64.8875 37.1649C65.36 37.5542 65.8518 37.9796 66.3839 38.4402L66.4033 38.4569C66.9271 38.9103 67.4869 39.3949 68.0878 39.8956C69.7722 41.2993 71.8139 40.9532 73.0614 39.7552C73.4671 39.3656 73.79 38.8874 74 38.3536C74.21 38.8874 74.5328 39.3656 74.9385 39.7552C76.186 40.9532 78.2277 41.2993 79.9121 39.8956C80.513 39.3949 81.0729 38.9103 81.5966 38.4569L81.616 38.4402C82.1481 37.9796 82.6399 37.5542 83.1124 37.1649C84.0629 36.3817 84.8838 35.7889 85.6893 35.4053C86.4752 35.0311 87.2429 34.8582 88.0996 34.9216C88.9709 34.9861 90.0005 35.3003 91.2931 36.0053C96.4996 38.8452 99.7345 44.4942 99.276 49.5368C99.0502 52.0212 98.053 54.0353 95.9302 55.8714C93.7619 57.7469 90.405 59.4471 85.4416 61.1843C80.1049 63.0521 76.6743 67.4327 75.0956 71.3134C74.3089 73.2474 73.9431 75.1505 74.0892 76.6393C74.1621 77.3818 74.3714 78.1101 74.8101 78.6752C75.2792 79.2794 75.9604 79.6274 76.7719 79.6274C77.2763 79.6274 77.7661 79.4783 78.2163 79.283C78.6712 79.0857 79.1483 78.8131 79.6392 78.5067C80.1044 78.2163 80.611 77.8771 81.1484 77.5172L81.2428 77.454C81.8204 77.0673 82.4425 76.652 83.1231 76.2224C85.8344 74.5109 89.4662 72.5768 94.4619 71.6099C102.081 70.1352 107.612 70.3996 113.371 72.9193C119.201 75.47 125.342 80.3611 134.097 88.3662C134.505 88.7388 135.137 88.7105 135.51 88.3029C135.883 87.8953 135.854 87.2628 135.447 86.8901C126.702 78.8951 120.342 73.7862 114.173 71.087C107.932 68.3567 101.963 68.121 94.0819 69.6463C88.7573 70.6769 84.8891 72.7425 82.0555 74.5312C81.3499 74.9766 80.7079 75.4053 80.1301 75.7921L80.0472 75.8476C79.499 76.2147 79.0174 76.5372 78.5802 76.8101C78.1195 77.0976 77.7403 77.3094 77.4204 77.4482C77.0959 77.5889 76.8926 77.6274 76.7719 77.6274C76.5835 77.6274 76.4834 77.5691 76.39 77.4488C76.2662 77.2893 76.1317 76.9746 76.0796 76.4439C75.9758 75.3859 76.235 73.8204 76.9482 72.0671C78.3695 68.5732 81.4389 64.7041 86.1023 63.072C91.1388 61.3092 94.7819 59.509 97.2386 57.3841C99.7408 55.2198 100.994 52.7336 101.268 49.7179C101.809 43.7605 98.0442 37.4096 92.2508 34.2495C90.7934 33.4546 89.4855 33.0188 88.2473 32.9271C86.9947 32.8343 85.8811 33.0988 84.8295 33.5996C83.7975 34.091 82.8246 34.8107 81.8407 35.6213C81.346 36.0288 80.8355 36.4706 80.3071 36.9279L80.294 36.9393C79.7668 37.3956 79.2186 37.8701 78.6317 38.3592C77.8161 39.0388 76.9201 38.8853 76.3238 38.3126C75.7296 37.742 75.4429 36.7407 76.1199 35.6575C77.2985 33.7718 79.4629 31.3804 81.8822 29.5166C83.0876 28.588 84.3294 27.8113 85.5155 27.2939C86.7101 26.7728 87.7845 26.5425 88.6814 26.624C89.8442 26.7297 91.6695 27.4162 93.7449 28.4485C95.7244 29.4331 97.8132 30.6714 99.5542 31.824C99.6534 31.9262 99.7728 32.0052 99.9033 32.057C101.995 33.4614 103.878 34.8812 105.143 35.9047C105.572 36.2522 106.202 36.1859 106.549 35.7566C106.897 35.3274 106.83 34.6977 106.401 34.3502C105.093 33.2915 103.163 31.8371 101.021 30.3987C94.2357 17.7237 93.7719 9.46361 93.7719 5.6281C93.7719 3.01071 94.9344 2.08604 95.5723 2.00777C95.8925 1.96848 96.3061 2.07733 96.7272 2.54862C97.1605 3.03349 97.5863 3.89882 97.782 5.26882C99.3139 15.9937 106.424 28.4922 109.407 33.6294C109.684 34.107 110.296 34.2694 110.774 33.9921C111.252 33.7148 111.414 33.1028 111.137 32.6252C110.041 30.7388 108.436 27.9339 106.764 24.6342C106.751 24.531 106.722 24.428 106.675 24.3289C105.402 21.6569 105.248 18.4664 105.637 15.3831C106.025 12.3113 106.941 9.44345 107.703 7.49134C108.352 5.83179 109.525 5.5267 110.132 5.70971C110.44 5.80294 110.735 6.03812 110.907 6.49519C111.086 6.96893 111.146 7.73477 110.814 8.84004C108.911 15.1849 109.278 21.3558 110.118 25.9766C110.539 28.2911 111.081 30.2285 111.524 31.6197C111.746 32.3157 111.943 32.8749 112.087 33.2744C112.131 33.3963 112.163 33.4839 112.191 33.5602C112.214 33.6247 112.235 33.6812 112.257 33.7436C112.29 33.8344 112.3 33.8674 112.301 33.8673C112.301 33.8672 112.301 33.8657 112.3 33.8628C112.426 34.3844 112.944 34.7156 113.473 34.6069C114.012 34.4962 114.361 33.9704 114.252 33.4307L114.251 33.4216C113.338 29.0814 113.596 24.8504 114.201 21.5057C114.812 18.1292 115.757 15.7623 116.129 15.1419C116.709 14.1758 117.478 14.1615 117.747 14.3171C117.987 14.4554 118.677 15.2493 117.823 17.8112C116.895 20.5958 116.136 25.3414 116.297 30.7708C116.458 36.2089 117.545 42.4102 120.378 48.0745C122.661 52.6411 126.854 57.2824 131.496 61.5393C136.154 65.8105 141.339 69.7612 145.682 72.9347C146.128 73.2605 146.753 73.1632 147.079 72.7173C147.405 72.2714 147.308 71.6458 146.862 71.3199C142.538 68.16 137.423 64.2608 132.848 60.0653C128.257 55.8555 124.283 51.4135 122.166 47.1801C119.499 41.8444 118.452 35.9474 118.296 30.7114C118.14 25.4667 118.881 20.9623 119.721 18.4436C120.634 15.7022 120.325 13.4961 118.747 12.5852C117.2 11.6916 115.335 12.579 114.414 14.1129C113.866 15.0264 112.865 17.6595 112.233 21.1495C112.07 22.051 111.93 23.0168 111.829 24.033C111.231 19.8416 111.152 14.6726 112.73 9.41474C113.148 8.02001 113.154 6.78585 112.779 5.79084C112.399 4.77916 111.643 4.07684 110.71 3.79507C108.831 3.22808 106.755 4.423 105.841 6.76345C105.04 8.81133 104.068 11.8454 103.653 15.1325C103.556 15.9029 103.488 16.6927 103.462 17.4911C101.765 13.3914 100.341 9.04149 99.7619 4.98601C99.5291 3.3562 98.9906 2.07998 98.2186 1.21598C97.4343 0.338386 96.4015 -0.108959 95.3288 0.0226504C93.181 0.286165 91.7719 2.61164 91.7719 5.6281C91.7719 9.42034 92.2168 17.0037 97.7192 28.3297C96.7051 27.738 95.6587 27.1667 94.6357 26.6578C92.5501 25.6204 90.4311 24.7748 88.8625 24.6322C87.5093 24.5092 86.0837 24.864 84.7159 25.4607C83.3394 26.0611 81.9563 26.9348 80.6616 27.9322C78.0809 29.9204 75.7454 32.4832 74.4239 34.5975C74.2475 34.8797 74.1071 35.1646 74 35.4491C73.8928 35.1646 73.7524 34.8797 73.576 34.5975C72.2545 32.4832 69.919 29.9204 67.3383 27.9322C66.0436 26.9348 64.6605 26.0611 63.2841 25.4607C61.9162 24.864 60.4906 24.5092 59.1375 24.6322C57.5688 24.7748 55.4498 25.6204 53.3643 26.6578C52.3412 27.1667 51.2948 27.738 50.2807 28.3297C55.7831 17.0037 56.228 9.42034 56.228 5.6281C56.228 2.61164 54.8189 0.286165 52.6711 0.0226504C51.5984 -0.108959 50.5656 0.338386 49.7814 1.21598C49.0093 2.07998 48.4708 3.3562 48.238 4.98601C47.6587 9.04149 46.235 13.3914 44.5381 17.4911C44.5115 16.6927 44.4442 15.9029 44.3469 15.1325C43.9318 11.8454 42.9596 8.81133 42.1594 6.76345C41.2449 4.423 39.1684 3.22808 37.2904 3.79507C36.357 4.07684 35.6014 4.77916 35.2207 5.79084C34.8463 6.78585 34.8517 8.02001 35.2702 9.41474C36.8475 14.6726 36.7688 19.8416 36.1714 24.033C36.07 23.0168 35.93 22.051 35.7668 21.1495C35.135 17.6595 34.1336 15.0264 33.5855 14.1129C32.6651 12.579 30.8 11.6916 29.2525 12.5852C27.6749 13.4961 27.3655 15.7022 28.2793 18.4436C29.1189 20.9623 29.8596 25.4667 29.7038 30.7114C29.5484 35.9474 28.5014 41.8444 25.8336 47.1801C23.7168 51.4135 19.7431 55.8555 15.1521 60.0653C10.5767 64.2608 5.46202 68.16 1.13797 71.3199C0.69206 71.6458 0.594738 72.2714 0.920595 72.7173C1.24645 73.1632 1.87209 73.2605 2.318 72.9347C6.66062 69.7612 11.846 65.8105 16.5038 61.5393C21.1462 57.2824 25.3391 52.6411 27.6224 48.0745C30.4546 42.4102 31.5415 36.2089 31.703 30.7708C31.8642 25.3414 31.1049 20.5958 30.1767 17.8112C29.3227 15.2493 30.0133 14.4554 30.2526 14.3171C30.5221 14.1615 31.2908 14.1758 31.8705 15.1419C32.2427 15.7623 33.1876 18.1292 33.7988 21.5057C34.4043 24.8504 34.6621 29.0814 33.7494 33.4216L33.7475 33.4307C33.6393 33.9704 33.9875 34.4962 34.5268 34.6069C35.056 34.7156 35.5738 34.3844 35.6999 33.8628C35.6992 33.8657 35.6989 33.8672 35.699 33.8673C35.6993 33.8673 35.7011 33.8621 35.7053 33.8498C35.7116 33.8316 35.7232 33.7979 35.7427 33.7436C35.765 33.6816 35.7855 33.6255 35.8088 33.5616L35.8093 33.5602C35.8372 33.4839 35.8691 33.3963 35.9131 33.2744C36.0572 32.8749 36.2542 32.3157 36.4759 31.6197C36.919 30.2285 37.4609 28.2911 37.8818 25.9766C38.7222 21.3558 39.0893 15.1849 37.1858 8.84004C36.8542 7.73477 36.9143 6.96893 37.0926 6.49519C37.2646 6.03812 37.5596 5.80294 37.8684 5.70971C38.4746 5.5267 39.6481 5.83179 40.2966 7.49134C41.0593 9.44345 41.9747 12.3113 42.3626 15.3831C42.752 18.4664 42.5975 21.6569 41.3251 24.3289C41.2779 24.428 41.2485 24.531 41.2355 24.6342C39.5641 27.9339 37.9585 30.7388 36.8632 32.6252C36.5859 33.1028 36.7482 33.7148 37.2258 33.9921C37.7035 34.2694 38.3155 34.107 38.5928 33.6294C41.5757 28.4922 48.686 15.9937 50.2179 5.26882Z" fill="#161853"/>
<path d="M80.9912 41.314C78.945 41.314 76.9 42.0308 75.3325 43.4806L73.9876 44.7154L72.6682 43.4928C69.5332 40.5928 64.486 40.5928 61.3511 43.4928C58.2161 46.3927 58.2161 51.1718 61.3511 54.0721C65.2882 57.7142 69.226 61.3486 73.1634 64.9903C73.3902 65.1983 73.6927 65.314 74.007 65.314C74.3217 65.314 74.6241 65.1981 74.851 64.99L86.6502 54.06C89.781 51.1582 89.7852 46.381 86.6502 43.4807C85.0827 42.0306 83.0376 41.314 80.9912 41.314Z" fill="#EC255A"/>
</g>
<defs>
<clipPath id="clip0_1879_9044">
<rect width="146.544" height="88.6281" fill="white" transform="translate(0.727905)"/>
</clipPath>
</defs>
</svg>
