<svg width="20" height="21" viewBox="0 0 20 21" fill="none" xmlns="http://www.w3.org/2000/svg">
<path fill-rule="evenodd" clip-rule="evenodd" d="M15 1C15 0.447715 14.5523 0 14 0C13.4477 0 13 0.447715 13 1H7C7 0.447715 6.55228 0 6 0C5.44772 0 5 0.447715 5 1C2.23858 1 0 3.23858 0 6V16C0 18.7614 2.23858 21 5 21H15C17.7614 21 20 18.7614 20 16V6C20 3.23858 17.7614 1 15 1ZM6 4C5.44772 4 5 3.55228 5 3C3.34315 3 2 4.34315 2 6V16C2 17.6569 3.34315 19 5 19H15C16.6569 19 18 17.6569 18 16V6C18 4.34315 16.6569 3 15 3C15 3.55228 14.5523 4 14 4C13.4477 4 13 3.55228 13 3H7C7 3.55228 6.55228 4 6 4ZM5 7C4.44772 7 4 7.44771 4 8C4 8.55228 4.44772 9 5 9L15 9C15.5523 9 16 8.55229 16 8C16 7.44772 15.5523 7 15 7L5 7Z" fill="#B3B5B7"/>
</svg>
