<svg width="22" height="20" viewBox="0 0 22 20" fill="none" xmlns="http://www.w3.org/2000/svg">
<path fill-rule="evenodd" clip-rule="evenodd" d="M5 0C2.23858 0 0 2.23858 0 5V15C0 17.7614 2.23858 20 5 20H17C19.7614 20 22 17.7614 22 15V5C22 2.23858 19.7614 0 17 0H5ZM2 5C2 3.34315 3.34315 2 5 2H17C18.6569 2 20 3.34315 20 5V15C20 16.6569 18.6569 18 17 18H5C3.34315 18 2 16.6569 2 15V5ZM10.2929 9.87868L5.70711 5.29289C5.31658 4.90237 4.68342 4.90237 4.29289 5.29289C3.90237 5.68342 3.90237 6.31658 4.29289 6.70711L8.87868 11.2929C10.0503 12.4645 11.9497 12.4645 13.1213 11.2929L17.7071 6.70711C18.0976 6.31658 18.0976 5.68342 17.7071 5.29289C17.3166 4.90237 16.6834 4.90237 16.2929 5.29289L11.7071 9.87868C11.3166 10.2692 10.6834 10.2692 10.2929 9.87868Z" fill="#B3B5B7"/>
</svg>
