<svg width="24" height="24" viewBox="0 0 24 24" fill="none" xmlns="http://www.w3.org/2000/svg">
<path fill-rule="evenodd" clip-rule="evenodd" d="M6.00024 3.97767C6.0121 3.43571 6.45515 3 7 3C7.5523 3 8 3.44772 8 3.99997C8 4.55222 7.5523 4.99993 7 4.99993C6.45516 4.99993 6.01212 4.56424 6.00024 4.0223L6.00049 4L6.00024 3.97767ZM4.1707 3C4.58253 1.8348 5.69378 1 7 1C8.65684 1 10 2.34312 10 3.99997C10 5.65682 8.65684 6.99993 7 6.99993C5.69381 6.99993 4.58257 6.16516 4.17072 5H1C0.447715 5 0 4.55228 0 4C0 3.44772 0.447715 3 1 3H4.1707ZM13.0005 3C12.4482 3 12.0005 3.44772 12.0005 4C12.0005 4.55228 12.4482 5 13.0005 5H22.9665C23.5187 5 23.9665 4.55228 23.9665 4C23.9665 3.44772 23.5187 3 22.9665 3H13.0005ZM22.9835 11C23.5357 11 23.9835 11.4477 23.9835 12C23.9835 12.5523 23.5357 13 22.9835 13H19.8294C19.4176 14.1652 18.3064 15 17.0002 15C15.6939 15 14.5827 14.1652 14.1709 13H1.017C0.464718 13 0.0170021 12.5523 0.0170021 12C0.0170021 11.4477 0.464718 11 1.017 11H14.1709C14.5827 9.83481 15.6939 9 17.0002 9C18.3064 9 19.4176 9.83481 19.8294 11H22.9835ZM18.0001 12L18.0001 11.9908C17.9952 11.4428 17.5494 11 17.0002 11C16.4479 11 16.0002 11.4477 16.0002 12C16.0002 12.5523 16.4479 13 17.0002 13C17.5494 13 17.9952 12.5572 18.0001 12.0092L18.0001 12ZM23.966 20C23.966 19.4477 23.5183 19 22.966 19H13.8295C13.4176 17.8348 12.3064 17 11.0002 17C9.34331 17 8.00015 18.3431 8.00015 20C8.00015 21.6568 9.34331 22.9999 11.0002 22.9999C12.3063 22.9999 13.4176 22.1652 13.8294 21H22.966C23.5183 21 23.966 20.5523 23.966 20ZM6.00015 20C6.00015 19.4477 5.55243 19 5.00015 19H0.999512C0.447227 19 -0.000488281 19.4477 -0.000488281 20C-0.000488281 20.5523 0.447227 21 0.999512 21H5.00015C5.55243 21 6.00015 20.5523 6.00015 20ZM10.0002 20C10.0002 19.4477 10.4479 19 11.0002 19C11.5525 19 12.0002 19.4477 12.0002 20C12.0002 20.5522 11.5525 20.9999 11.0002 20.9999C10.4479 20.9999 10.0002 20.5522 10.0002 20Z" fill="#222222"/>
</svg>
