<svg width="288" height="232" viewBox="0 0 288 232" fill="none" xmlns="http://www.w3.org/2000/svg">
<path fill-rule="evenodd" clip-rule="evenodd" d="M230.506 48.1061C233.283 48.1061 235.535 45.8716 235.535 43.1151C235.535 40.3587 233.283 38.1242 230.506 38.1242C227.729 38.1242 225.477 40.3587 225.477 43.1151C225.477 45.8716 227.729 48.1061 230.506 48.1061ZM230.506 51.4334C235.135 51.4334 238.887 47.7092 238.887 43.1151C238.887 38.5211 235.135 34.7969 230.506 34.7969C225.877 34.7969 222.125 38.5211 222.125 43.1151C222.125 47.7092 225.877 51.4334 230.506 51.4334Z" fill="#EC255A"/>
<path d="M39.8185 5.64864C42.4011 3.40832 46.4683 4.80589 47.1395 8.16428L50.0933 22.9445C50.7645 26.3029 47.5363 29.1033 44.2825 27.9852L29.9626 23.0647C26.7089 21.9466 25.8699 17.7486 28.4525 15.5083L39.8185 5.64864Z" fill="#F6DDE3"/>
<path d="M234.089 211.11C235.332 207.925 239.583 207.269 241.74 209.929L251.234 221.635C253.392 224.295 251.838 228.276 248.438 228.801L233.474 231.112C230.073 231.637 227.377 228.312 228.62 225.127L234.089 211.11Z" fill="#F6DDE3"/>
<path d="M34.6477 11.4061C35.2313 11.6066 35.544 12.2392 35.346 12.8189L33.6974 17.6478C33.4995 18.2276 32.866 18.535 32.2824 18.3345C31.6988 18.1339 31.3861 17.5014 31.5841 16.9216L33.2327 12.0927C33.4306 11.513 34.0641 11.2055 34.6477 11.4061Z" fill="#F7A4BA"/>
<path d="M31.0753 21.6959C31.6589 21.8964 32.2925 21.589 32.4904 21.0092C32.6884 20.4294 32.3757 19.7969 31.7921 19.5963C31.2085 19.3958 30.575 19.7032 30.377 20.283C30.1791 20.8628 30.4917 21.4953 31.0753 21.6959Z" fill="#F7A4BA"/>
<path fill-rule="evenodd" clip-rule="evenodd" d="M31.4354 5.84056C34.6637 3.04016 39.7477 4.78712 40.5867 8.9851L43.5406 23.7653C44.3795 27.9633 40.3442 31.4638 36.277 30.0662L21.9571 25.1457C17.8899 23.7481 16.8412 18.5006 20.0694 15.7002L31.4354 5.84056ZM38.3981 9.40595C37.8947 6.88716 34.8443 5.83898 32.9073 7.51923L21.5413 17.3789C19.6044 19.0591 20.2336 22.2076 22.6739 23.0462L36.9938 27.9667C39.4341 28.8053 41.8553 26.705 41.3519 24.1862L38.3981 9.40595Z" fill="#F7A4BA"/>
<path d="M229.569 209.118C230.179 209.024 230.75 209.438 230.845 210.043L231.634 215.084C231.728 215.69 231.311 216.257 230.701 216.351C230.091 216.445 229.52 216.031 229.425 215.425L228.636 210.384C228.542 209.779 228.959 209.212 229.569 209.118Z" fill="#EC255A"/>
<path d="M231.197 219.888C231.807 219.793 232.225 219.226 232.13 218.621C232.035 218.016 231.464 217.602 230.854 217.696C230.244 217.79 229.827 218.357 229.921 218.962C230.016 219.568 230.587 219.982 231.197 219.888Z" fill="#EC255A"/>
<path fill-rule="evenodd" clip-rule="evenodd" d="M224.135 205.687C225.689 201.706 231.002 200.886 233.698 204.211L243.193 215.917C245.89 219.242 243.948 224.218 239.697 224.875L224.733 227.185C220.483 227.842 217.112 223.686 218.665 219.704L224.135 205.687ZM231.957 205.602C230.339 203.607 227.152 204.099 226.219 206.488L220.75 220.505C219.817 222.894 221.84 225.387 224.39 224.994L239.354 222.683C241.905 222.289 243.07 219.303 241.452 217.308L231.957 205.602Z" fill="#EC255A"/>
<path fill-rule="evenodd" clip-rule="evenodd" d="M57.1361 223.011C58.8025 223.011 60.1533 221.67 60.1533 220.016C60.1533 218.362 58.8025 217.022 57.1361 217.022C55.4698 217.022 54.1189 218.362 54.1189 220.016C54.1189 221.67 55.4698 223.011 57.1361 223.011ZM57.1361 225.007C59.9134 225.007 62.1648 222.773 62.1648 220.016C62.1648 217.26 59.9134 215.025 57.1361 215.025C54.3588 215.025 52.1074 217.26 52.1074 220.016C52.1074 222.773 54.3588 225.007 57.1361 225.007Z" fill="#292C6D"/>
<path fill-rule="evenodd" clip-rule="evenodd" d="M60.4886 75.7648C63.2658 75.7648 65.5173 73.5303 65.5173 70.7738C65.5173 68.0174 63.2658 65.7829 60.4886 65.7829C57.7113 65.7829 55.4599 68.0174 55.4599 70.7738C55.4599 73.5303 57.7113 75.7648 60.4886 75.7648ZM60.4886 79.0921C65.1174 79.0921 68.8697 75.3679 68.8697 70.7738C68.8697 66.1798 65.1174 62.4556 60.4886 62.4556C55.8598 62.4556 52.1074 66.1798 52.1074 70.7738C52.1074 75.3679 55.8598 79.0921 60.4886 79.0921Z" fill="#292C6D"/>
<path fill-rule="evenodd" clip-rule="evenodd" d="M6.50555 191.502C8.39135 191.502 9.92009 189.985 9.92009 188.113C9.92009 186.242 8.39135 184.724 6.50555 184.724C4.61975 184.724 3.09101 186.242 3.09101 188.113C3.09101 189.985 4.61975 191.502 6.50555 191.502ZM6.50555 194.213C9.89999 194.213 12.6517 191.482 12.6517 188.113C12.6517 184.744 9.89999 182.013 6.50555 182.013C3.11111 182.013 0.359375 184.744 0.359375 188.113C0.359375 191.482 3.11111 194.213 6.50555 194.213Z" fill="#EC255A"/>
<path fill-rule="evenodd" clip-rule="evenodd" d="M281.607 160.275C283.493 160.275 285.022 158.757 285.022 156.886C285.022 155.014 283.493 153.497 281.607 153.497C279.721 153.497 278.193 155.014 278.193 156.886C278.193 158.757 279.721 160.275 281.607 160.275ZM281.607 162.986C285.002 162.986 287.753 160.255 287.753 156.886C287.753 153.517 285.002 150.786 281.607 150.786C278.213 150.786 275.461 153.517 275.461 156.886C275.461 160.255 278.213 162.986 281.607 162.986Z" fill="#292C6D"/>
<path d="M180.916 83.755V65.659C180.916 43.5208 162.969 25.5742 140.831 25.5742V25.5742C118.693 25.5742 100.746 43.5208 100.746 65.6591V83.755" stroke="#EC255A" stroke-width="3.14904" stroke-linecap="round"/>
<path d="M83 92.9995L83 159.254C83 167.95 90.0494 175 98.7452 175L184.255 175C192.951 175 200 167.95 200 159.254L200 92.9995C200 88.5812 196.418 84.9995 192 84.9995L91 84.9995C86.5817 84.9995 83 88.5812 83 92.9995Z" stroke="#161853" stroke-width="3.14904" stroke-linecap="round"/>
<path d="M145 136.526L144.631 134.995L143.425 135.286V136.526H145ZM137 136.526H138.575V135.286L137.369 134.995L137 136.526ZM156.425 120C156.425 127.266 151.398 133.363 144.631 134.995L145.369 138.057C153.519 136.092 159.575 128.755 159.575 120H156.425ZM141 104.575C149.519 104.575 156.425 111.481 156.425 120H159.575C159.575 109.741 151.259 101.425 141 101.425V104.575ZM125.575 120C125.575 111.481 132.481 104.575 141 104.575V101.425C130.741 101.425 122.425 109.741 122.425 120H125.575ZM137.369 134.995C130.602 133.363 125.575 127.266 125.575 120H122.425C122.425 128.755 128.481 136.092 136.631 138.057L137.369 134.995ZM138.575 149.5V136.526H135.425V149.5H138.575ZM141 151.925C139.661 151.925 138.575 150.839 138.575 149.5H135.425C135.425 152.578 137.921 155.075 141 155.075V151.925ZM143.425 149.5C143.425 150.839 142.339 151.925 141 151.925V155.075C144.079 155.075 146.575 152.578 146.575 149.5H143.425ZM143.425 136.526V149.5H146.575V136.526H143.425Z" fill="#EC255A"/>
</svg>
