<svg width="323" height="280" viewBox="0 0 323 280" fill="none" xmlns="http://www.w3.org/2000/svg">
<path fill-rule="evenodd" clip-rule="evenodd" d="M257.948 73.9169C261.061 73.9169 263.584 71.4125 263.584 68.3231C263.584 65.2337 261.061 62.7292 257.948 62.7292C254.835 62.7292 252.312 65.2337 252.312 68.3231C252.312 71.4125 254.835 73.9169 257.948 73.9169ZM257.948 77.6462C263.136 77.6462 267.342 73.4721 267.342 68.3231C267.342 63.1741 263.136 59 257.948 59C252.76 59 248.555 63.1741 248.555 68.3231C248.555 73.4721 252.76 77.6462 257.948 77.6462Z" fill="#EC255A"/>
<path d="M44.2255 6.33113C47.1201 3.82018 51.6786 5.38658 52.4309 9.15064L55.7416 25.7163C56.4938 29.4803 52.8756 32.619 49.2288 31.3659L33.1791 25.8509C29.5323 24.5978 28.592 19.8927 31.4866 17.3818L44.2255 6.33113Z" fill="#F6DDE3"/>
<path d="M261.964 256.611C263.357 253.041 268.121 252.306 270.539 255.287L281.18 268.407C283.598 271.388 281.857 275.851 278.046 276.439L261.274 279.029C257.463 279.618 254.441 275.891 255.834 272.321L261.964 256.611Z" fill="#F6DDE3"/>
<path d="M38.4291 12.7839C39.0832 13.0086 39.4336 13.7176 39.2117 14.3674L37.364 19.7796C37.1422 20.4294 36.4321 20.774 35.778 20.5492C35.1239 20.3245 34.7735 19.6155 34.9953 18.9657L36.8431 13.5535C37.0649 12.9037 37.775 12.5591 38.4291 12.7839Z" fill="#F7A4BA"/>
<path d="M34.4252 24.3166C35.0792 24.5414 35.7893 24.1968 36.0112 23.547C36.233 22.8972 35.8826 22.1883 35.2285 21.9635C34.5744 21.7388 33.8643 22.0833 33.6425 22.7331C33.4207 23.3829 33.7711 24.0919 34.4252 24.3166Z" fill="#F7A4BA"/>
<path fill-rule="evenodd" clip-rule="evenodd" d="M34.8288 6.54608C38.447 3.4074 44.1451 5.36539 45.0855 10.0705L48.3961 26.6361C49.3365 31.3412 44.8137 35.2645 40.2552 33.6981L24.2055 28.1832C19.647 26.6168 18.4716 20.7354 22.0898 17.5968L34.8288 6.54608ZM42.6324 10.5422C42.0682 7.71911 38.6493 6.54431 36.4784 8.42752L23.7394 19.4782C21.5685 21.3614 22.2738 24.8902 25.0089 25.8301L41.0585 31.345C43.7937 32.2849 46.5073 29.9308 45.9431 27.1078L42.6324 10.5422Z" fill="#F7A4BA"/>
<path d="M256.898 254.378C257.582 254.273 258.222 254.737 258.328 255.415L259.212 261.066C259.318 261.744 258.85 262.379 258.166 262.485C257.483 262.591 256.843 262.126 256.737 261.448L255.853 255.798C255.746 255.119 256.214 254.484 256.898 254.378Z" fill="#EC255A"/>
<path d="M258.723 266.449C259.406 266.344 259.874 265.708 259.768 265.03C259.662 264.351 259.022 263.887 258.338 263.992C257.655 264.098 257.187 264.734 257.293 265.412C257.399 266.09 258.039 266.555 258.723 266.449Z" fill="#EC255A"/>
<path fill-rule="evenodd" clip-rule="evenodd" d="M250.808 250.533C252.549 246.071 258.504 245.152 261.526 248.878L272.167 261.999C275.19 265.725 273.013 271.303 268.25 272.038L251.478 274.628C246.714 275.364 242.936 270.706 244.677 266.244L250.808 250.533ZM259.575 250.438C257.761 248.202 254.188 248.753 253.144 251.431L247.013 267.141C245.968 269.818 248.235 272.613 251.093 272.172L267.865 269.582C270.723 269.14 272.029 265.794 270.216 263.558L259.575 250.438Z" fill="#EC255A"/>
<path fill-rule="evenodd" clip-rule="evenodd" d="M63.6361 269.95C65.5038 269.95 67.0178 268.447 67.0178 266.594C67.0178 264.74 65.5038 263.238 63.6361 263.238C61.7685 263.238 60.2545 264.74 60.2545 266.594C60.2545 268.447 61.7685 269.95 63.6361 269.95ZM63.6361 272.188C66.7489 272.188 69.2723 269.683 69.2723 266.594C69.2723 263.504 66.7489 261 63.6361 261C60.5234 261 58 263.504 58 266.594C58 269.683 60.5234 272.188 63.6361 272.188Z" fill="#292C6D"/>
<path fill-rule="evenodd" clip-rule="evenodd" d="M67.3936 104.917C70.5063 104.917 73.0297 102.412 73.0297 99.3231C73.0297 96.2337 70.5063 93.7292 67.3936 93.7292C64.2808 93.7292 61.7574 96.2337 61.7574 99.3231C61.7574 102.412 64.2808 104.917 67.3936 104.917ZM67.3936 108.646C72.5815 108.646 76.7871 104.472 76.7871 99.3231C76.7871 94.1741 72.5815 90 67.3936 90C62.2056 90 58 94.1741 58 99.3231C58 104.472 62.2056 108.646 67.3936 108.646Z" fill="#292C6D"/>
<path fill-rule="evenodd" clip-rule="evenodd" d="M6.88861 234.635C9.00221 234.635 10.7156 232.935 10.7156 230.837C10.7156 228.739 9.00221 227.039 6.88861 227.039C4.77502 227.039 3.06161 228.739 3.06161 230.837C3.06161 232.935 4.77502 234.635 6.88861 234.635ZM6.88861 237.674C10.6931 237.674 13.7772 234.613 13.7772 230.837C13.7772 227.061 10.6931 224 6.88861 224C3.08414 224 0 227.061 0 230.837C0 234.613 3.08414 237.674 6.88861 237.674Z" fill="#EC255A"/>
<path fill-rule="evenodd" clip-rule="evenodd" d="M315.223 199.635C317.336 199.635 319.05 197.935 319.05 195.837C319.05 193.739 317.336 192.039 315.223 192.039C313.109 192.039 311.396 193.739 311.396 195.837C311.396 197.935 313.109 199.635 315.223 199.635ZM315.223 202.674C319.027 202.674 322.111 199.613 322.111 195.837C322.111 192.061 319.027 189 315.223 189C311.418 189 308.334 192.061 308.334 195.837C308.334 199.613 311.418 202.674 315.223 202.674Z" fill="#292C6D"/>
<circle cx="161" cy="98" r="49" stroke="#EC255A" stroke-width="2"/>
<path d="M245 238V238C245 194.922 210.078 160 167 160H155C111.922 160 77 194.922 77 238V238" stroke="#292C6D" stroke-width="2" stroke-linecap="round"/>
<circle cx="161" cy="238" r="41" stroke="#292C6D" stroke-width="2"/>
<path d="M172.204 232.808V227.891C172.204 221.876 167.328 217 161.313 217V217C155.298 217 150.421 221.876 150.421 227.891V232.808" stroke="#EC255A" stroke-width="2" stroke-linecap="round"/>
<path d="M145.6 237.206L145.6 249.48C145.6 253.965 149.236 257.6 153.72 257.6L169.27 257.6C173.755 257.6 177.39 253.965 177.39 249.48L177.39 237.206C177.39 234.964 175.572 233.146 173.33 233.146L149.66 233.146C147.418 233.146 145.6 234.964 145.6 237.206Z" stroke="#292C6D" stroke-width="2" stroke-linecap="round"/>
<path fill-rule="evenodd" clip-rule="evenodd" d="M162.45 247.146C164.476 246.657 165.981 244.833 165.981 242.656C165.981 240.105 163.913 238.037 161.362 238.037C158.811 238.037 156.743 240.105 156.743 242.656C156.743 244.833 158.249 246.658 160.276 247.147V250.672C160.276 251.272 160.763 251.759 161.363 251.759C161.963 251.759 162.45 251.272 162.45 250.672V247.146Z" fill="#EC255A"/>
</svg>
