<svg width="24" height="24" viewBox="0 0 24 24" fill="none" xmlns="http://www.w3.org/2000/svg">
<path fill-rule="evenodd" clip-rule="evenodd" d="M17 2C17 1.44772 16.5523 1 16 1C15.4477 1 15 1.44772 15 2H9C9 1.44772 8.55228 1 8 1C7.44772 1 7 1.44772 7 2C4.23858 2 2 4.23858 2 7V17C2 19.7614 4.23858 22 7 22H17C19.7614 22 22 19.7614 22 17V7C22 4.23858 19.7614 2 17 2ZM8 5C7.44772 5 7 4.55228 7 4C5.34315 4 4 5.34315 4 7V17C4 18.6569 5.34315 20 7 20H17C18.6569 20 20 18.6569 20 17V7C20 5.34315 18.6569 4 17 4C17 4.55228 16.5523 5 16 5C15.4477 5 15 4.55228 15 4H9C9 4.55228 8.55228 5 8 5ZM7 8C6.44772 8 6 8.44771 6 9C6 9.55228 6.44772 10 7 10L17 10C17.5523 10 18 9.55229 18 9C18 8.44772 17.5523 8 17 8L7 8Z" fill="#222222"/>
</svg>
