<svg width="24" height="24" viewBox="0 0 24 24" fill="none" xmlns="http://www.w3.org/2000/svg">
<path fill-rule="evenodd" clip-rule="evenodd" d="M18.3333 11.1667C18.3333 15.1247 15.1247 18.3333 11.1667 18.3333C7.20863 18.3333 4 15.1247 4 11.1667C4 7.20863 7.20863 4 11.1667 4C15.1247 4 18.3333 7.20863 18.3333 11.1667ZM16.9029 18.3171C15.3325 19.5786 13.3377 20.3333 11.1667 20.3333C6.10406 20.3333 2 16.2293 2 11.1667C2 6.10406 6.10406 2 11.1667 2C16.2293 2 20.3333 6.10406 20.3333 11.1667C20.3333 13.3377 19.5786 15.3325 18.3171 16.9029L21.8738 20.4596C22.2643 20.8501 22.2643 21.4832 21.8738 21.8738C21.4832 22.2643 20.8501 22.2643 20.4596 21.8738L16.9029 18.3171Z" fill="#96989C"/>
</svg>
