<svg width="24" height="24" viewBox="0 0 24 24" fill="none" xmlns="http://www.w3.org/2000/svg">
<path fill-rule="evenodd" clip-rule="evenodd" d="M6.75055 2.65748C6.74886 2.62731 6.74801 2.59691 6.74801 2.56631C6.74801 1.70126 7.43169 1 8.27505 1C8.83591 1 9.32615 1.31014 9.59165 1.77234C12.7657 1.49203 15.789 3.43729 17.0002 6.53091C17.386 7.51645 17.784 8.48837 18.1538 9.31326C18.5546 10.2074 19.3375 11.2768 20.192 12.2812C21.6877 14.0393 21.062 17.0666 18.6866 17.7194L7.06895 20.9124C4.69351 21.5653 2.67603 19.2644 3.11429 16.9748C3.36468 15.6667 3.52139 14.3391 3.43267 13.3592C3.35081 12.4552 3.2217 11.4093 3.07544 10.358C2.63915 7.2217 4.1255 4.14432 6.75055 2.65748ZM8.61827 4.09289C6.21864 4.89567 4.72353 7.42082 5.09108 10.063C5.23972 11.1314 5.37385 12.2145 5.46001 13.1661C5.57679 14.4559 5.37092 16.0255 5.1122 17.3772C4.92825 18.3382 5.79781 19.0997 6.54198 18.8952L18.1596 15.7022C18.9038 15.4977 19.2857 14.3922 18.6579 13.6543C17.7749 12.6164 16.8315 11.3626 16.3039 10.1857C15.9147 9.31747 15.5029 8.31072 15.1107 7.30917C14.1063 4.74358 11.432 3.31182 8.8802 4.01315C8.85952 4.01883 8.83891 4.02464 8.81836 4.03057C8.75366 4.05585 8.68685 4.07674 8.61827 4.09289Z" fill="#222222"/>
<path d="M10.003 21.2725C10.2533 20.7561 10.8643 20.5455 11.3678 20.8023C11.5828 20.9119 11.8337 20.9442 12.0837 20.8755C12.3338 20.8067 12.5353 20.6502 12.6681 20.4449C12.979 19.9644 13.6108 19.8333 14.0792 20.1522C14.5477 20.471 14.6755 21.1191 14.3646 21.5996C13.968 22.2126 13.3582 22.6873 12.6107 22.8927C11.8632 23.0981 11.1037 22.9998 10.4614 22.6723C9.95796 22.4156 9.75271 21.7889 10.003 21.2725Z" fill="#222222"/>
</svg>
