<svg width="24" height="24" viewBox="0 0 24 24" fill="none" xmlns="http://www.w3.org/2000/svg">
<path fill-rule="evenodd" clip-rule="evenodd" d="M11.9999 1C8.68622 1 5.99993 3.68629 5.99993 7C5.99993 10.3137 8.68622 13 11.9999 13C15.3136 13 17.9999 10.3137 17.9999 7C17.9999 3.68629 15.3136 1 11.9999 1ZM7.99993 7C7.99993 4.79086 9.79079 3 11.9999 3C14.2091 3 15.9999 4.79086 15.9999 7C15.9999 9.20914 14.2091 11 11.9999 11C9.79079 11 7.99993 9.20914 7.99993 7Z" fill="#222222"/>
<path d="M18.4243 13.6758C18.1279 13.2098 17.5099 13.0723 17.0439 13.3687C16.5779 13.6651 16.4404 14.2832 16.7368 14.7492C17.1387 15.381 17.4159 16.0946 17.5415 16.8536L18.0595 19.9831C14.1017 21.339 9.80459 21.339 5.84673 19.9831L6.36471 16.8536C6.48619 16.1197 6.74943 15.4282 7.13004 14.8121C7.4203 14.3422 7.27471 13.726 6.80486 13.4357C6.335 13.1455 5.7188 13.2911 5.42854 13.7609C4.91286 14.5957 4.5561 15.5328 4.39155 16.527L3.81656 20.001C3.69202 20.7534 4.12148 21.4877 4.83834 21.7481C9.43467 23.4173 14.4716 23.4173 19.0679 21.7481C19.7848 21.4877 20.2142 20.7534 20.0897 20.001L19.5147 16.527C19.3445 15.4989 18.9688 14.5317 18.4243 13.6758Z" fill="#222222"/>
</svg>
