<svg width="25" height="24" viewBox="0 0 25 24" fill="none" xmlns="http://www.w3.org/2000/svg">
<path fill-rule="evenodd" clip-rule="evenodd" d="M4.74995 5C4.74995 4.44772 5.19766 4 5.74995 4H11.845C12.3587 4 12.7889 4.38929 12.84 4.9005L12.8499 5H19.7978C20.6129 5 21.0856 5.92282 20.6093 6.5843L18.5707 9.4157C18.3194 9.76471 18.3194 10.2353 18.5707 10.5843L20.6093 13.4157C21.0856 14.0772 20.6129 15 19.7978 15H14.655C14.1412 15 13.7111 14.6107 13.66 14.0995L13.65 14H6.73242V19C6.73242 19.5523 6.28471 20 5.73242 20C5.18014 20 4.73242 19.5523 4.73242 19V7C4.73242 6.93596 4.73844 6.87332 4.74995 6.81263V5Z" fill="#222222"/>
</svg>
