<svg width="24" height="24" viewBox="0 0 24 24" fill="none" xmlns="http://www.w3.org/2000/svg">
<path fill-rule="evenodd" clip-rule="evenodd" d="M13.2907 4.16824C12.5454 3.53865 11.4546 3.53865 10.7093 4.16824L4.69578 9.24841C4.24595 9.62842 3.98645 10.1874 3.98645 10.7762V18.0019C3.98645 19.1064 4.88188 20.0019 5.98645 20.0019H7.98002C9.03094 20.0019 9.88287 19.1499 9.88287 18.099V15.799C9.88287 14.6298 10.8307 13.6819 12 13.6819C13.1693 13.6819 14.1171 14.6298 14.1171 15.7991V18.099C14.1171 19.1499 14.9691 20.0019 16.02 20.0019H18.0136C19.1181 20.0019 20.0136 19.1064 20.0136 18.0019V10.7762C20.0136 10.1874 19.7541 9.62842 19.3042 9.24841L13.2907 4.16824Z" fill="white"/>
</svg>
