<svg width="65" height="64" viewBox="0 0 65 64" fill="none" xmlns="http://www.w3.org/2000/svg">
<path fill-rule="evenodd" clip-rule="evenodd" d="M25.3449 25.7434C25.3975 25.7434 25.45 25.7431 25.5024 25.7424C25.3126 26.6272 25.3539 27.5133 25.7058 28.3563L27.5373 32.7438C28.4243 34.8688 30.8868 35.7793 33.56 35.8817C34.9249 35.9339 36.432 35.7845 37.9981 35.4379C39.3049 35.1487 40.6601 34.7206 42.0175 34.1517C45.1468 32.84 47.7588 31.0006 49.4407 29.0436C51.081 27.135 52.0309 24.8587 51.1847 22.8316L49.3566 18.4521L49.3532 18.444C48.5071 16.4169 46.2228 15.4963 43.7148 15.3265C41.9497 15.207 39.9163 15.439 37.8024 16.0206C38.0555 15.0122 38.1898 13.9572 38.1898 12.8717C38.1898 5.76285 32.439 0 25.3449 0C18.2509 0 12.5 5.76285 12.5 12.8717C12.5 19.9805 18.2509 25.7434 25.3449 25.7434ZM36.2869 12.8717C36.2869 6.81601 31.388 1.90692 25.3449 1.90692C19.3018 1.90692 14.4029 6.81601 14.4029 12.8717C14.4029 18.9274 19.3018 23.8365 25.3449 23.8365C25.6572 23.8365 25.9662 23.8234 26.2714 23.7978C26.596 23.2272 26.9965 22.6717 27.4498 22.1442C29.1317 20.1873 31.7437 18.3479 34.873 17.0362C35.1095 16.937 35.3461 16.8421 35.5824 16.7514C36.0375 15.5465 36.2869 14.2393 36.2869 12.8717ZM47.5977 19.1799L47.6001 19.1856C48.0145 20.1874 47.6572 21.678 46.1673 23.4117C44.7161 25.1003 42.3676 26.7827 39.4517 28.0049C36.5358 29.2272 33.6913 29.7215 31.4725 29.5712C29.1902 29.4167 27.8795 28.6222 27.4614 27.6204C27.0432 26.6186 27.399 25.1255 28.8917 23.3886C30.343 21.7 32.6915 20.0176 35.6074 18.7954C38.5233 17.5731 41.3677 17.0788 43.5865 17.2291C45.8688 17.3836 47.1795 18.1781 47.5977 19.1799ZM49.0149 22.575L49.4291 23.5675C49.8473 24.5693 49.4915 26.0623 47.9988 27.7992C46.6949 29.3164 44.6667 30.8285 42.1534 32.0065L41.0568 29.3795C43.7995 28.1046 46.0859 26.4285 47.6092 24.6561C48.1751 23.9977 48.6587 23.2955 49.0149 22.575ZM39.3012 30.1154C38.6192 30.3711 37.9392 30.5916 37.2673 30.7768L38.3578 33.3894C39.0267 33.2134 39.7093 32.998 40.3978 32.7423L39.3012 30.1154ZM35.3846 31.208C34.6302 31.345 33.8944 31.4346 33.1866 31.4765L34.2333 33.9842C34.932 33.9769 35.6795 33.9129 36.4622 33.7896L35.3846 31.208ZM31.1153 31.4562C30.3314 31.3883 29.5732 31.245 28.8785 31.0154L29.2928 32.0079C29.6313 32.8188 30.557 33.4923 32.0946 33.8021L31.1153 31.4562Z" fill="white"/>
<path fill-rule="evenodd" clip-rule="evenodd" d="M41.7243 57.3265C41.7672 57.2643 41.8079 57.1999 41.8464 57.1331C42.3345 56.2858 42.3197 55.3123 42.046 54.3922C41.7731 53.4747 41.2211 52.522 40.489 51.5898C39.0214 49.7207 36.7034 47.7734 33.8957 46.149C31.0879 44.5245 28.246 43.4866 25.8969 43.1474C24.7252 42.9782 23.6259 42.9756 22.6965 43.1975C21.7645 43.42 20.9157 43.8938 20.4276 44.7411C20.3891 44.8079 20.3537 44.8755 20.3214 44.9438L20.3134 44.9392L17.4598 49.8922C17.0219 50.6522 16.9885 51.5175 17.1847 52.3503C17.3794 53.1763 17.8105 54.0287 18.393 54.8636C19.0462 55.8 19.9203 56.758 20.961 57.6881C21.9056 58.5323 22.9965 59.3615 24.2017 60.138C24.5927 60.3899 24.996 60.6365 25.4105 60.8763C28.2183 62.5007 31.0601 63.5387 33.4092 63.8778C34.581 64.047 35.6803 64.0497 36.6096 63.8278C37.5417 63.6053 38.3904 63.1314 38.8786 62.2841L41.7322 57.3311L41.7243 57.3265ZM22.0516 46.9373C21.8711 46.3305 21.9333 45.9415 22.0756 45.6946C22.2178 45.4477 22.5229 45.1992 23.1376 45.0524C23.7549 44.905 24.5952 44.8861 25.6255 45.0348C27.6805 45.3315 30.2924 46.2662 32.9442 47.8004C35.596 49.3346 37.7097 51.134 38.9936 52.769C39.6373 53.5887 40.041 54.3274 40.2223 54.9369C40.4028 55.5437 40.3406 55.9327 40.1984 56.1796C40.0561 56.4265 39.7511 56.675 39.1364 56.8217C38.519 56.9691 37.6787 56.9881 36.6484 56.8393C34.5935 56.5426 31.9816 55.608 29.3298 54.0738C26.678 52.5396 24.5643 50.7402 23.2804 49.1052C22.6367 48.2855 22.2329 47.5467 22.0516 46.9373ZM28.0175 55.5131C28.1368 55.5844 28.2571 55.6551 28.3783 55.7252C31.1861 57.3497 34.0279 58.3876 36.377 58.7268C37.1896 58.8441 37.9672 58.8813 38.6776 58.8192L37.2306 61.3307C37.0883 61.5776 36.7832 61.826 36.1686 61.9728C35.5512 62.1202 34.7109 62.1391 33.6806 61.9904C31.6256 61.6937 29.0138 60.759 26.362 59.2248C26.2407 59.1547 26.1204 59.0839 26.0013 59.0126L28.0175 55.5131ZM26.4137 54.4829C25.8519 54.095 25.3182 53.6963 24.8165 53.2908L22.8127 56.7687C23.3042 57.1768 23.835 57.5815 24.4006 57.9769L26.4137 54.4829ZM23.3581 52.0082C22.9615 51.6266 22.5953 51.2431 22.2627 50.8612L20.3091 54.2519C20.6158 54.6428 20.9716 55.0452 21.3734 55.453L23.3581 52.0082ZM21.0232 49.1987C20.8455 48.9098 20.6884 48.6211 20.5548 48.3341L19.1078 50.8456C18.9792 51.0689 18.9169 51.4036 19.0367 51.912C19.0718 52.0609 19.1215 52.2194 19.1865 52.3867L21.0232 49.1987Z" fill="white"/>
</svg>
