<svg width="65" height="64" viewBox="0 0 65 64" fill="none" xmlns="http://www.w3.org/2000/svg">
<g clip-path="url(#clip0_1503_7131)">
<path fill-rule="evenodd" clip-rule="evenodd" d="M10.5358 15.1303C10.7919 11.0326 11.818 6.96843 13.6959 4.08452C14.64 2.63457 15.8263 1.44279 17.2786 0.725725C18.7468 0.00081887 20.4214 -0.205683 22.2587 0.218303C26.5737 1.21407 28.4625 5.38421 29.3044 9.28922C29.4208 9.82911 29.0774 10.3611 28.5376 10.4775C27.9977 10.5939 27.4657 10.2506 27.3493 9.7107C26.5318 5.91884 24.8885 2.87775 21.809 2.16709C20.3963 1.84107 19.1959 2.00957 18.1641 2.51904C17.1164 3.03635 16.1777 3.93832 15.3718 5.17587C13.7497 7.66695 12.7758 11.3527 12.5319 15.2551C12.343 18.278 13.0129 21.514 14.0157 24.3883C14.9108 26.954 16.0497 29.1702 17.0078 30.6188L26.5119 29.3228C26.5326 28.8744 26.588 28.3846 26.6571 27.8841C26.7668 27.0889 26.9267 26.1699 27.0958 25.1974C27.1274 25.0157 27.1594 24.8322 27.1913 24.6473C27.6033 22.2648 28.0338 19.595 28.0338 17.1927C28.0338 16.6404 28.4816 16.1927 29.0338 16.1927C29.5861 16.1927 30.0338 16.6404 30.0338 17.1927C30.0338 19.7904 29.5715 22.6206 29.1621 24.9881C29.1292 25.1784 29.0966 25.3655 29.0647 25.5491L29.0647 25.5492C28.8953 26.5232 28.7428 27.4003 28.6383 28.1575C28.5101 29.0863 28.4746 29.7072 28.5238 30.0513C28.7972 31.9653 29.4906 34.4005 29.9825 35.8765C30.4363 37.2378 30.6931 38.9545 30.3326 40.5726C29.9611 42.2403 28.9324 43.7767 26.9187 44.6158C25.253 45.3098 23.7283 45.4385 22.3669 45.1287C21.0129 44.8205 19.899 44.0967 19.0146 43.2123C17.272 41.4696 16.3236 39.0117 16.0477 37.3572C15.8092 35.9266 15.5711 33.4794 15.538 32.0156C14.4274 30.408 13.1268 27.912 12.1273 25.0471C11.0716 22.0214 10.3247 18.5074 10.5358 15.1303ZM26.708 31.3146L17.5597 32.5621C17.6283 33.9278 17.8244 35.8526 18.0205 37.0282C18.2449 38.3737 19.0465 40.4158 20.4288 41.7981C21.1069 42.4762 21.8992 42.9711 22.8108 43.1786C23.7149 43.3844 24.8152 43.3256 26.1495 42.7696C27.4959 42.2086 28.1338 41.245 28.3805 40.1377C28.6382 38.9809 28.4647 37.6476 28.0852 36.5089C27.6545 35.217 27.0605 33.1768 26.708 31.3146ZM53.9983 33.9376C53.7422 29.8399 52.7161 25.7757 50.8382 22.8918C49.8941 21.4418 48.7077 20.2501 47.2555 19.533C45.7873 18.8081 44.1126 18.6016 42.2754 19.0256C38.5772 19.879 36.661 23.0757 35.6674 26.3855C34.6659 29.7216 34.5002 33.4751 34.5002 36C34.5002 38.5977 34.9626 41.4279 35.372 43.7954C35.4049 43.9857 35.4374 44.1728 35.4694 44.3564L35.4694 44.3564C35.6388 45.3304 35.7913 46.2076 35.8958 46.9648C36.024 47.8936 36.0594 48.5145 36.0103 48.8585C35.7369 50.7725 35.0435 53.2078 34.5515 54.6837C34.0978 56.0451 33.841 57.7618 34.2015 59.3799C34.573 61.0476 35.6016 62.584 37.6154 63.423C39.2811 64.1171 40.8058 64.2458 42.1672 63.936C43.5212 63.6278 44.6351 62.904 45.5195 62.0196C47.2621 60.2769 48.2105 57.8189 48.4864 56.1644C48.7249 54.7338 48.9629 52.2867 48.9961 50.8229C50.1067 49.2153 51.4073 46.7193 52.4068 43.8544C53.4624 40.8286 54.2094 37.3147 53.9983 33.9376ZM50.5184 43.1955C49.6233 45.7612 48.4844 47.9775 47.5262 49.4261L38.0222 48.1301C38.0015 47.6817 37.9461 47.1919 37.877 46.6914C37.7672 45.8961 37.6074 44.9771 37.4382 44.0047C37.4066 43.823 37.3747 43.6395 37.3427 43.4546C36.9307 41.072 36.5002 38.4023 36.5002 36C36.5002 33.5248 36.6678 30.0091 37.5829 26.9606C38.506 23.8858 40.0897 21.5825 42.7251 20.9744C44.1378 20.6483 45.3382 20.8168 46.37 21.3263C47.4177 21.8436 48.3564 22.7456 49.1622 23.9831C50.7843 26.4742 51.7583 30.16 52.0022 34.0623C52.1911 37.0852 51.5212 40.3213 50.5184 43.1955ZM36.4489 55.3162C36.8795 54.0243 37.4736 51.9841 37.8261 50.1218L46.9744 51.3694C46.9057 52.735 46.7096 54.6599 46.5136 55.8355C46.2892 57.181 45.4876 59.223 44.1053 60.6054C43.4272 61.2834 42.6349 61.7784 41.7233 61.9858C40.8191 62.1916 39.7188 62.1328 38.3846 61.5769C37.0382 61.0159 36.4003 60.0523 36.1536 58.945C35.8959 57.7881 36.0693 56.4549 36.4489 55.3162Z" fill="white"/>
</g>
<defs>
<clipPath id="clip0_1503_7131">
<rect width="64" height="64" fill="white" transform="translate(0.25)"/>
</clipPath>
</defs>
</svg>
