<svg width="63" height="57" viewBox="0 0 63 57" fill="none" xmlns="http://www.w3.org/2000/svg">
<path d="M31.573 16.5075C33.0494 16.5142 34.2432 17.6921 34.2393 19.1383L34.207 31.1836C34.2032 32.6298 33.0032 33.7967 31.5267 33.79C30.0503 33.7833 28.8566 32.6054 28.8605 31.1592L28.8927 19.1139C28.8966 17.6677 30.0966 16.5008 31.573 16.5075Z" fill="white"/>
<path d="M31.3696 42.2198C32.846 42.2265 34.046 41.0596 34.0499 39.6134C34.0538 38.1672 32.86 36.9894 31.3836 36.9827C29.9072 36.9759 28.7072 38.1428 28.7033 39.589C28.6994 41.0352 29.8932 42.213 31.3696 42.2198Z" fill="white"/>
<path fill-rule="evenodd" clip-rule="evenodd" d="M20.0241 6.49373C25.1922 -2.21133 38.054 -2.15265 43.1754 6.59937L61.2067 37.4134C66.3281 46.1655 59.868 57.0468 49.5785 56.9998L13.3513 56.8345C3.06183 56.7876 -3.33989 45.8476 1.82822 37.1425L20.0241 6.49373ZM38.5381 9.19681C35.4653 3.9456 27.7482 3.91038 24.6473 9.13342L6.45148 39.7822C3.35061 45.0052 7.19164 51.5692 13.3653 51.5974L49.5925 51.7627C55.7662 51.7909 59.6423 45.2621 56.5694 40.0109L38.5381 9.19681Z" fill="white"/>
</svg>
