<svg width="25" height="24" viewBox="0 0 25 24" fill="none" xmlns="http://www.w3.org/2000/svg">
<path d="M15.2187 5.53387C16.4742 6.74548 17.4748 8.19582 18.162 9.79966C18.8491 11.4034 19.2086 13.1284 19.2197 14.8733C19.2096 16.7017 18.4827 18.4533 17.1951 19.7515C15.9076 21.0499 14.1622 21.7913 12.3339 21.8166C10.5056 21.8419 8.74028 21.149 7.41732 19.8868C6.09436 18.6246 5.31929 16.8939 5.25865 15.0664V14.8685C5.31803 13.225 5.83983 11.6315 6.76411 10.2711C6.89777 11.4429 7.33694 12.5589 8.03765 13.5076C8.37738 13.935 8.80908 14.2802 9.30062 14.5177C9.79217 14.7553 10.3309 14.879 10.8769 14.8797C11.6405 14.8773 12.3893 14.6682 13.0435 14.2744C13.6978 13.8807 14.2331 13.317 14.5928 12.6435C15.5969 10.4119 15.8174 7.90654 15.2187 5.53387ZM13.3183 1.23377C12.5043 0.754624 11.6573 1.6762 12.0085 2.55301C14.0166 7.56669 13.6047 12.6236 10.8769 12.6236C9.14779 12.6236 8.74336 9.64071 8.86804 7.0401C8.91031 6.15836 7.93331 5.55354 7.28854 6.15646C4.96243 8.33158 3.00259 11.569 3.00259 14.8685L3 14.8733C3.02942 17.3039 4.01564 19.6251 5.74488 21.3335C7.47411 23.0419 9.80701 24 12.2379 24C14.6687 24 17.0016 23.0419 18.7308 21.3335C20.4601 19.6251 21.4463 17.3039 21.4757 14.8733V14.8685C21.4757 8.72021 17.7977 3.87062 13.3183 1.23377Z" fill="#EC255A"/>
</svg>
