<svg width="25" height="24" viewBox="0 0 25 24" fill="none" xmlns="http://www.w3.org/2000/svg">
<g clip-path="url(#clip0_1503_10132)">
<path d="M0.75 5V19H24.75V5H0.75ZM22.75 17H2.75V7H22.75V17ZM12.75 15C13.3433 15 13.9234 14.8241 14.4167 14.4944C14.9101 14.1648 15.2946 13.6962 15.5216 13.1481C15.7487 12.5999 15.8081 11.9967 15.6924 11.4147C15.5766 10.8328 15.2909 10.2982 14.8713 9.87868C14.4518 9.45912 13.9172 9.1734 13.3353 9.05764C12.7533 8.94189 12.1501 9.0013 11.6019 9.22836C11.0538 9.45542 10.5852 9.83994 10.2556 10.3333C9.92595 10.8266 9.75 11.4067 9.75 12C9.75 12.7956 10.0661 13.5587 10.6287 14.1213C11.1913 14.6839 11.9544 15 12.75 15ZM12.75 10.8C12.9873 10.8 13.2193 10.8704 13.4167 11.0022C13.614 11.1341 13.7678 11.3215 13.8587 11.5408C13.9495 11.7601 13.9732 12.0013 13.9269 12.2341C13.8806 12.4669 13.7664 12.6807 13.5985 12.8485C13.4307 13.0164 13.2169 13.1306 12.9841 13.1769C12.7513 13.2232 12.5101 13.1995 12.2908 13.1087C12.0715 13.0178 11.8841 12.864 11.7522 12.6667C11.6204 12.4693 11.55 12.2373 11.55 12C11.5503 11.6818 11.6769 11.3768 11.9019 11.1519C12.1268 10.9269 12.4318 10.8003 12.75 10.8Z" fill="#EC255A"/>
</g>
<defs>
<clipPath id="clip0_1503_10132">
<rect width="24" height="24" fill="white" transform="translate(0.75)"/>
</clipPath>
</defs>
</svg>
