<svg width="29" height="31" viewBox="0 0 29 31" fill="none" xmlns="http://www.w3.org/2000/svg">
<g filter="url(#filter0_d_1503_7097)">
<path d="M13.5429 12.707C13.9334 13.0975 14.5665 13.0975 14.957 12.707C15.3475 12.3165 15.3475 11.6834 14.9571 11.2929L11.6162 7.95172C11.2257 7.56119 10.5925 7.56118 10.202 7.95169C9.81156 8.34216 9.81155 8.97525 10.202 9.36575L13.5429 12.707ZM14.2499 2H13.9166C13.5484 2 13.2499 2.29848 13.2499 2.66667V5C13.2499 5.55228 13.6977 6 14.2499 6C14.8022 6 15.2499 5.55228 15.2499 5V4.062C17.0921 4.28908 18.7984 5.14817 20.078 6.49278C21.3575 7.83738 22.131 9.58422 22.2665 11.4354C22.4019 13.2865 21.8911 15.1274 20.821 16.644C19.7509 18.1606 18.1878 19.259 16.3983 19.7519C14.6088 20.2447 12.7038 20.1016 11.0081 19.3469C9.31236 18.5921 7.93097 17.2725 7.09949 15.613C6.26802 13.9535 6.03796 12.057 6.44855 10.2469C6.77549 8.80548 7.49256 7.48992 8.5114 6.439C8.92827 6.00901 8.97679 5.31252 8.55334 4.88901C8.19221 4.52783 7.61216 4.495 7.24697 4.85208C5.78623 6.2804 4.79216 8.12768 4.41026 10.1493C3.97251 12.4666 4.36723 14.864 5.52479 16.9186C6.68235 18.9733 8.52836 20.5531 10.7372 21.3793C12.9459 22.2056 15.3756 22.2252 17.5974 21.4347C19.8192 20.6442 21.6905 19.0944 22.8811 17.0587C24.0716 15.023 24.505 12.6323 24.1047 10.3082C23.7044 7.98415 22.4961 5.87615 20.6931 4.35609C18.8901 2.83603 16.6082 2.0016 14.2499 2Z" fill="#EC255A"/>
</g>
<defs>
<filter id="filter0_d_1503_7097" x="-1.75" y="0" width="32" height="32" filterUnits="userSpaceOnUse" color-interpolation-filters="sRGB">
<feFlood flood-opacity="0" result="BackgroundImageFix"/>
<feColorMatrix in="SourceAlpha" type="matrix" values="0 0 0 0 0 0 0 0 0 0 0 0 0 0 0 0 0 0 127 0" result="hardAlpha"/>
<feOffset dy="4"/>
<feGaussianBlur stdDeviation="2"/>
<feComposite in2="hardAlpha" operator="out"/>
<feColorMatrix type="matrix" values="0 0 0 0 0 0 0 0 0 0 0 0 0 0 0 0 0 0 0.25 0"/>
<feBlend mode="normal" in2="BackgroundImageFix" result="effect1_dropShadow_1503_7097"/>
<feBlend mode="normal" in="SourceGraphic" in2="effect1_dropShadow_1503_7097" result="shape"/>
</filter>
</defs>
</svg>
