<svg width="25" height="24" viewBox="0 0 25 24" fill="none" xmlns="http://www.w3.org/2000/svg">
<g clip-path="url(#clip0_1503_10137)">
<path fill-rule="evenodd" clip-rule="evenodd" d="M14 4C15.1046 4 16 3.10457 16 2C16 0.895431 15.1046 0 14 0C12.8954 0 12 0.895431 12 2C12 3.10457 12.8954 4 14 4ZM12.7368 4.88646C13.0931 4.75286 13.4943 4.83302 13.7719 5.09324C14.5907 5.86086 15.656 6.80433 16.1395 7.22976C16.2219 7.30234 16.3174 7.36101 16.4222 7.40295L18.7528 8.33518C19.2656 8.54029 19.515 9.12226 19.3099 9.63504C19.1048 10.1478 18.5228 10.3972 18.01 10.1921L15.6794 9.25991C15.3658 9.13443 15.0741 8.9564 14.8182 8.73119C14.5401 8.48645 14.0639 8.06547 13.5491 7.60162L12.1147 11.9048L16.4418 16.2319C16.5875 16.3776 16.6846 16.5647 16.7199 16.7677L17.7786 22.8554C17.8732 23.3995 17.5088 23.9173 16.9647 24.0119C16.4206 24.1066 15.9028 23.7422 15.8081 23.198L14.8037 17.4222L10.2635 12.882C9.99564 12.6142 9.90212 12.218 10.0219 11.8587L11.4764 7.49512L9.85793 8.10205C9.64632 8.1814 9.46783 8.33009 9.35156 8.52388L8.12267 10.572C7.83852 11.0456 7.22426 11.1992 6.75068 10.915C6.2771 10.6309 6.12353 10.0166 6.40768 9.54304L7.63657 7.49489C7.98539 6.91352 8.52086 6.46745 9.15568 6.22939L12.7368 4.88646ZM10.2669 14.1514C10.7833 14.3473 11.0431 14.9247 10.8472 15.4411L7.93525 23.1164C7.73934 23.6328 7.16193 23.8926 6.64556 23.6967C6.12918 23.5008 5.86939 22.9234 6.0653 22.407L8.9772 14.7317C9.17311 14.2153 9.75052 13.9555 10.2669 14.1514Z" fill="#EC255A"/>
</g>
<defs>
<clipPath id="clip0_1503_10137">
<rect width="24" height="24" fill="white" transform="translate(0.25)"/>
</clipPath>
</defs>
</svg>
