<svg width="25" height="24" viewBox="0 0 25 24" fill="none" xmlns="http://www.w3.org/2000/svg">
<path fill-rule="evenodd" clip-rule="evenodd" d="M3.75 12C3.75 7.02944 7.77944 3 12.75 3C17.7206 3 21.75 7.02944 21.75 12C21.75 16.9706 17.7206 21 12.75 21C7.77944 21 3.75 16.9706 3.75 12ZM12.75 1C6.67487 1 1.75 5.92487 1.75 12C1.75 18.0751 6.67487 23 12.75 23C18.8251 23 23.75 18.0751 23.75 12C23.75 5.92487 18.8251 1 12.75 1ZM13.75 7C13.75 6.44772 13.3023 6 12.75 6C12.1977 6 11.75 6.44772 11.75 7V12C11.75 12.2652 11.8554 12.5196 12.0429 12.7071L15.0429 15.7071C15.4334 16.0976 16.0666 16.0976 16.4571 15.7071C16.8476 15.3166 16.8476 14.6834 16.4571 14.2929L13.75 11.5858V7Z" fill="#EC255A"/>
</svg>
