<svg width="25" height="24" viewBox="0 0 25 24" fill="none" xmlns="http://www.w3.org/2000/svg">
<g clip-path="url(#clip0_1503_5317)">
<path fill-rule="evenodd" clip-rule="evenodd" d="M5.5738 5.93588C6.52088 4.71465 7.97946 4 9.52489 4H19.1365C21.8979 4 24.1365 6.23858 24.1365 9V15C24.1365 17.7614 21.8979 20 19.1365 20H9.52489C7.97946 20 6.52087 19.2854 5.5738 18.0641L3.24726 15.0641C1.84873 13.2607 1.84873 10.7393 3.24727 8.93588L5.5738 5.93588ZM9.52489 6C8.59763 6 7.72248 6.42879 7.15424 7.16153L4.82771 10.1615C3.98858 11.2436 3.98858 12.7564 4.8277 13.8385L7.15423 16.8385C7.72248 17.5712 8.59763 18 9.52489 18H19.1365C20.7933 18 22.1365 16.6569 22.1365 15V9C22.1365 7.34314 20.7933 6 19.1365 6H9.52489ZM13.4296 9.29289C13.8201 8.90237 14.4532 8.90237 14.8438 9.29289L16.1367 10.5858L17.4296 9.29289C17.8201 8.90237 18.4532 8.90237 18.8438 9.29289C19.2343 9.68342 19.2343 10.3166 18.8438 10.7071L17.5509 12L18.8438 13.2929C19.2343 13.6834 19.2343 14.3166 18.8438 14.7071C18.4532 15.0976 17.8201 15.0976 17.4296 14.7071L16.1367 13.4142L14.8438 14.7071C14.4532 15.0976 13.8201 15.0976 13.4296 14.7071C13.039 14.3166 13.039 13.6834 13.4296 13.2929L14.7224 12L13.4296 10.7071C13.039 10.3166 13.039 9.68342 13.4296 9.29289Z" fill="#EC255A"/>
</g>
<defs>
<clipPath id="clip0_1503_5317">
<rect width="24" height="24" fill="white" transform="translate(0.833374)"/>
</clipPath>
</defs>
</svg>
