<svg width="100" height="100" viewBox="0 0 100 100" fill="none" xmlns="http://www.w3.org/2000/svg">
<path d="M46.068 3.41138C48.324 1.45411 51.676 1.45411 53.932 3.41138L58.6654 7.51805C60.0574 8.72575 61.9272 9.22676 63.7365 8.87686L69.8891 7.68708C72.8215 7.12002 75.7244 8.79604 76.6995 11.6191L78.7454 17.5422C79.3471 19.2841 80.7159 20.6529 82.4578 21.2546L88.3809 23.3005C91.204 24.2756 92.88 27.1785 92.3129 30.1109L91.1231 36.2635C90.7732 38.0728 91.2742 39.9426 92.482 41.3346L96.5886 46.068C98.5459 48.324 98.5459 51.676 96.5886 53.932L92.4819 58.6654C91.2742 60.0574 90.7732 61.9272 91.1231 63.7365L92.3129 69.8891C92.88 72.8215 91.204 75.7244 88.3809 76.6995L82.4578 78.7454C80.7159 79.3471 79.3471 80.7159 78.7454 82.4578L76.6995 88.3809C75.7244 91.204 72.8215 92.88 69.8891 92.3129L63.7365 91.1231C61.9272 90.7732 60.0574 91.2742 58.6654 92.482L53.932 96.5886C51.676 98.5459 48.324 98.5459 46.068 96.5886L41.3346 92.4819C39.9426 91.2742 38.0728 90.7732 36.2635 91.1231L30.1109 92.3129C27.1785 92.88 24.2756 91.204 23.3005 88.3809L21.2546 82.4578C20.6529 80.7159 19.2841 79.3471 17.5422 78.7454L11.6191 76.6995C8.79604 75.7244 7.12002 72.8215 7.68708 69.8891L8.87686 63.7365C9.22676 61.9272 8.72575 60.0574 7.51805 58.6654L3.41138 53.932C1.45411 51.676 1.45411 48.324 3.41138 46.068L7.51805 41.3346C8.72575 39.9426 9.22676 38.0728 8.87686 36.2635L7.68708 30.1109C7.12002 27.1785 8.79604 24.2756 11.6191 23.3005L17.5422 21.2546C19.2841 20.6529 20.6529 19.2841 21.2546 17.5422L23.3005 11.6191C24.2756 8.79604 27.1785 7.12002 30.1109 7.68708L36.2635 8.87686C38.0728 9.22676 39.9426 8.72575 41.3346 7.51805L46.068 3.41138Z" fill="#EFEFF3"/>
<path d="M59.6589 46.9194C59.3889 47.9619 59.1902 49.0132 59.3539 50.0982C59.26 50.2952 59.1279 50.4715 58.9652 50.6169C58.3489 51.2319 57.7152 51.8344 57.1214 52.4707C56.9159 52.6778 56.7905 52.9512 56.7676 53.2421C56.7447 53.5331 56.8258 53.8227 56.9964 54.0594C57.1547 54.3034 57.3931 54.4846 57.6705 54.5717C57.9479 54.6589 58.2471 54.6466 58.5164 54.5369C58.7011 54.4532 58.8663 54.3319 59.0014 54.1807C59.4652 53.7194 59.9239 53.2532 60.3902 52.7957C60.5152 52.6707 60.6289 52.4969 60.8514 52.5257C61.4837 52.954 62.1637 53.3072 62.8777 53.5782C63.0802 53.7369 63.0389 53.9669 63.0414 54.1782C63.0514 54.9857 63.0352 55.7932 63.0502 56.6007C63.0602 57.1207 63.3214 57.4682 63.8002 57.6807C64.2789 57.8932 64.7127 57.7707 65.1014 57.4644C65.3889 57.2357 65.4889 56.9119 65.4914 56.5544C65.4977 55.9294 65.4914 55.3119 65.4977 54.6907C65.4977 54.4969 65.4564 54.2782 65.6639 54.1419C66.8839 54.2282 68.1327 54.1044 69.3102 54.5369C71.9502 55.5057 73.5702 57.3494 74.0602 60.1457C74.0785 60.2013 74.1055 60.2536 74.1402 60.3007V64.0407C73.9714 64.1932 73.7652 64.1657 73.5614 64.1657C67.9864 64.1657 62.411 64.1657 56.8352 64.1657C55.7102 64.1657 54.8052 63.6407 54.0289 62.8644L44.0514 52.8869C43.4627 52.2982 43.4614 52.2982 42.8652 52.8957C41.4352 54.3294 39.9977 55.7544 38.5727 57.1944C38.5052 57.2795 38.4199 57.3486 38.3227 57.3969C37.2564 56.3282 36.1764 55.2719 35.1264 54.1894C33.5214 52.5332 33.4927 49.9957 35.0339 48.3644C35.1928 48.1928 35.3801 48.0498 35.5877 47.9419C36.4314 47.5082 37.2702 47.0669 38.1114 46.6282C38.3252 46.6782 38.4427 46.8532 38.5839 46.9944C40.0839 48.4894 41.5839 49.9857 43.0839 51.4832C43.4677 51.8682 43.4739 51.8682 43.8577 51.4832C46.3577 48.9832 48.8577 46.4853 51.3577 43.9894C51.5477 43.7994 51.7077 43.5282 52.0514 43.5982C52.8864 44.2232 53.7127 44.8482 54.6764 45.2894C56.0514 45.9144 57.4602 46.3732 58.9627 46.5394C59.1487 46.5589 59.3325 46.5962 59.5114 46.6507C59.6289 46.6807 59.7227 46.7532 59.6589 46.9194Z" fill="#60606B"/>
<path d="M38.3188 57.8865C38.3188 57.6865 38.4801 57.5915 38.5976 57.474C40.1063 55.9627 41.6238 54.4615 43.1188 52.9365C43.4026 52.6477 43.5501 52.6865 43.8151 52.9515C47.2559 56.409 50.7038 59.8602 54.1588 63.3052C54.5401 63.7046 54.9999 64.0208 55.5093 64.2338C56.0188 64.4467 56.5668 64.5519 57.1188 64.5427C62.7926 64.5265 68.4651 64.5352 74.1388 64.5352V68.0902C73.8888 68.684 73.7263 69.309 73.3163 69.8327C72.4576 70.9327 71.3413 71.544 69.9513 71.544C64.873 71.5582 59.7943 71.5582 54.7151 71.544C52.8613 71.5365 51.2538 70.8327 49.9426 69.529C46.0759 65.684 42.2193 61.8294 38.3726 57.9652C38.3528 57.9403 38.3349 57.914 38.3188 57.8865Z" fill="#454550"/>
<path d="M59.6589 47.4191C59.6589 47.1629 59.4639 47.2304 59.3277 47.2166C57.5095 47.0254 55.7434 46.4941 54.1214 45.6504C53.3395 45.2384 52.615 44.7257 51.9664 44.1254C51.958 44.1056 51.9536 44.0843 51.9536 44.0629C51.9536 44.0414 51.958 44.0201 51.9664 44.0004C52.0833 43.835 52.2197 43.6843 52.3727 43.5516C55.6852 40.2333 59.0002 36.917 62.3177 33.6029C62.4689 33.4529 62.5914 33.2591 62.8177 33.2041C63.8044 34.1758 64.7906 35.1466 65.7764 36.1166C66.2364 36.5683 66.6885 37.0195 67.1327 37.4704C67.8827 38.2279 67.8827 39.0354 67.1252 39.7941C64.7827 42.1391 62.4381 44.4824 60.0914 46.8241C59.9094 46.9919 59.7624 47.1942 59.6589 47.4191Z" fill="#CADFF3"/>
<path d="M62.8216 33.2042C62.7429 33.2992 62.6691 33.4004 62.5829 33.4879C59.1504 36.9221 55.7166 40.3554 52.2816 43.7879C52.1841 43.8854 52.0691 43.9654 51.9629 44.0542C51.6891 44.0792 51.5879 43.8629 51.4629 43.6892C51.0504 43.0904 50.8154 42.4129 50.6316 41.7179C50.4629 41.0854 50.3166 40.4479 50.1091 39.8254C49.7878 38.8619 49.2664 37.9771 48.5791 37.2292C48.4686 37.1212 48.3833 36.9901 48.3291 36.8454C51.0729 34.2204 53.7041 31.4917 56.4016 28.8254C57.0466 28.1892 57.8116 28.1592 58.4616 28.7992C59.8916 30.2067 61.3029 31.6329 62.7204 33.0492C62.7581 33.0981 62.792 33.1499 62.8216 33.2042Z" fill="#ECF2FA"/>
<path d="M48.3242 36.8452C49.3029 37.6715 49.8929 38.7502 50.2779 39.9452C50.5279 40.7402 50.7079 41.5615 50.9554 42.3602C51.1517 43.0002 51.4354 43.604 51.9629 44.054C51.9648 44.0777 51.9648 44.1015 51.9629 44.1252C51.7542 44.1827 51.6367 44.3577 51.4954 44.5002C48.9312 47.0619 46.3708 49.626 43.8142 52.1927C43.5417 52.4677 43.3942 52.4752 43.1192 52.1927C41.5492 50.5965 39.9579 49.0202 38.3767 47.4352C38.2792 47.3365 38.1967 47.2227 38.1079 47.1165C39.4462 45.7681 40.7858 44.4202 42.1267 43.0727C44.0858 41.1085 46.0467 39.1469 48.0092 37.1877C48.1204 37.079 48.2167 36.959 48.3242 36.8452Z" fill="#9191A3"/>
<path d="M35.3914 68.7403C37.9152 68.7403 40.4389 68.7628 42.9614 68.7253C43.7114 68.714 44.5027 69.1978 44.5514 70.0928C44.5914 70.919 43.8977 71.544 42.9527 71.544C37.9052 71.544 32.8577 71.544 27.8102 71.544C26.9664 71.544 26.3414 71.0278 26.2577 70.294C26.2224 69.9577 26.3095 69.6199 26.503 69.3426C26.6966 69.0653 26.9836 68.867 27.3114 68.784C27.4941 68.7483 27.6804 68.7345 27.8664 68.7428C30.3756 68.7395 32.8839 68.7386 35.3914 68.7403Z" fill="#D1C8CB"/>
<path d="M32.6024 63.1281C34.2074 63.1281 35.8116 63.1281 37.4149 63.1281C38.2662 63.1281 38.9424 63.7393 38.9449 64.5031C38.9449 65.3106 38.2924 65.9343 37.4162 65.9356C34.2087 65.9406 31.0004 65.9406 27.7912 65.9356C26.8974 65.9356 26.2499 65.3318 26.2524 64.5268C26.2524 63.6981 26.8774 63.1343 27.7912 63.1331C29.3954 63.1281 30.9991 63.1264 32.6024 63.1281Z" fill="#D1C8CB"/>
<path d="M29.7813 60.3215C29.1113 60.3215 28.4426 60.3215 27.7738 60.3215C26.8876 60.3128 26.2413 59.6965 26.2526 58.894C26.2638 58.0915 26.8776 57.519 27.7601 57.519C29.1134 57.519 30.4676 57.519 31.8226 57.519C32.6651 57.519 33.3451 58.1515 33.3313 58.9065C33.3176 59.7028 32.6813 60.3103 31.8313 60.3215C31.1513 60.329 30.4663 60.3215 29.7813 60.3215Z" fill="#D1C8CB"/>
<path d="M60.8565 53.0203C60.274 53.6015 59.6952 54.1853 59.1065 54.7615C58.4727 55.3865 57.6514 55.414 57.0739 54.8515C56.4964 54.289 56.5002 53.4215 57.1339 52.7853C57.8677 52.0478 58.6127 51.3228 59.3527 50.5928C59.3652 51.7053 60.069 52.389 60.8565 53.0203Z" fill="#D8E7F6"/>
<path d="M65.6628 54.6365C65.6628 55.4128 65.6628 56.189 65.6553 56.9653C65.6416 57.8178 65.0766 58.419 64.2916 58.4365C63.5066 58.454 62.8978 57.8303 62.8878 56.9603C62.8766 55.9978 62.8878 55.0353 62.8878 54.0728C63.7845 54.3802 64.7173 54.5697 65.6628 54.6365Z" fill="#D8E7F6"/>
</svg>
