<svg width="100" height="100" viewBox="0 0 100 100" fill="none" xmlns="http://www.w3.org/2000/svg">
<path d="M46.068 3.41138C48.324 1.45411 51.676 1.45411 53.932 3.41138L58.6654 7.51805C60.0574 8.72575 61.9272 9.22676 63.7365 8.87686L69.8891 7.68708C72.8215 7.12002 75.7244 8.79604 76.6995 11.6191L78.7454 17.5422C79.3471 19.2841 80.7159 20.6529 82.4578 21.2546L88.3809 23.3005C91.204 24.2756 92.88 27.1785 92.3129 30.1109L91.1231 36.2635C90.7732 38.0728 91.2742 39.9426 92.482 41.3346L96.5886 46.068C98.5459 48.324 98.5459 51.676 96.5886 53.932L92.4819 58.6654C91.2742 60.0574 90.7732 61.9272 91.1231 63.7365L92.3129 69.8891C92.88 72.8215 91.204 75.7244 88.3809 76.6995L82.4578 78.7454C80.7159 79.3471 79.3471 80.7159 78.7454 82.4578L76.6995 88.3809C75.7244 91.204 72.8215 92.88 69.8891 92.3129L63.7365 91.1231C61.9272 90.7732 60.0574 91.2742 58.6654 92.482L53.932 96.5886C51.676 98.5459 48.324 98.5459 46.068 96.5886L41.3346 92.4819C39.9426 91.2742 38.0728 90.7732 36.2635 91.1231L30.1109 92.3129C27.1785 92.88 24.2756 91.204 23.3005 88.3809L21.2546 82.4578C20.6529 80.7159 19.2841 79.3471 17.5422 78.7454L11.6191 76.6995C8.79604 75.7244 7.12002 72.8215 7.68708 69.8891L8.87686 63.7365C9.22676 61.9272 8.72575 60.0574 7.51805 58.6654L3.41138 53.932C1.45411 51.676 1.45411 48.324 3.41138 46.068L7.51805 41.3346C8.72575 39.9426 9.22676 38.0728 8.87686 36.2635L7.68708 30.1109C7.12002 27.1785 8.79604 24.2756 11.6191 23.3005L17.5422 21.2546C19.2841 20.6529 20.6529 19.2841 21.2546 17.5422L23.3005 11.6191C24.2756 8.79604 27.1785 7.12002 30.1109 7.68708L36.2635 8.87686C38.0728 9.22676 39.9426 8.72575 41.3346 7.51805L46.068 3.41138Z" fill="#EFEFF3"/>
<path d="M27.5 31.0833C27.6985 30.6395 27.8269 30.1724 28.1304 29.7636C29.0527 28.5725 30.7804 28.4207 31.9128 29.2498C32.7183 29.8454 33.0802 30.6745 33.0802 31.6555C33.088 35.883 33.0919 40.1182 33.0919 44.3612C33.2553 44.5481 33.197 44.7816 33.197 44.9919C33.19 45.3114 33.2474 45.6291 33.3657 45.9261C33.484 46.223 33.6609 46.4931 33.8857 46.7202C35.6018 48.542 37.3296 50.3521 39.1157 52.1038C40.6684 53.6453 41.7424 55.4437 42.2094 57.6159C42.5602 59.2769 43.323 60.8229 44.4274 62.1119C45.7349 63.6417 47.4393 64.4475 49.4473 64.611C49.6458 64.6227 49.8676 64.611 49.9493 64.8679C49.9826 64.9494 49.9985 65.0369 49.996 65.1249C50.0077 67.3437 49.996 69.5625 49.996 71.793C50.0088 71.9536 49.9585 72.1127 49.8559 72.2368H38.8589C37.7382 72.0266 37.2712 71.1624 37.2595 69.8778C37.2479 68.348 37.2245 66.8182 37.2595 65.3C37.2814 64.3618 37.0122 63.4398 36.4891 62.6608C34.0141 58.772 31.5509 54.8598 29.076 50.971C28.4321 49.9308 27.9554 48.7959 27.6634 47.6077C27.5835 47.2079 27.5444 46.801 27.5467 46.3932C27.5233 46.2414 27.5934 46.0779 27.5 45.9378V31.0833Z" fill="#E0E0E0"/>
<path d="M49.856 72.2369V64.7279L49.9027 64.6812C50.1712 64.5644 50.4513 64.5994 50.7198 64.5644C53.4166 64.2141 55.2727 62.7543 56.5102 60.3837C57.0635 59.2757 57.4753 58.1026 57.736 56.8919C57.9795 55.7972 58.4443 54.7639 59.1018 53.8556C59.5855 53.1995 60.1244 52.5861 60.7129 52.0221C62.2772 50.4806 63.7481 48.834 65.3241 47.3042C65.5877 47.0365 65.8334 46.7517 66.0596 46.4517C66.3648 46.0575 66.5293 45.5723 66.5266 45.0737C66.5266 44.8285 66.4565 44.5715 66.6199 44.3613C66.6355 40.1339 66.6394 35.9103 66.6316 31.6906C66.6316 30.2309 67.7056 28.9813 69.0131 28.7711C70.5424 28.5259 72.2118 29.7754 72.2118 31.3403C72.2352 36.1867 72.2585 41.0331 72.2002 45.8795C72.1768 47.5845 71.6165 49.1961 70.7059 50.6441C68.1493 54.7081 65.5693 58.7487 63.0243 62.8127C62.5754 63.496 62.336 64.2956 62.3356 65.1133C62.3589 66.5964 62.3239 68.0912 62.3472 69.5743C62.3706 70.7421 62.0087 71.7815 60.6078 72.2369H49.856Z" fill="#CCCCCC"/>
<path d="M27.5817 46.3813H27.5V45.9492C27.6401 46.066 27.5701 46.2295 27.5817 46.3813Z" fill="#FEF0ED"/>
<path d="M49.8558 64.728C47.1707 64.6345 45.1044 63.4901 43.6335 61.2129C42.7463 59.8232 42.2326 58.2933 41.824 56.7168C41.4631 55.2897 40.7299 53.9839 39.6993 52.9331C37.9249 51.0646 36.1154 49.2195 34.3176 47.3627C33.8506 46.8839 33.3253 46.4167 33.1618 45.7044C33.0568 45.2489 33.1151 44.8052 33.0918 44.3614C33.337 43.7074 33.6288 43.1002 34.2592 42.7031C34.7388 42.3984 35.307 42.2638 35.8723 42.321C36.4376 42.3782 36.9673 42.6238 37.3762 43.0184C39.0106 44.5716 40.6216 46.1365 42.2443 47.7013C43.5868 48.9976 44.9643 50.2705 46.2952 51.5901C46.9022 52.1974 47.5326 52.7696 48.1514 53.3652C49.202 54.3578 49.7274 55.5957 49.8675 57.0204C49.8794 57.0883 49.9074 57.1524 49.9492 57.2073C49.9924 57.2558 50.0234 57.314 50.0397 57.377C50.0559 57.4399 50.0569 57.5059 50.0426 57.5693C49.9375 59.7181 50.0309 61.8668 49.9959 64.0156C49.9959 64.2608 50.0426 64.5177 49.8558 64.728V64.728Z" fill="#CCCCCC"/>
<path d="M49.8557 64.7275C49.9024 62.2167 49.7623 59.7059 49.9491 57.2068C50.1359 55.7471 50.5211 54.369 51.6302 53.3063C53.4163 51.578 55.1791 49.8379 56.9886 48.1329L61.3897 43.9172C61.8684 43.4617 62.3003 42.9362 62.884 42.6092C64.4133 41.7567 66.1994 42.726 66.5497 44.2558C66.5689 44.2934 66.5924 44.3287 66.6197 44.3609C66.8182 45.5638 66.3045 46.4863 65.4873 47.3038C63.993 48.7986 62.5688 50.3518 61.0512 51.8115C59.2417 53.5516 58.0276 55.5602 57.5256 58.0593C57.1754 59.7203 56.3665 61.2496 55.1908 62.4736C54.0583 63.6993 52.519 64.4713 50.8597 64.6458C50.5273 64.6962 50.1919 64.7235 49.8557 64.7275V64.7275Z" fill="#DADADA"/>
<path d="M49.8556 29.2495C50.099 29.16 50.3273 29.034 50.5327 28.8758C54.4552 25.7578 59.7786 28.397 60.5724 32.7296C60.9694 34.8433 60.2339 36.6884 58.8213 38.2066C56.2764 40.9509 53.6614 43.6252 51.0814 46.3229C50.7429 46.6732 50.3693 46.9301 49.8556 46.8834C49.7039 46.7199 49.7155 46.5097 49.7155 46.3112V29.8217C49.7155 29.6232 49.7155 29.413 49.8556 29.2495Z" fill="#D1C8CB"/>
<path d="M49.8557 29.2497V46.8836C49.6451 46.8917 49.4354 46.853 49.2416 46.7702C49.0478 46.6874 48.8748 46.5626 48.735 46.4048C46.085 43.6488 43.3883 40.9278 40.8083 38.1134C37.0843 34.026 39.816 28.5957 44.0537 27.6498C45.8865 27.2294 47.5326 27.7199 49.0269 28.7943C49.2837 28.9811 49.5172 29.2147 49.8557 29.2497Z" fill="#E6DCDE"/>
</svg>
