<svg width="100" height="100" viewBox="0 0 100 100" fill="none" xmlns="http://www.w3.org/2000/svg">
<path d="M46.068 3.41138C48.324 1.45411 51.676 1.45411 53.932 3.41138L58.6654 7.51805C60.0574 8.72575 61.9272 9.22676 63.7365 8.87686L69.8891 7.68708C72.8215 7.12002 75.7244 8.79604 76.6995 11.6191L78.7454 17.5422C79.3471 19.2841 80.7159 20.6529 82.4578 21.2546L88.3809 23.3005C91.204 24.2756 92.88 27.1785 92.3129 30.1109L91.1231 36.2635C90.7732 38.0728 91.2742 39.9426 92.482 41.3346L96.5886 46.068C98.5459 48.324 98.5459 51.676 96.5886 53.932L92.4819 58.6654C91.2742 60.0574 90.7732 61.9272 91.1231 63.7365L92.3129 69.8891C92.88 72.8215 91.204 75.7244 88.3809 76.6995L82.4578 78.7454C80.7159 79.3471 79.3471 80.7159 78.7454 82.4578L76.6995 88.3809C75.7244 91.204 72.8215 92.88 69.8891 92.3129L63.7365 91.1231C61.9272 90.7732 60.0574 91.2742 58.6654 92.482L53.932 96.5886C51.676 98.5459 48.324 98.5459 46.068 96.5886L41.3346 92.4819C39.9426 91.2742 38.0728 90.7732 36.2635 91.1231L30.1109 92.3129C27.1785 92.88 24.2756 91.204 23.3005 88.3809L21.2546 82.4578C20.6529 80.7159 19.2841 79.3471 17.5422 78.7454L11.6191 76.6995C8.79604 75.7244 7.12002 72.8215 7.68708 69.8891L8.87686 63.7365C9.22676 61.9272 8.72575 60.0574 7.51805 58.6654L3.41138 53.932C1.45411 51.676 1.45411 48.324 3.41138 46.068L7.51805 41.3346C8.72575 39.9426 9.22676 38.0728 8.87686 36.2635L7.68708 30.1109C7.12002 27.1785 8.79604 24.2756 11.6191 23.3005L17.5422 21.2546C19.2841 20.6529 20.6529 19.2841 21.2546 17.5422L23.3005 11.6191C24.2756 8.79604 27.1785 7.12002 30.1109 7.68708L36.2635 8.87686C38.0728 9.22676 39.9426 8.72575 41.3346 7.51805L46.068 3.41138Z" fill="#EFEFF3"/>
<path d="M68.8157 44.9883C69.3608 45.0129 69.6948 45.3399 69.9152 45.7948C70.8394 47.7082 71.5011 49.7376 71.8822 51.8281C72.1386 53.1462 72.2564 54.4875 72.2338 55.8301C72.0697 62.2831 69.1369 67.0247 63.4118 70.0021C61.2655 71.118 58.9468 71.7252 56.559 72.0804C55.7538 72.2134 54.9417 72.3014 54.1267 72.3442C54.0981 72.3407 54.0692 72.3469 54.0446 72.3618C54.0199 72.3767 54.001 72.3993 53.9907 72.4262H53.3777C53.3098 72.391 53.2344 72.3726 53.1579 72.3726C53.0814 72.3726 53.006 72.391 52.9381 72.4262H50.8351C50.7519 72.3909 50.6624 72.3726 50.572 72.3726C50.4815 72.3726 50.392 72.3909 50.3088 72.4262H50.0451C49.8845 72.3313 49.7086 72.404 49.541 72.3817C49.4554 72.3817 49.3699 72.3817 49.2855 72.3817C49.1363 72.3196 49.0053 72.2208 48.9045 72.0945C45.652 68.8389 42.4007 65.584 39.1505 62.33C38.7192 61.8986 38.4308 61.4004 38.6183 60.758C38.7965 60.1485 39.0392 60.0875 39.4834 60.5318C43.0587 64.1047 46.6324 67.6784 50.2045 71.2528C50.2983 71.3455 50.3956 71.4334 50.4835 71.5318C50.6616 71.7346 50.848 71.7522 51.0496 71.5693C51.6522 71.0161 52.2148 70.4229 52.7927 69.845C55.313 67.3287 57.8321 64.8108 60.35 62.2913C60.6008 62.0404 60.8282 61.7814 60.9279 61.4297C60.9804 61.2928 60.997 61.1447 60.9759 60.9995C60.9349 60.8166 60.929 60.5834 60.7415 60.5072C60.5539 60.431 60.4449 60.6502 60.3289 60.7651C57.7352 63.3533 55.1438 65.9435 52.5548 68.5357C52.4471 68.6549 52.3294 68.7647 52.2031 68.8639C52.1082 68.9295 52.0015 69.0104 51.9124 68.8498C51.8854 68.2637 52.0484 67.7104 52.1468 67.1454C52.1927 66.9967 52.2287 66.8452 52.2547 66.6918C52.2674 66.6501 52.2864 66.6105 52.3109 66.5746C54.394 64.4435 56.5122 62.3476 58.6256 60.2446C59.1508 59.7241 59.7768 59.5671 60.4719 59.9C60.5542 59.9478 60.6509 59.9646 60.7445 59.9472C60.838 59.9297 60.9223 59.8793 60.9818 59.805C62.7319 58.0467 64.5723 56.3681 65.9051 54.2382C67.3312 51.9823 68.2341 49.4357 68.5472 46.7853C68.5906 46.4219 68.6234 46.0609 68.634 45.6963C68.634 45.4501 68.6539 45.1969 68.8157 44.9883Z" fill="#454550"/>
<path d="M51.098 71.6363C50.8542 71.9305 50.6666 71.8766 50.4029 71.6116C46.7346 67.9246 43.0598 64.2447 39.3782 60.5718C38.9949 60.1896 38.9094 60.2107 38.73 60.7159C38.519 61.302 38.7535 61.7791 39.1508 62.18C40.7333 63.7777 42.3287 65.3637 43.9194 66.9556C45.5917 68.628 47.2645 70.3015 48.9376 71.9762C49.0548 72.0934 49.1521 72.2106 49.26 72.3279C49.1615 72.4334 49.0044 72.3196 48.9083 72.4205H46.7983C46.7151 72.3851 46.6256 72.3669 46.5352 72.3669C46.4447 72.3669 46.3552 72.3851 46.272 72.4205H45.6578C45.033 72.2317 44.3777 72.2528 43.7389 72.1614C39.2681 71.5237 35.1266 70.1288 31.8831 66.7845C29.5713 64.4414 28.0935 61.4034 27.6772 58.1382C27.0911 53.8011 27.9972 49.7159 29.8259 45.796C30.0392 45.3365 30.3815 45.0165 30.9243 44.9849C31.1353 45.0704 31.1118 45.2603 31.1188 45.4315C31.297 49.6339 32.7975 53.3146 35.5475 56.469C36.5626 57.6342 37.7243 58.6693 38.8144 59.7688C38.9656 59.9212 39.111 59.9821 39.3185 59.8743C40.0288 59.5074 40.6302 59.7489 41.1436 60.2611C44.5172 63.6215 47.8854 66.988 51.2481 70.3609C51.349 70.4451 51.4292 70.5513 51.4825 70.6715C51.486 71.0466 51.2914 71.3409 51.098 71.6363Z" fill="#727380"/>
<path d="M48.9058 72.4266C48.9972 72.2976 49.1402 72.3539 49.2574 72.334L49.5294 72.3504C49.5481 72.3715 49.5528 72.3891 49.5434 72.4055C49.5341 72.4219 49.5247 72.4266 49.5165 72.4266H48.9058Z" fill="#AFD24D"/>
<path d="M46.2744 72.4263C46.347 72.3621 46.4406 72.3267 46.5376 72.3267C46.6345 72.3267 46.7281 72.3621 46.8007 72.4263H46.2744Z" fill="#B5D44F"/>
<path d="M49.519 72.4264C49.519 72.4018 49.5272 72.376 49.5319 72.3502C49.7043 72.3654 49.8953 72.2635 50.0454 72.4264H49.519Z" fill="#C1D79E"/>
<path d="M50.3091 72.4264C50.3818 72.3624 50.4754 72.3271 50.5722 72.3271C50.6691 72.3271 50.7627 72.3624 50.8354 72.4264H50.3091Z" fill="#9AC955"/>
<path d="M52.9395 72.4266C52.9673 72.3959 53.0012 72.3713 53.039 72.3546C53.0769 72.3378 53.1178 72.3291 53.1592 72.3291C53.2007 72.3291 53.2416 72.3378 53.2795 72.3546C53.3173 72.3713 53.3512 72.3959 53.379 72.4266H52.9395Z" fill="#9AC954"/>
<path d="M49.8812 29.8164C51.5129 28.2726 53.4353 27.4884 55.6988 27.5153C59.2729 27.5528 62.5715 30.2302 63.2819 33.7503C63.8586 36.607 63.1295 39.1038 61.0746 41.1751C57.7092 44.5675 54.3203 47.9364 50.9432 51.3159C50.6454 51.6136 50.3289 51.8586 49.8741 51.8071C49.6678 51.5726 49.7311 51.2807 49.7299 51.01C49.7299 44.5761 49.7299 38.1414 49.7299 31.706C49.7299 31.2547 49.7299 30.8022 49.7299 30.3497C49.7358 30.1587 49.7182 29.9606 49.8812 29.8164Z" fill="#D1C8CB"/>
<path d="M49.8813 29.8166C49.8813 30.7649 49.8708 31.7144 49.8708 32.6627C49.8708 39.0435 49.8708 45.4234 49.8708 51.8026C49.4746 51.8354 49.1592 51.6607 48.8931 51.3947C45.3999 47.9038 41.8599 44.4563 38.437 40.8975C36.2895 38.6703 35.7151 35.9168 36.6939 32.9745C37.688 29.9971 39.8355 28.1907 42.9172 27.6328C45.4375 27.1791 47.6846 27.9012 49.6105 29.5974C49.7008 29.6771 49.791 29.7427 49.8813 29.8166Z" fill="#E5DCDE"/>
<path d="M51.4343 70.6646C51.3042 70.5474 51.1694 70.4372 51.0451 70.3129L41.1235 60.3913C40.4659 59.7337 40.0428 59.6528 39.2163 60.0643C39.0522 60.1463 38.976 60.0924 38.8811 59.9928C37.1064 58.143 35.13 56.4879 33.7527 54.2677C32.4389 52.1613 31.5637 49.8114 31.1797 47.3587C31.0593 46.7014 31.0016 46.0341 31.0073 45.3659C31.0188 45.234 30.988 45.1018 30.9194 44.9885C31.3754 44.9381 31.781 45.0776 32.0471 45.4398C34.0399 48.1523 36.8813 49.58 39.9009 50.7722C42.3626 51.7439 44.7492 52.8716 46.8486 54.5232C47.8731 55.3274 48.8507 56.1796 49.6443 57.2193C49.7194 57.3178 49.7733 57.4608 49.9456 57.4221C51.5856 59.6372 52.4593 62.3264 52.4342 65.0825C52.4342 65.6006 52.5514 66.1375 52.317 66.638C52.2115 66.7693 52.3263 66.9416 52.2349 67.0753L51.9571 68.9203C51.9407 69.5486 51.8328 70.1511 51.4343 70.6646Z" fill="#9191A3"/>
<path d="M52.3266 66.138C52.3489 64.5367 52.3489 62.9414 51.9293 61.3718C51.5668 59.9598 50.9633 58.6209 50.1452 57.4144C50.0455 57.2714 49.8568 57.1471 49.9517 56.9221C51.09 55.3454 52.5916 54.1697 54.1811 53.0971C56.1398 51.7749 58.3155 50.8899 60.4852 49.9908C62.3502 49.223 64.1742 48.3813 65.7156 47.0356C66.3864 46.4494 66.9981 45.7988 67.5419 45.0933C67.8655 44.676 68.2605 44.4146 68.8161 44.4837C68.6368 48.5114 67.3989 52.1617 64.8939 55.3419C63.7088 56.847 62.2846 58.1341 60.94 59.4915C60.8146 59.6181 60.7056 59.6674 60.5227 59.5584C59.7573 59.1012 59.1372 59.3649 58.6085 59.8948C56.6345 61.8703 54.6601 63.8444 52.6853 65.8168C52.5728 65.9328 52.4462 66.0325 52.3266 66.138Z" fill="#60606B"/>
<path d="M51.4346 70.6646C51.612 70.0832 51.7894 69.5018 51.9668 68.9204C52.0969 68.8032 52.234 68.6942 52.3571 68.5687C55.0336 65.8945 57.7098 63.2191 60.3856 60.5426C60.7372 60.1909 60.8322 60.2155 61.0068 60.702C61.219 61.2881 60.9986 61.7652 60.5977 62.1696C59.1266 63.6536 57.6449 65.1271 56.168 66.6041C54.5972 68.1749 53.0264 69.7452 51.4557 71.3152C51.3384 71.4324 51.2212 71.5286 51.0981 71.6341C51.2107 71.3129 51.322 70.9882 51.4346 70.6646Z" fill="#8D8E9E"/>
<path d="M52.2442 67.0754C52.2536 66.9266 52.1856 66.7624 52.3263 66.6382C52.3087 66.7847 52.3802 66.95 52.2442 67.0754Z" fill="#9ECC3C"/>
</svg>
