<svg width="100" height="100" viewBox="0 0 100 100" fill="none" xmlns="http://www.w3.org/2000/svg">
<path d="M46.068 3.41138C48.324 1.45411 51.676 1.45411 53.932 3.41138L58.6654 7.51805C60.0574 8.72575 61.9272 9.22676 63.7365 8.87686L69.8891 7.68708C72.8215 7.12002 75.7244 8.79604 76.6995 11.6191L78.7454 17.5422C79.3471 19.2841 80.7159 20.6529 82.4578 21.2546L88.3809 23.3005C91.204 24.2756 92.88 27.1785 92.3129 30.1109L91.1231 36.2635C90.7732 38.0728 91.2742 39.9426 92.482 41.3346L96.5886 46.068C98.5459 48.324 98.5459 51.676 96.5886 53.932L92.4819 58.6654C91.2742 60.0574 90.7732 61.9272 91.1231 63.7365L92.3129 69.8891C92.88 72.8215 91.204 75.7244 88.3809 76.6995L82.4578 78.7454C80.7159 79.3471 79.3471 80.7159 78.7454 82.4578L76.6995 88.3809C75.7244 91.204 72.8215 92.88 69.8891 92.3129L63.7365 91.1231C61.9272 90.7732 60.0574 91.2742 58.6654 92.482L53.932 96.5886C51.676 98.5459 48.324 98.5459 46.068 96.5886L41.3346 92.4819C39.9426 91.2742 38.0728 90.7732 36.2635 91.1231L30.1109 92.3129C27.1785 92.88 24.2756 91.204 23.3005 88.3809L21.2546 82.4578C20.6529 80.7159 19.2841 79.3471 17.5422 78.7454L11.6191 76.6995C8.79604 75.7244 7.12002 72.8215 7.68708 69.8891L8.87686 63.7365C9.22676 61.9272 8.72575 60.0574 7.51805 58.6654L3.41138 53.932C1.45411 51.676 1.45411 48.324 3.41138 46.068L7.51805 41.3346C8.72575 39.9426 9.22676 38.0728 8.87686 36.2635L7.68708 30.1109C7.12002 27.1785 8.79604 24.2756 11.6191 23.3005L17.5422 21.2546C19.2841 20.6529 20.6529 19.2841 21.2546 17.5422L23.3005 11.6191C24.2756 8.79604 27.1785 7.12002 30.1109 7.68708L36.2635 8.87686C38.0728 9.22676 39.9426 8.72575 41.3346 7.51805L46.068 3.41138Z" fill="#EFEFF3"/>
<path d="M50.5716 27.5021C50.612 27.6106 50.7147 27.5783 50.7932 27.6002C52.6123 28.1243 53.7827 29.5867 53.8035 31.3654C53.8242 33.1914 52.7185 34.6492 50.8798 35.2344C50.7923 35.2552 50.7124 35.3 50.6489 35.3637H51.1371C56.3897 35.3637 61.6423 35.3637 66.8948 35.3637C67.5891 35.3592 68.2568 35.6308 68.7508 36.1186C69.2449 36.6064 69.525 37.2705 69.5294 37.9647C69.5338 38.659 69.2623 39.3266 68.7745 39.8207C68.2867 40.3148 67.6226 40.5949 66.9283 40.5993C63.5972 40.6085 60.2649 40.612 56.9326 40.5912C56.4998 40.5912 56.4155 40.7066 56.4166 41.1199C56.434 44.8134 56.427 48.507 56.4259 52.2075C56.3232 52.3322 56.1893 52.2964 56.0634 52.271C53.8978 51.8327 51.8154 51.0535 49.894 49.9625C49.8387 49.9045 49.799 49.8334 49.7786 49.7559C49.7374 49.5275 49.7235 49.295 49.7371 49.0633C49.7371 42.1379 49.7371 35.2159 49.7371 28.2974C49.7371 28.0273 49.6805 27.7399 49.8767 27.501L50.5716 27.5021Z" fill="#454550"/>
<path d="M49.8735 27.0023C49.8735 34.2648 49.8735 41.5277 49.8735 48.7909C49.8735 48.9802 49.8677 49.1695 49.8643 49.3577C49.7188 49.4731 49.5849 49.3842 49.4591 49.3265C47.5976 48.4715 45.663 47.7854 43.6787 47.2766C43.5413 47.2419 43.389 47.2188 43.3139 47.0676C43.3139 44.8746 43.3139 42.6734 43.3324 40.4769C43.3324 40.096 43.157 40.1018 42.8846 40.1018C39.5811 40.1079 36.2781 40.1079 32.9754 40.1018C31.693 40.1018 30.7027 39.3954 30.3518 38.2619C30.2331 37.8826 30.2024 37.4811 30.2621 37.0881C30.3217 36.6951 30.4702 36.3208 30.6962 35.9938C30.9222 35.6667 31.2198 35.3955 31.5663 35.2007C31.9128 35.0059 32.2992 34.8927 32.6961 34.8696C32.8704 34.8592 33.0424 34.8615 33.2201 34.8615H49.1406C48.7031 34.6215 48.3326 34.5557 48.0082 34.3791C46.6843 33.6588 45.806 32.1329 45.9525 30.7028C46.128 28.9991 46.9971 27.8172 48.6258 27.2182C48.7839 27.1604 48.972 27.172 49.0875 27L49.8735 27.0023Z" fill="#60606B"/>
<path d="M49.959 49.9521C51.1444 50.4589 52.2825 51.0729 53.5152 51.4688C54.4697 51.7747 55.4255 52.0783 56.4239 52.2098C58.4334 52.6115 60.458 52.6635 62.4963 52.5076C65.1442 52.3056 67.6904 51.6754 70.1709 50.7486C71.1889 50.37 71.5883 50.5108 72.237 51.4411V54.673C71.9542 55.2374 71.459 55.504 70.8934 55.7384C67.4792 57.1558 63.9334 57.8945 60.2329 57.8564C58.9549 57.8434 57.6805 57.7198 56.4239 57.487C56.2715 57.5886 56.1122 57.5332 55.9622 57.5009C54.4236 57.1835 52.9256 56.6941 51.4964 56.0419C51.3767 55.9886 51.2717 55.907 51.1905 55.8041L49.8689 55.1116C49.7281 54.9419 49.7327 54.7353 49.7327 54.5345C49.7327 53.2013 49.7258 51.8693 49.7327 50.5373C49.7397 50.3273 49.6623 50.0618 49.959 49.9521Z" fill="#D1C8CB"/>
<path d="M49.9589 49.9521C49.8169 50.0814 49.8769 50.2522 49.8757 50.4046C49.8711 51.9743 49.8711 53.5437 49.8757 55.1127L48.5841 54.5749C48.4238 54.5885 48.263 54.5539 48.1224 54.4756C46.6792 53.8764 45.1939 53.3837 43.6786 53.0016C43.5501 52.9793 43.4289 52.9263 43.3254 52.847C41.7566 52.4619 40.1447 52.2811 38.5296 52.3091C35.4362 52.3299 32.4906 53.0559 29.628 54.1801C29.493 54.2332 29.358 54.2851 29.2183 54.3267C28.3699 54.5806 27.562 54.0439 27.5227 53.1586C27.4869 52.331 27.4985 51.5 27.5227 50.6712C27.5366 50.0941 27.8482 49.689 28.3711 49.4546C31.9319 47.8641 35.6289 46.9153 39.5672 47.0769C40.8294 47.1415 42.0845 47.3055 43.3208 47.5675C45.522 48.0957 47.6626 48.8504 49.7084 49.8194C49.7612 49.8375 49.8157 49.8502 49.8711 49.8575L49.9589 49.9521Z" fill="#E6DCDE"/>
<path d="M43.3252 52.3447C44.1701 52.4521 44.9735 52.7256 45.778 52.9865C46.7302 53.297 47.6825 53.6167 48.5781 54.0749C48.5781 54.9625 48.5643 55.849 48.5631 56.7366C48.5631 60.8088 48.5631 64.8817 48.5631 68.9554C48.5631 70.262 47.8498 71.2639 46.7025 71.6102C46.322 71.7261 45.9201 71.7538 45.5274 71.6911C45.1346 71.6284 44.7613 71.4769 44.4359 71.2482C44.1104 71.0195 43.8415 70.7196 43.6494 70.3713C43.4573 70.023 43.3473 69.6355 43.3275 69.2382C43.3275 69.1666 43.3275 69.0928 43.3275 69.02L43.3252 52.3447Z" fill="#60606B"/>
<path d="M51.3407 55.8901C52.473 56.3391 53.5857 56.8458 54.7757 57.1367C55.3759 57.2829 55.9765 57.4284 56.5775 57.573C56.5775 58.9997 56.5948 60.4263 56.5648 61.8518C56.5429 62.9529 56.0096 63.7794 54.9985 64.2226C54.0058 64.6589 53.0582 64.4973 52.2283 63.7921C51.9425 63.5525 51.714 63.2518 51.5598 62.9122C51.4056 62.5726 51.3295 62.2028 51.3372 61.8299C51.3292 59.8492 51.3384 57.8697 51.3407 55.8901Z" fill="#454550"/>
</svg>
