<svg width="17" height="18" viewBox="0 0 17 18" fill="none" xmlns="http://www.w3.org/2000/svg">
<path fill-rule="evenodd" clip-rule="evenodd" d="M9.42231 2.9317C10.2038 2.9317 10.8374 2.29815 10.8374 1.51663C10.8374 0.735111 10.2038 0.101562 9.42231 0.101562C8.64079 0.101562 8.00724 0.735111 8.00724 1.51663C8.00724 2.29815 8.64079 2.9317 9.42231 2.9317ZM8.55162 3.61164C8.78456 3.52429 9.04689 3.5767 9.22839 3.74685C9.73275 4.21967 10.3694 4.78692 10.7525 5.12538C10.9161 5.26987 11.1046 5.38543 11.3101 5.46762L12.7693 6.05131C13.1046 6.18542 13.2677 6.56594 13.1336 6.90122C12.9995 7.2365 12.6189 7.39958 12.2837 7.26547L10.8245 6.68179C10.4826 6.54506 10.1649 6.35119 9.88671 6.10541C9.67623 5.91945 9.38666 5.66221 9.0825 5.38761L8.03117 8.54161L11.1162 11.6266C11.2114 11.7219 11.2749 11.8442 11.298 11.9769L12.0471 16.2842C12.109 16.64 11.8707 16.9785 11.5149 17.0404C11.1592 17.1023 10.8206 16.864 10.7587 16.5083L10.0451 12.4049L6.82075 9.18055C6.64563 9.00543 6.58448 8.74639 6.6628 8.51144L7.72751 5.3173L6.86926 5.63915C6.45418 5.7948 6.10407 6.08646 5.876 6.46659L5.22205 7.55649C5.03626 7.86614 4.63463 7.96655 4.32498 7.78076C4.01533 7.59497 3.91493 7.19334 4.10072 6.88369L4.75466 5.79379C5.13479 5.16024 5.7183 4.67414 6.4101 4.41472L8.55162 3.61164ZM6.76459 10.1663C7.10221 10.2944 7.27208 10.6719 7.14399 11.0096L5.08371 16.4402C4.95562 16.7778 4.57808 16.9476 4.24045 16.8196C3.90283 16.6915 3.73296 16.3139 3.86105 15.9763L5.92133 10.5457C6.04942 10.2081 6.42696 10.0382 6.76459 10.1663Z" fill="white"/>
</svg>
