<svg width="189" height="104" viewBox="0 0 189 104" fill="none" xmlns="http://www.w3.org/2000/svg">
<path d="M39.7892 29.4581L34.6998 26.9133C33.1815 26.1541 32.566 24.3077 33.3251 22.7892L35.87 17.6998C36.6291 16.1815 38.4755 15.566 39.9938 16.3251L45.0833 18.87C46.6016 19.6291 47.217 21.4755 46.4579 22.9941L43.913 28.0835C43.1539 29.6018 41.3077 30.2173 39.7892 29.4581Z" fill="#FFE266"/>
<path d="M181.789 91.4581L176.7 88.9133C175.181 88.1541 174.566 86.3077 175.325 84.7892L177.87 79.6998C178.629 78.1815 180.476 77.566 181.994 78.3251L187.083 80.87C188.602 81.6291 189.217 83.4755 188.458 84.9941L185.913 90.0835C185.154 91.6018 183.308 92.2173 181.789 91.4581Z" fill="#FFE266"/>
<path d="M77.2302 91.6821L82.7017 90.1191C84.3341 89.6527 86.0352 90.5979 86.5016 92.2303L88.0647 97.7018C88.5311 99.3342 87.5859 101.035 85.9534 101.502L80.4819 103.065C78.8495 103.531 77.1484 102.586 76.682 100.954L75.119 95.482C74.6528 93.8496 75.598 92.1485 77.2302 91.6821Z" fill="#EF8BBD"/>
<path d="M179.184 41.8931L182.089 41.0632C182.956 40.8156 183.859 41.3175 184.107 42.1842L184.937 45.0893C185.184 45.956 184.683 46.8592 183.816 47.1069L180.911 47.9368C180.044 48.1844 179.141 47.6825 178.893 46.8158L178.063 43.9107C177.816 43.044 178.318 42.1408 179.184 41.8931Z" fill="#EF8BBD"/>
<path d="M151.055 73.5473L143.87 77.6952C141.727 78.9327 138.986 78.1984 137.749 76.0551L133.601 68.8705C132.364 66.7272 133.098 63.9864 135.241 62.7491L142.426 58.6012C144.569 57.3637 147.31 58.098 148.547 60.2413L152.695 67.4256C153.933 69.5692 153.198 72.3098 151.055 73.5473Z" fill="#78EAC4"/>
<path d="M112.675 13.1921L108.427 15.6446C107.16 16.3762 105.539 15.9421 104.808 14.6748L102.355 10.4271C101.624 9.15984 102.058 7.53939 103.325 6.80787L107.573 4.35543C108.84 3.62377 110.46 4.05792 111.192 5.32515L113.645 9.57278C114.376 10.8402 113.942 12.4605 112.675 13.1921Z" fill="#78EAC4"/>
<path d="M24.454 54.7242L19.4982 57.5853C18.0198 58.4389 16.1293 57.9324 15.2758 56.454L12.4146 51.4983C11.561 50.0198 12.0677 48.1293 13.546 47.2758L18.5017 44.4147C19.9802 43.5611 21.8705 44.0676 22.7241 45.546L25.5853 50.5016C26.4389 51.9802 25.9324 53.8706 24.454 54.7242Z" fill="#78EAC4"/>
<path d="M9.46324 0.589746L11.443 6.15686C11.5279 6.39522 11.6957 6.58412 11.9073 6.67951L16.8533 8.90795C17.552 9.22272 17.552 10.3362 16.8533 10.651L11.9073 12.8794C11.6957 12.9748 11.5276 13.1637 11.443 13.4021L9.46324 18.969C9.18363 19.7555 8.19434 19.7555 7.91473 18.969L5.93473 13.4019C5.84988 13.1635 5.68207 12.9746 5.47043 12.8792L0.52418 10.651C-0.174727 10.3362 -0.174727 9.22295 0.52418 8.90795L5.4702 6.67951C5.68207 6.58412 5.84988 6.39522 5.93449 6.15686L7.91449 0.589746C8.19434 -0.196582 9.1834 -0.196582 9.46324 0.589746Z" fill="#CAB4EF"/>
<path d="M100.463 41.5897L102.443 47.1569C102.528 47.3952 102.696 47.5841 102.907 47.6795L107.853 49.908C108.552 50.2227 108.552 51.3362 107.853 51.651L102.907 53.8794C102.696 53.9748 102.528 54.1637 102.443 54.4021L100.463 59.969C100.184 60.7555 99.1943 60.7555 98.9147 59.969L96.9347 54.4019C96.8499 54.1635 96.6821 53.9746 96.4704 53.8792L91.5242 51.651C90.8253 51.3362 90.8253 50.223 91.5242 49.908L96.4702 47.6795C96.6821 47.5841 96.8499 47.3952 96.9345 47.1569L98.9145 41.5897C99.1943 40.8034 100.183 40.8034 100.463 41.5897Z" fill="#CAB4EF"/>
<path d="M183.019 0.437519L184.488 4.56697C184.551 4.74369 184.675 4.88385 184.832 4.95463L188.501 6.60768C189.02 6.84135 189.02 7.66705 188.501 7.90072L184.832 9.55377C184.675 9.62455 184.551 9.76471 184.488 9.94142L183.019 14.0709C182.812 14.6542 182.078 14.6542 181.871 14.0709L180.402 9.94142C180.339 9.76471 180.215 9.62455 180.058 9.55377L176.389 7.90072C175.87 7.66705 175.87 6.84135 176.389 6.60768L180.058 4.95463C180.215 4.88385 180.339 4.74369 180.402 4.56697L181.871 0.437519C182.078 -0.14584 182.812 -0.14584 183.019 0.437519Z" fill="#FFC7B6"/>
<path d="M45.8118 78.2714L46.6094 80.833C46.6435 80.9427 46.7111 81.0296 46.7965 81.0735L48.7888 82.0989C49.0704 82.2439 49.0704 82.7561 48.7888 82.9011L46.7965 83.9265C46.7112 83.9704 46.6436 84.0573 46.6094 84.167L45.8118 86.7286C45.6992 87.0905 45.3007 87.0905 45.1881 86.7286L44.3905 84.167C44.3564 84.0573 44.2888 83.9704 44.2034 83.9265L42.2111 82.9011C41.9296 82.7561 41.9296 82.2439 42.2111 82.0989L44.2034 81.0735C44.2887 81.0296 44.3563 80.9427 44.3905 80.833L45.1881 78.2714C45.3007 77.9095 45.6991 77.9095 45.8118 78.2714Z" fill="#FFC7B6"/>
<path d="M142.306 26.6448C144.512 25.7304 145.559 23.2007 144.645 20.9946C143.73 18.7885 141.201 17.7414 138.994 18.6558C136.788 19.5702 135.741 22.0999 136.656 24.306C137.57 26.5121 140.1 27.5592 142.306 26.6448Z" fill="#8BB6EF"/>
<path d="M72.8649 31.7298C73.8949 31.7298 74.7298 30.8949 74.7298 29.8649C74.7298 28.835 73.8949 28 72.8649 28C71.835 28 71 28.835 71 29.8649C71 30.8949 71.835 31.7298 72.8649 31.7298Z" fill="#EF8BBD"/>
<path d="M163.865 31.7298C164.895 31.7298 165.73 30.8949 165.73 29.8649C165.73 28.835 164.895 28 163.865 28C162.835 28 162 28.835 162 29.8649C162 30.8949 162.835 31.7298 163.865 31.7298Z" fill="#FFE266"/>
<path d="M61.8649 69.7298C62.8949 69.7298 63.7298 68.8949 63.7298 67.8649C63.7298 66.835 62.8949 66 61.8649 66C60.835 66 60 66.835 60 67.8649C60 68.8949 60.835 69.7298 61.8649 69.7298Z" fill="#FFE266"/>
<path d="M133.865 101.73C134.895 101.73 135.73 100.895 135.73 99.8649C135.73 98.835 134.895 98 133.865 98C132.835 98 132 98.835 132 99.8649C132 100.895 132.835 101.73 133.865 101.73Z" fill="#FFE266"/>
</svg>
