<svg width="120" height="120" viewBox="0 0 120 120" fill="none" xmlns="http://www.w3.org/2000/svg">
<g clip-path="url(#clip0_2799_6516)">
<path d="M68.9198 83.2657L54.3425 97.9298C47.5663 104.766 36.5773 104.766 29.8011 97.9298L26.5601 94.6598L22.0266 90.0877C20.7871 88.8362 19.7718 87.4448 18.9881 85.9593C15.4746 79.3398 16.4874 70.919 22.0266 65.3365L36.5797 50.6965C37.5202 49.7512 39.0515 49.7537 39.9895 50.6989L44.6967 55.4471C45.6251 56.3852 45.6251 57.8971 44.6943 58.8328L31.7447 71.8498C30.8356 72.7686 30.2207 73.8731 29.9048 75.0426C29.2489 77.4613 29.8614 80.1549 31.7447 82.0527L35.4391 85.7808L37.7661 88.1272C40.5586 90.9438 45.0897 90.9438 47.8846 88.1272L60.8076 75.1343C61.7481 74.189 63.277 74.189 64.2174 75.1367L68.9222 79.8824C69.8506 80.8181 69.8506 82.33 68.9198 83.2657Z" fill="#42459E"/>
<path d="M35.4393 85.7807L26.5603 94.6597L22.0267 90.0876C20.7872 88.836 19.772 87.4446 18.9883 85.9592L29.905 75.0425C29.249 77.4612 29.8616 80.1548 31.7449 82.0526L35.4393 85.7807Z" fill="#42459E"/>
<path d="M41.2385 51.99C42.1676 52.9271 42.1664 54.4386 41.2358 55.3743L28.288 68.3913C25.4955 71.2103 25.4955 75.7791 28.288 78.5957L34.3091 84.6687C34.4328 84.7936 34.5611 84.9108 34.6913 85.0246L31.7457 82.0537C28.9533 79.2371 28.9533 74.6684 31.7457 71.8494L44.6936 58.8321C45.6242 57.8964 45.6256 56.3849 44.6963 55.4478L39.9888 50.6999C39.9167 50.6271 39.8401 50.562 39.7617 50.5005L41.2385 51.99Z" fill="#CADFF3"/>
<path d="M68.9221 79.8819L64.2163 75.1357C64.1442 75.0629 64.0676 74.9978 63.9892 74.9363L65.4643 76.4239C66.3934 77.361 66.3922 78.872 65.4619 79.8077L50.8839 94.4708C44.3052 101.109 33.7545 101.3 26.9448 95.0483L29.8005 97.9286C36.5762 104.765 47.5659 104.765 54.3417 97.9286L68.9196 83.2655C69.8502 82.33 69.8512 80.819 68.9221 79.8819Z" fill="#CADFF3"/>
<path d="M3.1994 118.71L1.28953 116.801C-0.429843 115.081 -0.429843 112.293 1.28953 110.574L35.1021 76.7615C36.8214 75.0421 39.6093 75.0421 41.3287 76.7615L43.2386 78.6713C44.9579 80.3907 44.9579 83.1786 43.2386 84.898L9.42603 118.71C7.70642 120.43 4.91878 120.43 3.1994 118.71Z" fill="#42459E"/>
<path d="M43.2385 78.6713L41.3286 76.7614C41.061 76.4937 40.7651 76.2726 40.4538 76.0884C41.4533 77.7774 41.2324 79.9882 39.7807 81.4401L5.96796 115.252C4.51626 116.704 2.3052 116.925 0.616211 115.925C0.800446 116.237 1.02158 116.533 1.28925 116.8L3.19913 118.71C4.9185 120.43 7.70638 120.43 9.42575 118.71L43.2385 84.8977C44.9579 83.1783 44.9579 80.3907 43.2385 78.6713Z" fill="#CADFF3"/>
<path d="M97.9298 54.3425L83.2657 68.9198C82.33 69.8506 80.8181 69.8506 79.8824 68.9222L75.1367 64.2174C74.189 63.277 74.189 61.7481 75.1343 60.8076L88.1272 47.8846C90.9438 45.0897 90.9438 40.5586 88.1272 37.7661L85.7808 35.4391L82.0527 31.7447C80.1549 29.8614 77.4613 29.2489 75.0426 29.9048C73.8731 30.2207 72.7686 30.8356 71.8498 31.7447L58.8328 44.6943C57.8971 45.6251 56.3852 45.6251 55.4471 44.6967L50.6989 39.9895C49.7537 39.0515 49.7512 37.5202 50.6965 36.5797L65.3365 22.0266C70.919 16.4874 79.3398 15.4746 85.9593 18.9881C87.4448 19.7718 88.8362 20.7871 90.0877 22.0266L94.6598 26.5601L97.9298 29.8011C104.766 36.5773 104.766 47.5663 97.9298 54.3425Z" fill="#42459E"/>
<path d="M94.6597 26.5603L85.7807 35.4393L82.0526 31.7449C80.1548 29.8616 77.4612 29.249 75.0425 29.905L85.9592 18.9883C87.4446 19.772 88.836 20.7872 90.0876 22.0267L94.6597 26.5603Z" fill="#42459E"/>
<path d="M97.9291 29.8005L95.0488 26.9448C101.301 33.7545 101.109 44.3052 94.4713 50.8839L79.8082 65.4619C78.8725 66.3922 77.3613 66.3932 76.4244 65.4643L74.9368 63.9892C74.9983 64.0678 75.0636 64.1445 75.1362 64.2166L79.8824 68.9223C80.8195 69.8514 82.3305 69.8502 83.2662 68.9199L97.9293 54.3419C104.766 47.5659 104.766 36.5764 97.9291 29.8005Z" fill="#CADFF3"/>
<path d="M82.0537 31.7457L85.0246 34.6913C84.9108 34.5611 84.7936 34.4328 84.6689 34.3091L78.5959 28.288C75.7793 25.4955 71.2106 25.4955 68.3916 28.288L55.3743 41.2358C54.4386 42.1664 52.9271 42.1678 51.99 41.2385L50.5007 39.7617C50.5622 39.8403 50.6276 39.9167 50.7002 39.9888L55.4481 44.6963C56.3852 45.6254 57.8967 45.6242 58.8323 44.6936L71.8496 31.7457C74.6684 28.9533 79.2371 28.9533 82.0537 31.7457Z" fill="#CADFF3"/>
<path d="M118.71 3.1994L116.801 1.28953C115.081 -0.429843 112.293 -0.429843 110.574 1.28953L76.7612 35.1021C75.0418 36.8214 75.0418 39.6093 76.7612 41.3287L78.6711 43.2386C80.3905 44.9579 83.1783 44.9579 84.8977 43.2386L118.71 9.42603C120.43 7.70642 120.43 4.91878 118.71 3.1994Z" fill="#42459E"/>
<path d="M118.71 3.19937L116.801 1.28949C116.533 1.02182 116.237 0.800691 115.926 0.616455C116.925 2.3052 116.704 4.51651 115.253 5.96821L81.4399 39.7805C79.9882 41.2322 77.7771 41.4533 76.0881 40.4535C76.2726 40.7651 76.4935 41.0607 76.7612 41.3284L78.671 43.2383C80.3904 44.9577 83.1783 44.9577 84.8977 43.2383L118.71 9.426C120.43 7.70639 120.43 4.91874 118.71 3.19937Z" fill="#CADFF3"/>
<path d="M27.174 44.2805C26.9613 44.2805 26.745 44.2429 26.5344 44.1631L21.2505 42.1642C20.3163 41.8107 19.8453 40.767 20.1988 39.8328C20.5521 38.8984 21.5967 38.4269 22.5302 38.7812L27.8142 40.78C28.7484 41.1336 29.2194 42.1772 28.8658 43.1114C28.5921 43.8349 27.9042 44.2805 27.174 44.2805Z" fill="#DBEAFF"/>
<path d="M34.571 34.2508C34.1008 34.2508 33.6313 34.0687 33.2768 33.7058L29.1674 29.4976C28.4695 28.7828 28.4833 27.6378 29.1978 26.94C29.9128 26.2419 31.0578 26.2558 31.7554 26.9704L35.8648 31.1786C36.5626 31.8934 36.5489 33.0383 35.8344 33.7362C35.4825 34.0796 35.0265 34.2508 34.571 34.2508Z" fill="#DBEAFF"/>
<path d="M44.9639 28.0601C44.1626 28.0601 43.4303 27.5233 43.2164 26.7119L41.7538 21.1619C41.4992 20.1961 42.0757 19.2069 43.0418 18.9523C44.0076 18.6976 44.9967 19.2742 45.2514 20.2403L46.7139 25.7902C46.9686 26.756 46.392 27.7452 45.426 27.9998C45.2714 28.0406 45.1163 28.0601 44.9639 28.0601Z" fill="#DBEAFF"/>
</g>
<defs>
<clipPath id="clip0_2799_6516">
<rect width="120" height="120" fill="white"/>
</clipPath>
</defs>
</svg>
