<svg width="208" height="110" viewBox="0 0 208 110" fill="none" xmlns="http://www.w3.org/2000/svg">
<path d="M45.3796 85.8592C44.6728 86.538 43.7915 87.0546 42.7797 87.3311L33.4865 89.8724C29.9772 90.8324 26.2584 89.8263 23.7817 87.247L18.9213 82.1847C16.4446 79.6052 15.5906 75.8486 16.6924 72.3808L19.6989 62.5005L7.67292 65.609C4.43925 66.4933 1.10081 64.5888 0.216511 61.3551C-0.667786 58.1214 1.23674 54.7832 4.47042 53.8987L13.7636 51.3574C17.2734 50.3976 20.9922 51.4038 23.4686 53.9828L28.3291 59.0451C30.8057 61.6244 31.6598 65.381 30.5582 68.8488L27.0806 78.8212L39.5775 75.621C42.8111 74.7367 46.1496 76.6413 47.0339 79.8749C47.6416 82.0968 46.9321 84.3686 45.3796 85.8592Z" fill="#8BB6EF"/>
<path d="M19.6989 62.5007L19.3823 63.5413L16.6921 72.3812C15.7452 75.3618 16.2442 78.5549 17.9753 81.0313C20.7212 80.4034 24.3733 79.6082 27.0805 78.8211L27.5263 77.5429L30.5582 68.8487C31.5498 65.7269 30.9557 62.3713 29.0205 59.8511C26.2527 60.6735 22.4781 61.7214 19.6989 62.5007Z" fill="#8388EF"/>
<path d="M174.81 108.962C175.719 109.328 176.729 109.478 177.771 109.357L187.341 108.246C190.955 107.826 194.03 105.505 195.364 102.188L197.984 95.6769C199.319 92.3594 198.709 88.5555 196.392 85.7498L189.915 77.7058L202.232 76.1005C205.562 75.7138 207.948 72.7009 207.562 69.3707C207.175 66.0407 204.162 63.6548 200.832 64.041L191.262 65.1522C187.647 65.5719 184.573 67.8934 183.238 71.2105L180.619 77.7212C179.284 81.0386 179.894 84.8423 182.21 87.6482L189.159 95.6017L176.371 97.2976C173.041 97.6844 170.655 100.697 171.041 104.027C171.307 106.316 172.813 108.159 174.81 108.962Z" fill="#A183E2"/>
<path d="M189.915 77.7058L190.597 78.5531L196.392 85.7498C198.383 88.1613 199.112 91.3101 198.431 94.2539C195.649 94.6964 191.964 95.3217 189.158 95.6022L188.268 94.5827L182.21 87.6485C180.124 85.1224 179.423 81.7877 180.278 78.7272C183.152 78.4572 187.045 78.0201 189.915 77.7058Z" fill="#9762E2"/>
<path d="M121.073 60.1078C121.959 59.6892 122.756 59.0498 123.375 58.203L129.061 50.4253C131.208 47.4883 131.593 43.6551 130.066 40.4219L127.068 34.0767C125.54 30.8435 122.334 28.7069 118.702 28.5007L108.398 27.7893L115.588 17.6604C117.567 14.954 116.977 11.1562 114.27 9.17762C111.564 7.19903 107.766 7.78919 105.788 10.4953L100.102 18.273C97.9542 21.2104 97.5692 25.0436 99.0966 28.2764L102.094 34.6216C103.622 37.8546 106.828 39.9911 110.46 40.1976L121.017 40.5018L113.574 51.0379C111.596 53.7443 112.186 57.5421 114.892 59.5207C116.752 60.8805 119.127 61.0272 121.073 60.1078Z" fill="#FFA585"/>
<path d="M107.826 28.6474L108.399 27.7893L118.702 28.5006C121.824 28.6778 124.63 30.2821 126.327 32.782C124.935 34.8646 123.463 36.892 121.959 38.8968C121.585 39.3946 121.269 39.9325 121.017 40.5018L110.46 40.1976C107.19 40.0117 104.266 38.2609 102.601 35.5549C104.356 33.262 106.107 30.9667 107.826 28.6474Z" fill="#EF7C85"/>
<path d="M46.7892 29.4581L41.6998 26.9133C40.1815 26.1541 39.566 24.3077 40.3251 22.7892L42.87 17.6998C43.6291 16.1815 45.4755 15.566 46.9938 16.3251L52.0833 18.87C53.6016 19.6291 54.217 21.4755 53.4579 22.9941L50.913 28.0835C50.1539 29.6018 48.3077 30.2173 46.7892 29.4581Z" fill="#FFE266"/>
<path d="M84.2302 91.6821L89.7017 90.1191C91.3341 89.6527 93.0352 90.5979 93.5016 92.2303L95.0647 97.7018C95.5311 99.3342 94.5859 101.035 92.9534 101.502L87.4819 103.065C85.8495 103.531 84.1484 102.586 83.682 100.954L82.119 95.482C81.6528 93.8496 82.598 92.1485 84.2302 91.6821Z" fill="#EF8BBD"/>
<path d="M158.055 73.5473L150.87 77.6952C148.727 78.9327 145.986 78.1984 144.749 76.0551L140.601 68.8705C139.364 66.7272 140.098 63.9864 142.241 62.7491L149.426 58.6012C151.569 57.3637 154.31 58.098 155.547 60.2413L159.695 67.4256C160.933 69.5692 160.198 72.3098 158.055 73.5473Z" fill="#78EAC4"/>
<path d="M16.4632 0.589746L18.443 6.15686C18.5279 6.39522 18.6957 6.58412 18.9073 6.67951L23.8533 8.90795C24.552 9.22272 24.552 10.3362 23.8533 10.651L18.9073 12.8794C18.6957 12.9748 18.5276 13.1637 18.443 13.4021L16.4632 18.969C16.1836 19.7555 15.1943 19.7555 14.9147 18.969L12.9347 13.4019C12.8499 13.1635 12.6821 12.9746 12.4704 12.8792L7.52418 10.651C6.82527 10.3362 6.82527 9.22295 7.52418 8.90795L12.4702 6.67951C12.6821 6.58412 12.8499 6.39522 12.9345 6.15686L14.9145 0.589746C15.1943 -0.196582 16.1834 -0.196582 16.4632 0.589746Z" fill="#CAB4EF"/>
<path d="M190.019 0.437519L191.488 4.56697C191.551 4.74369 191.675 4.88385 191.832 4.95463L195.501 6.60768C196.02 6.84135 196.02 7.66705 195.501 7.90072L191.832 9.55377C191.675 9.62455 191.551 9.76471 191.488 9.94142L190.019 14.0709C189.812 14.6542 189.078 14.6542 188.871 14.0709L187.402 9.94142C187.339 9.76471 187.215 9.62455 187.058 9.55377L183.389 7.90072C182.87 7.66705 182.87 6.84135 183.389 6.60768L187.058 4.95463C187.215 4.88385 187.339 4.74369 187.402 4.56697L188.871 0.437519C189.078 -0.14584 189.812 -0.14584 190.019 0.437519Z" fill="#FFC7B6"/>
<path d="M149.306 26.6448C151.512 25.7304 152.559 23.2007 151.645 20.9946C150.73 18.7885 148.201 17.7414 145.994 18.6558C143.788 19.5702 142.741 22.0999 143.656 24.306C144.57 26.5121 147.1 27.5592 149.306 26.6448Z" fill="#8BB6EF"/>
<path d="M79.8649 31.7298C80.8949 31.7298 81.7298 30.8949 81.7298 29.8649C81.7298 28.835 80.8949 28 79.8649 28C78.835 28 78 28.835 78 29.8649C78 30.8949 78.835 31.7298 79.8649 31.7298Z" fill="#EF8BBD"/>
<path d="M170.865 31.7298C171.895 31.7298 172.73 30.8949 172.73 29.8649C172.73 28.835 171.895 28 170.865 28C169.835 28 169 28.835 169 29.8649C169 30.8949 169.835 31.7298 170.865 31.7298Z" fill="#FFE266"/>
<path d="M68.8649 69.7298C69.8949 69.7298 70.7298 68.8949 70.7298 67.8649C70.7298 66.835 69.8949 66 68.8649 66C67.835 66 67 66.835 67 67.8649C67 68.8949 67.835 69.7298 68.8649 69.7298Z" fill="#FFE266"/>
<path d="M140.865 101.73C141.895 101.73 142.73 100.895 142.73 99.8649C142.73 98.835 141.895 98 140.865 98C139.835 98 139 98.835 139 99.8649C139 100.895 139.835 101.73 140.865 101.73Z" fill="#FFE266"/>
</svg>
