<svg width="32" height="32" viewBox="0 0 32 32" fill="none" xmlns="http://www.w3.org/2000/svg">
<path d="M4.41011 16L4.48957 15.0362C4.95227 9.4267 9.4267 4.95223 15.0362 4.48957L16 4.41011M4.41011 16L1.5 16M4.41011 16L4.48957 16.9638C4.95223 22.5733 9.4267 27.0477 15.0362 27.5104L16 27.5899M16 27.5899V30.5M16 27.5899L16.9638 27.5104C22.5733 27.0478 27.0477 22.5733 27.5104 16.9638L27.5899 16M27.5899 16H30.5M27.5899 16L27.5104 15.0362C27.0478 9.4267 22.5733 4.95227 16.9638 4.48957L16 4.41011M16 4.41011V1.5" stroke="#012485" stroke-width="1.5"/>
<circle cx="16" cy="16" r="5" fill="#012485"/>
</svg>
