<svg width="25" height="24" viewBox="0 0 25 24" fill="none" xmlns="http://www.w3.org/2000/svg">
<path fill-rule="evenodd" clip-rule="evenodd" d="M3.83301 12C3.83301 7.02944 7.86244 3 12.833 3C17.8036 3 21.833 7.02944 21.833 12C21.833 16.9706 17.8036 21 12.833 21C7.86244 21 3.83301 16.9706 3.83301 12ZM12.833 1C6.75788 1 1.83301 5.92487 1.83301 12C1.83301 18.0751 6.75788 23 12.833 23C18.9081 23 23.833 18.0751 23.833 12C23.833 5.92487 18.9081 1 12.833 1ZM13.833 7C13.833 6.44772 13.3853 6 12.833 6C12.2807 6 11.833 6.44772 11.833 7V12C11.833 12.2652 11.9384 12.5196 12.1259 12.7071L15.1259 15.7071C15.5164 16.0976 16.1496 16.0976 16.5401 15.7071C16.9306 15.3166 16.9306 14.6834 16.5401 14.2929L13.833 11.5858V7Z" fill="#222222"/>
</svg>
