<svg width="24" height="24" viewBox="0 0 24 24" fill="none" xmlns="http://www.w3.org/2000/svg">
<mask id="path-1-outside-1_3218_16384" maskUnits="userSpaceOnUse" x="2.98242" y="3" width="19" height="18" fill="black">
<rect fill="white" x="2.98242" y="3" width="19" height="18"/>
<path fill-rule="evenodd" clip-rule="evenodd" d="M3.99995 5C3.99995 4.44772 4.44766 4 4.99995 4H11.095C11.6087 4 12.0389 4.38929 12.09 4.9005L12.0999 5H19.0478C19.8629 5 20.3356 5.92282 19.8593 6.5843L17.8207 9.4157C17.5694 9.76471 17.5694 10.2353 17.8207 10.5843L19.8593 13.4157C20.3356 14.0772 19.8629 15 19.0478 15H13.905C13.3912 15 12.9611 14.6107 12.91 14.0995L12.9 14H5.98242V19C5.98242 19.5523 5.53471 20 4.98242 20C4.43014 20 3.98242 19.5523 3.98242 19V7C3.98242 6.93596 3.98844 6.87332 3.99995 6.81263V5Z"/>
</mask>
<path fill-rule="evenodd" clip-rule="evenodd" d="M3.99995 5C3.99995 4.44772 4.44766 4 4.99995 4H11.095C11.6087 4 12.0389 4.38929 12.09 4.9005L12.0999 5H19.0478C19.8629 5 20.3356 5.92282 19.8593 6.5843L17.8207 9.4157C17.5694 9.76471 17.5694 10.2353 17.8207 10.5843L19.8593 13.4157C20.3356 14.0772 19.8629 15 19.0478 15H13.905C13.3912 15 12.9611 14.6107 12.91 14.0995L12.9 14H5.98242V19C5.98242 19.5523 5.53471 20 4.98242 20C4.43014 20 3.98242 19.5523 3.98242 19V7C3.98242 6.93596 3.98844 6.87332 3.99995 6.81263V5Z" fill="#EC255A"/>
<path d="M12.09 4.9005L11.095 5V5L12.09 4.9005ZM12.0999 5L11.1049 5.09951L11.195 6H12.0999V5ZM19.8593 6.5843L19.0478 6V6L19.8593 6.5843ZM17.8207 9.4157L17.0092 8.83139H17.0092L17.8207 9.4157ZM17.8207 10.5843L17.0092 11.1686H17.0092L17.8207 10.5843ZM19.8593 13.4157L20.6708 12.8314L19.8593 13.4157ZM12.91 14.0995L13.905 14V14L12.91 14.0995ZM12.9 14L13.895 13.9005L13.805 13H12.9V14ZM5.98242 14V13H4.98242V14H5.98242ZM3.99995 6.81263L4.98245 6.99887L4.99995 6.90657V6.81263H3.99995ZM4.99995 3C3.89538 3 2.99995 3.89543 2.99995 5H4.99995V5V3ZM11.095 3H4.99995V5H11.095V3ZM13.085 4.80099C12.9828 3.77859 12.1225 3 11.095 3V5L11.095 5L13.085 4.80099ZM13.095 4.90049L13.085 4.80099L11.095 5L11.1049 5.09951L13.095 4.90049ZM19.0478 4H12.0999V6H19.0478V4ZM20.6708 7.16861C21.6234 5.84565 20.678 4 19.0478 4V6V6L20.6708 7.16861ZM18.6322 10L20.6708 7.16861L19.0478 6L17.0092 8.83139L18.6322 10ZM18.6322 10L17.0092 8.83139C16.5066 9.52941 16.5066 10.4706 17.0092 11.1686L18.6322 10ZM20.6708 12.8314L18.6322 10L17.0092 11.1686L19.0478 14L20.6708 12.8314ZM19.0478 16C20.678 16 21.6234 14.1543 20.6708 12.8314L19.0478 14L19.0478 14V16ZM13.905 16H19.0478V14H13.905V16ZM11.9149 14.199C12.0172 15.2214 12.8775 16 13.905 16V14V14L11.9149 14.199ZM11.905 14.0995L11.9149 14.199L13.905 14L13.895 13.9005L11.905 14.0995ZM5.98242 15H12.9V13H5.98242V15ZM4.98242 14V19H6.98242V14H4.98242ZM4.98242 19V21C6.08699 21 6.98242 20.1046 6.98242 19H4.98242ZM4.98242 19H2.98242C2.98242 20.1046 3.87785 21 4.98242 21V19ZM4.98242 19V7H2.98242V19H4.98242ZM4.98242 7C4.98242 6.99876 4.98253 6.99847 4.98245 6.99887L3.01744 6.62639C2.99436 6.74817 2.98242 6.87316 2.98242 7H4.98242ZM2.99995 5V6.81263H4.99995V5H2.99995Z" fill="white" mask="url(#path-1-outside-1_3218_16384)"/>
</svg>
