<svg width="25" height="24" viewBox="0 0 25 24" fill="none" xmlns="http://www.w3.org/2000/svg">
<path fill-rule="evenodd" clip-rule="evenodd" d="M11.4085 4.93523C13.4256 3.86243 15.6452 3.20033 17.9388 2.98727L18.8402 2.90354L21.311 11.7382L20.7305 11.7921C18.1725 12.0297 15.6971 12.7682 13.4475 13.9646C11.4305 15.0374 9.21084 15.6995 6.91721 15.9126L6.0158 15.9963L3.545 7.16163L4.12551 7.10771C6.6835 6.8701 9.15898 6.13168 11.4085 4.93523ZM17.7141 1.00669C15.1561 1.2443 12.6807 1.98272 10.4311 3.17918C8.41409 4.25197 6.19445 4.91408 3.90083 5.12713L2.84097 5.22558C1.8625 5.31647 1.21479 6.25367 1.47858 7.19688L1.63012 7.7387C1.63291 7.75026 1.63593 7.76182 1.63916 7.77338L5.69968 22.2922C5.84843 22.8241 6.40267 23.1439 6.93761 23.0066C7.47255 22.8693 7.78562 22.3268 7.63686 21.7949L6.56074 17.9471L7.1419 17.8931C9.69989 17.6555 12.1754 16.9171 14.4249 15.7207C16.4419 14.6479 18.6616 13.9858 20.9552 13.7727L22.0151 13.6743C22.9935 13.5834 23.6412 12.6462 23.3775 11.703L20.6885 2.08822C20.4752 1.32561 19.7366 0.818833 18.9454 0.892318L17.7141 1.00669Z" fill="#222222"/>
</svg>
