<svg width="24" height="24" viewBox="0 0 24 24" fill="none" xmlns="http://www.w3.org/2000/svg">
<path fill-rule="evenodd" clip-rule="evenodd" d="M5 2C3.89543 2 3 2.89543 3 4C3 5.10457 3.89543 6 5 6C6.10457 6 7 5.10457 7 4C7 2.89543 6.10457 2 5 2ZM1 4C1 1.79086 2.79086 0 5 0C6.86384 0 8.42994 1.27477 8.87398 3H16.528C20.2449 3 22.6624 6.91156 21.0001 10.2361C20.1532 11.93 18.4219 13 16.528 13H7.47227C6.33596 13 5.29717 13.642 4.78899 14.6584C3.79164 16.6531 5.24213 19 7.47227 19H15.1262C15.5702 17.2748 17.1363 16 19.0001 16C21.2093 16 23.0001 17.7909 23.0001 20C23.0001 22.2091 21.2093 24 19.0001 24C17.1363 24 15.5702 22.7252 15.1262 21H7.47227C3.75536 21 1.33788 17.0884 3.00014 13.7639C3.8471 12.07 5.57841 11 7.47227 11H16.528C17.6643 11 18.7031 10.358 19.2113 9.34164C20.2086 7.34694 18.7581 5 16.528 5H8.87398C8.42994 6.72523 6.86384 8 5 8C2.79086 8 1 6.20914 1 4ZM17.0001 20C17.0001 21.1046 17.8956 22 19.0001 22C20.1047 22 21.0001 21.1046 21.0001 20C21.0001 18.8954 20.1047 18 19.0001 18C17.8956 18 17.0001 18.8954 17.0001 20Z" fill="#222222"/>
</svg>
