<svg width="121" height="120" viewBox="0 0 121 120" fill="none" xmlns="http://www.w3.org/2000/svg">
<path d="M60.6615 10C50.9383 10 41.6133 13.8625 34.7379 20.7379C27.8625 27.6133 24 36.9383 24 46.6615C24 66.0254 56.6621 106.986 58.0619 108.753C58.3742 109.142 58.7699 109.456 59.2198 109.672C59.6698 109.888 60.1625 110 60.6615 110C61.1606 110 61.6532 109.888 62.1032 109.672C62.5531 109.456 62.9488 109.142 63.2611 108.753C64.6609 106.986 97.323 66.0254 97.323 46.6615C97.323 36.9383 93.4605 27.6133 86.5851 20.7379C79.7097 13.8625 70.3847 10 60.6615 10Z" fill="#2C2F70"/>
<path d="M97.3231 46.6615C97.3231 66.0254 64.6611 106.986 63.2613 108.753C62.9476 109.139 62.5512 109.451 62.1014 109.664C61.6515 109.878 61.1595 109.988 60.6616 109.986V10C70.3849 10 79.7099 13.8625 86.5852 20.7379C93.4606 27.6133 97.3231 36.9383 97.3231 46.6615Z" fill="#42459E"/>
<path d="M60.6616 69.9916C73.5464 69.9916 83.9916 59.5464 83.9916 46.6616C83.9916 33.7768 73.5464 23.3315 60.6616 23.3315C47.7768 23.3315 37.3315 33.7768 37.3315 46.6616C37.3315 59.5464 47.7768 69.9916 60.6616 69.9916Z" fill="#EC255A"/>
<path d="M83.9917 46.6616C83.9917 52.8491 81.5337 58.7832 77.1585 63.1584C72.7832 67.5337 66.8491 69.9916 60.6616 69.9916V23.3315C66.8491 23.3315 72.7832 25.7895 77.1585 30.1648C81.5337 34.54 83.9917 40.4741 83.9917 46.6616Z" fill="#EC255A"/>
<path d="M65.3608 46.6614L69.6935 42.362C70.0043 42.0513 70.2508 41.6823 70.419 41.2763C70.5871 40.8703 70.6737 40.4351 70.6737 39.9957C70.6737 39.5562 70.5871 39.121 70.419 38.715C70.2508 38.309 70.0043 37.9401 69.6935 37.6293C69.3828 37.3186 69.0139 37.0721 68.6078 36.9039C68.2018 36.7357 67.7667 36.6492 67.3272 36.6492C66.8877 36.6492 66.4526 36.7357 66.0466 36.9039C65.6405 37.0721 65.2716 37.3186 64.9609 37.6293L60.6615 41.9621L56.3621 37.6293C55.7345 37.0017 54.8833 36.6492 53.9957 36.6492C53.1082 36.6492 52.257 37.0017 51.6294 37.6293C51.0018 38.2569 50.6492 39.1081 50.6492 39.9957C50.6492 40.8832 51.0018 41.7344 51.6294 42.362L55.9621 46.6614L51.6294 50.9608C51.317 51.2706 51.0691 51.6392 50.8999 52.0454C50.7307 52.4515 50.6436 52.8871 50.6436 53.3271C50.6436 53.7671 50.7307 54.2027 50.8999 54.6089C51.0691 55.015 51.317 55.3836 51.6294 55.6935C51.9392 56.0058 52.3079 56.2538 52.714 56.423C53.1201 56.5922 53.5558 56.6793 53.9957 56.6793C54.4357 56.6793 54.8713 56.5922 55.2775 56.423C55.6836 56.2538 56.0522 56.0058 56.3621 55.6935L60.6615 51.3607L64.9609 55.6935C65.2707 56.0058 65.6393 56.2538 66.0455 56.423C66.4516 56.5922 66.8872 56.6793 67.3272 56.6793C67.7672 56.6793 68.2028 56.5922 68.6089 56.423C69.0151 56.2538 69.3837 56.0058 69.6935 55.6935C70.0059 55.3836 70.2539 55.015 70.4231 54.6089C70.5923 54.2027 70.6794 53.7671 70.6794 53.3271C70.6794 52.8871 70.5923 52.4515 70.4231 52.0454C70.2539 51.6392 70.0059 51.2706 69.6935 50.9608L65.3608 46.6614Z" fill="#CADFF3"/>
<path d="M69.6937 50.9608C70.0061 51.2706 70.254 51.6392 70.4232 52.0454C70.5924 52.4515 70.6795 52.8871 70.6795 53.3271C70.6795 53.7671 70.5924 54.2027 70.4232 54.6089C70.254 55.015 70.0061 55.3836 69.6937 55.6935C69.3838 56.0058 69.0152 56.2538 68.6091 56.423C68.203 56.5922 67.7673 56.6793 67.3273 56.6793C66.8874 56.6793 66.4517 56.5922 66.0456 56.423C65.6395 56.2538 65.2709 56.0058 64.961 55.6935L60.6616 51.3607V41.9621L64.961 37.6293C65.2718 37.3186 65.6407 37.0721 66.0467 36.9039C66.4527 36.7357 66.8879 36.6492 67.3273 36.6492C67.7668 36.6492 68.202 36.7357 68.608 36.9039C69.014 37.0721 69.3829 37.3186 69.6937 37.6293C70.0044 37.9401 70.2509 38.309 70.4191 38.715C70.5873 39.121 70.6738 39.5562 70.6738 39.9957C70.6738 40.4351 70.5873 40.8703 70.4191 41.2763C70.2509 41.6823 70.0044 42.0513 69.6937 42.362L65.361 46.6614L69.6937 50.9608Z" fill="#D7E2F2"/>
</svg>
