<svg width="25" height="24" viewBox="0 0 25 24" fill="none" xmlns="http://www.w3.org/2000/svg">
<path d="M21.1665 10C21.1665 17 12.1665 23 12.1665 23C12.1665 23 3.1665 17 3.1665 10C3.1665 7.61305 4.11472 5.32387 5.80254 3.63604C7.49037 1.94821 9.77956 1 12.1665 1C14.5535 1 16.8426 1.94821 18.5305 3.63604C20.2183 5.32387 21.1665 7.61305 21.1665 10Z" stroke="#222222" stroke-width="2" stroke-linecap="round" stroke-linejoin="round"/>
<path d="M12.1665 13C13.8234 13 15.1665 11.6569 15.1665 10C15.1665 8.34315 13.8234 7 12.1665 7C10.5096 7 9.1665 8.34315 9.1665 10C9.1665 11.6569 10.5096 13 12.1665 13Z" stroke="#222222" stroke-width="2" stroke-linecap="round" stroke-linejoin="round"/>
</svg>
