<svg width="25" height="24" viewBox="0 0 25 24" fill="none" xmlns="http://www.w3.org/2000/svg">
<path d="M18.67 2H16.5C16.09 2 15.75 2.34 15.75 2.75C15.75 3.16 16.09 3.5 16.5 3.5H18.67C19.96 3.5 21 4.54999 21 5.82999V7.89999C21 8.30999 21.34 8.64999 21.75 8.64999C22.16 8.64999 22.5 8.31999 22.5 7.89999V5.82999C22.5 3.71999 20.78 2 18.67 2Z" fill="white"/>
<path d="M3.24998 8.64999C3.65998 8.64999 3.99998 8.30999 3.99998 7.89999V5.82999C3.99998 4.53999 5.04998 3.5 6.32998 3.5H8.44998C8.85998 3.5 9.19998 3.16 9.19998 2.75C9.19998 2.34 8.86998 2 8.45998 2H6.33998C4.22998 2 2.50998 3.71999 2.50998 5.82999V7.89999C2.49998 8.31999 2.83998 8.64999 3.24998 8.64999Z" fill="white"/>
<path d="M21.75 15.3501C21.34 15.3501 21 15.6901 21 16.1001V18.1701C21 19.4601 19.95 20.5001 18.67 20.5001H16.5C16.09 20.5001 15.75 20.8401 15.75 21.2501C15.75 21.6601 16.08 22.0001 16.5 22.0001H18.67C20.78 22.0001 22.5 20.2801 22.5 18.1701V16.1001C22.5 15.6801 22.16 15.3501 21.75 15.3501Z" fill="white"/>
<path d="M8.46 20.5001H6.34C5.05 20.5001 4.01 19.4501 4.01 18.1701V16.1001C4.01 15.6901 3.67 15.3501 3.26 15.3501C2.85 15.3501 2.5 15.6801 2.5 16.1001V18.1701C2.5 20.2801 4.22 22.0001 6.33 22.0001H8.45C8.86 22.0001 9.2 21.6601 9.2 21.2501C9.2 20.8401 8.87 20.5001 8.46 20.5001Z" fill="white"/>
</svg>
