<svg width="24" height="24" viewBox="0 0 24 24" fill="none" xmlns="http://www.w3.org/2000/svg">
<g clip-path="url(#clip0_1879_6902)">
<path fill-rule="evenodd" clip-rule="evenodd" d="M13.75 4C14.8546 4 15.75 3.10457 15.75 2C15.75 0.895431 14.8546 0 13.75 0C12.6454 0 11.75 0.895431 11.75 2C11.75 3.10457 12.6454 4 13.75 4ZM12.4868 4.88646C12.8431 4.75286 13.2443 4.83302 13.5219 5.09324C14.3407 5.86086 15.406 6.80433 15.8895 7.22976C15.9719 7.30234 16.0674 7.36101 16.1722 7.40295L18.5028 8.33518C19.0156 8.54029 19.265 9.12226 19.0599 9.63504C18.8548 10.1478 18.2728 10.3972 17.76 10.1921L15.4294 9.25991C15.1158 9.13443 14.8241 8.9564 14.5682 8.73119C14.2901 8.48645 13.8139 8.06547 13.2991 7.60162L11.8647 11.9048L16.1918 16.2319C16.3375 16.3776 16.4346 16.5647 16.4699 16.7677L17.5286 22.8554C17.6232 23.3995 17.2588 23.9173 16.7147 24.0119C16.1706 24.1066 15.6528 23.7422 15.5581 23.198L14.5537 17.4222L10.0135 12.882C9.74564 12.6142 9.65212 12.218 9.7719 11.8587L11.2264 7.49512L9.60793 8.10205C9.39632 8.1814 9.21783 8.33009 9.10156 8.52388L7.87267 10.572C7.58852 11.0456 6.97426 11.1992 6.50068 10.915C6.0271 10.6309 5.87353 10.0166 6.15768 9.54304L7.38657 7.49489C7.73539 6.91352 8.27086 6.46745 8.90568 6.22939L12.4868 4.88646ZM10.0169 14.1514C10.5333 14.3473 10.7931 14.9247 10.5972 15.4411L7.68525 23.1164C7.48934 23.6328 6.91193 23.8926 6.39556 23.6967C5.87918 23.5008 5.61939 22.9234 5.8153 22.407L8.7272 14.7317C8.92311 14.2153 9.50052 13.9555 10.0169 14.1514Z" fill="white"/>
</g>
<defs>
<clipPath id="clip0_1879_6902">
<rect width="24" height="24" fill="white"/>
</clipPath>
</defs>
</svg>
