<svg width="89" height="90" viewBox="0 0 89 90" fill="none" xmlns="http://www.w3.org/2000/svg">
<path fill-rule="evenodd" clip-rule="evenodd" d="M49.3346 15.6629C53.4261 15.6629 56.743 12.3461 56.743 8.25455C56.743 4.16303 53.4261 0.846191 49.3346 0.846191C45.2431 0.846191 41.9263 4.16303 41.9263 8.25455C41.9263 12.3461 45.2431 15.6629 49.3346 15.6629ZM44.9207 19.6183C45.9894 19.2175 47.1931 19.4579 48.0258 20.2386C50.6711 22.7185 54.0081 25.6917 56.0143 27.4641C56.9077 28.2533 57.9366 28.8836 59.0566 29.3316L66.696 32.3874C68.2344 33.0027 68.9826 34.7486 68.3673 36.287C67.7519 37.8253 66.006 38.5736 64.4677 37.9583L56.8282 34.9025C55.0829 34.2043 53.4613 33.2147 52.0418 31.9607C50.8297 30.8899 49.1177 29.3683 47.3548 27.7717L41.5633 45.1464L57.8993 61.4824C58.3363 61.9194 58.6277 62.4808 58.7336 63.0897L62.6551 85.6397C62.939 87.272 61.8459 88.8254 60.2135 89.1093C58.5812 89.3932 57.0277 88.3 56.7439 86.6677L52.985 65.0534L36.0096 48.078C35.2061 47.2745 34.9255 46.086 35.2848 45.008L41.1394 27.4442L35.8158 29.4406C33.5532 30.2891 31.6447 31.8789 30.4015 33.951L26.9779 39.657C26.1254 41.0777 24.2827 41.5384 22.8619 40.686C21.4412 39.8335 20.9805 37.9908 21.8329 36.57L25.2565 30.864C27.1974 27.6292 30.1768 25.1472 33.7091 23.8226L44.9207 19.6183ZM35.2691 53.9351C36.8183 54.5228 37.5976 56.255 37.0099 57.8041L26.2237 86.235C25.636 87.7841 23.9038 88.5635 22.3546 87.9758C20.8055 87.3881 20.0261 85.6559 20.6139 84.1067L31.4001 55.6759C31.9878 54.1267 33.72 53.3474 35.2691 53.9351Z" fill="#EC255A"/>
</svg>
