<svg width="96" height="96" viewBox="0 0 96 96" fill="none" xmlns="http://www.w3.org/2000/svg">
<path fill-rule="evenodd" clip-rule="evenodd" d="M48 6C24.804 6 6 24.804 6 48C6 71.196 24.804 90 48 90C71.196 90 90 71.196 90 48C90 24.804 71.196 6 48 6ZM0 48C0 21.4903 21.4903 0 48 0C74.5097 0 96 21.4903 96 48C96 74.5097 74.5097 96 48 96C21.4903 96 0 74.5097 0 48ZM48 21C49.6569 21 51 22.3431 51 24V53.5C51 55.1569 49.6569 56.5 48 56.5C46.3431 56.5 45 55.1569 45 53.5V24C45 22.3431 46.3431 21 48 21ZM51 63.5C51 61.8431 49.6569 60.5 48 60.5C46.3431 60.5 45 61.8431 45 63.5V71.5C45 73.1569 46.3431 74.5 48 74.5C49.6569 74.5 51 73.1569 51 71.5V63.5Z" fill="#EC255A"/>
</svg>
