<svg width="102" height="24" viewBox="0 0 102 24" fill="none" xmlns="http://www.w3.org/2000/svg">
<path d="M2.78481 2.98926H0V18.6266H2.78481V2.98926Z" fill="#012485"/>
<path d="M8.51477 7.84912H5.72996V18.6178H8.51477V7.84912Z" fill="#012485"/>
<path d="M7.10548 2.98926C6.60759 2.98926 6.17721 3.14141 5.86498 3.43725C5.52742 3.73309 5.38396 4.105 5.38396 4.5699C5.38396 5.03479 5.55274 5.42361 5.86498 5.71946C6.20253 6.0153 6.60759 6.18435 7.10548 6.18435C7.60337 6.18435 8.03375 6.0322 8.34599 5.71946C8.68354 5.42361 8.827 5.03479 8.827 4.5699C8.827 4.105 8.65823 3.73309 8.34599 3.43725C8.03375 3.13295 7.62025 2.98926 7.10548 2.98926Z" fill="#012485"/>
<path d="M14.692 6.60717C14.692 6.15918 14.7848 5.84643 14.9873 5.66047C15.1899 5.47451 15.5274 5.38153 16.0084 5.38153H16.7679V3.00635H15.5781C14.4473 3.00635 13.5527 3.28528 12.9114 3.82625C12.2616 4.38412 11.9325 5.31391 11.9325 6.61562V7.87506H10.4473V10.1995H11.9325V18.6522H14.7173V10.1995H17.0295V7.87506H14.7089V6.60717H14.692Z" fill="#012485"/>
<path d="M26.8186 8.29746C26 7.83256 25.0717 7.61279 24.0169 7.61279C22.8861 7.61279 21.8987 7.85792 21.0717 8.33972C20.2363 8.82152 19.5865 9.50618 19.1224 10.3683C18.6582 11.239 18.4135 12.2279 18.4135 13.3437C18.4135 14.4425 18.6582 15.423 19.1392 16.2598C19.6203 17.0966 20.27 17.7475 21.1055 18.2124C21.9409 18.6773 22.903 18.897 24 18.897C24.8692 18.897 25.654 18.728 26.3376 18.4152C27.0211 18.1025 27.5949 17.6545 28.0844 17.0966C28.5485 16.5388 28.8776 15.9302 29.0886 15.2371H26.27C26.0844 15.6428 25.789 15.9809 25.4177 16.2176C25.0295 16.4796 24.5654 16.5895 23.9916 16.5895C23.2321 16.5895 22.5992 16.3444 22.0591 15.8626C21.5359 15.3808 21.2405 14.7299 21.1899 13.8931H29.3671C29.384 13.7071 29.384 13.5212 29.4008 13.3521C29.4008 13.1831 29.4177 13.014 29.4177 12.8534C29.4177 11.8729 29.1983 10.9769 28.7342 10.1824C28.2616 9.3963 27.6118 8.76235 26.8186 8.29746ZM21.2152 12.1772C21.3671 11.3996 21.6962 10.7994 22.2194 10.4275C22.7426 10.0387 23.3333 9.85274 24.0169 9.85274C24.7257 9.85274 25.3165 10.0556 25.7975 10.4867C26.2785 10.9178 26.5401 11.4672 26.5738 12.1772H21.2152Z" fill="#012485"/>
<path d="M38.6076 12.6842C37.9747 12.4814 37.2911 12.2785 36.5316 12.1094C35.8481 11.9404 35.2911 11.7713 34.8608 11.5854C34.4304 11.3994 34.2278 11.1374 34.2278 10.8246C34.2278 10.5288 34.3797 10.2668 34.6582 10.0639C34.9367 9.86104 35.3418 9.76806 35.865 9.76806C36.903 9.76806 37.519 10.1569 37.6624 10.9599H40.2954C40.1435 9.92021 39.7046 9.1003 38.9451 8.50862C38.1857 7.91694 37.1646 7.62109 35.9072 7.62109C34.5316 7.62109 33.4599 7.9592 32.7004 8.6016C31.9409 9.25245 31.5696 10.047 31.5696 11.019C31.5696 11.5431 31.6962 11.9826 31.9409 12.3377C32.1857 12.6927 32.5148 12.9885 32.9029 13.2083C33.2911 13.428 33.7384 13.614 34.2194 13.7662C34.7004 13.9183 35.1646 14.0282 35.6287 14.1381C36.3544 14.3071 36.9114 14.4508 37.3165 14.6199C37.7215 14.7889 37.9325 15.1017 37.9325 15.5666C37.9325 15.8793 37.7806 16.1582 37.5021 16.4203C37.2236 16.6654 36.7764 16.7922 36.1688 16.7922C35.5612 16.7922 35.0717 16.64 34.6835 16.3442C34.2954 16.0484 34.0675 15.6933 33.9747 15.2707H31.1561C31.2489 15.9976 31.5105 16.6231 31.9325 17.181C32.3629 17.7389 32.9536 18.1615 33.6793 18.4827C34.4051 18.7955 35.2405 18.9476 36.2025 18.9476C37.1308 18.9476 37.924 18.7955 38.616 18.4827C39.2996 18.1869 39.8228 17.7558 40.1772 17.2233C40.5316 16.6823 40.7173 16.0906 40.7004 15.4229C40.7004 14.6621 40.5148 14.0704 40.1435 13.6563C39.7384 13.1998 39.2236 12.8871 38.6076 12.6842Z" fill="#012485"/>
<path d="M46.6245 4.9751H44.1772L43.8397 7.87435H42V10.1988H43.8397V14.89C43.8397 16.3016 44.1772 17.2652 44.8608 17.8231C45.5443 18.381 46.4388 18.643 47.5696 18.643H49.4599V16.2678H48.1097C47.5527 16.2678 47.1646 16.1748 46.9451 15.972C46.7257 15.7691 46.6076 15.4141 46.6076 14.8985V10.1819H49.519V7.85744H46.6076V4.9751H46.6245V4.9751Z" fill="#012485"/>
<path d="M59.6793 8.29746C58.8608 7.83256 57.9325 7.61279 56.8776 7.61279C55.7468 7.61279 54.7595 7.85792 53.9325 8.33972C53.097 8.82152 52.4473 9.50618 51.9831 10.3683C51.519 11.239 51.2743 12.2279 51.2743 13.3437C51.2743 14.4425 51.519 15.423 52 16.2598C52.481 17.0966 53.1308 17.7475 53.9662 18.2124C54.8017 18.6773 55.7637 18.897 56.8608 18.897C57.73 18.897 58.5148 18.728 59.1983 18.4152C59.8819 18.1025 60.4557 17.6545 60.9452 17.0966C61.4093 16.5388 61.7384 15.9302 61.9494 15.2371H59.1308C58.9452 15.6428 58.6498 15.9809 58.2785 16.2176C57.8903 16.4796 57.4262 16.5895 56.8523 16.5895C56.0928 16.5895 55.4599 16.3444 54.9198 15.8626C54.3966 15.3808 54.1013 14.7299 54.0506 13.8931H62.2278C62.2447 13.7071 62.2447 13.5212 62.2616 13.3521C62.2616 13.1831 62.2785 13.014 62.2785 12.8534C62.2785 11.8729 62.0591 10.9769 61.5949 10.1824C61.1224 9.3963 60.4895 8.76235 59.6793 8.29746ZM54.076 12.1772C54.2278 11.3996 54.557 10.7994 55.0802 10.4275C55.6034 10.0387 56.1941 9.85274 56.8776 9.85274C57.5865 9.85274 58.1772 10.0556 58.6582 10.4867C59.1392 10.9178 59.4008 11.4672 59.4346 12.1772H54.076Z" fill="#012485"/>
<path d="M75.5865 10.3599C75.1224 9.50615 74.4895 8.83839 73.6962 8.33123C72.903 7.83253 71.9916 7.5874 70.9873 7.5874C70.076 7.5874 69.3333 7.77336 68.7595 8.12837C68.1857 8.50028 67.7215 8.90601 67.384 9.38781L67.0886 7.84943H64.6245V23.4107H67.4093V17.1473C67.7806 17.7052 68.2785 18.1278 68.8945 18.4321C69.5105 18.728 70.211 18.897 71.0295 18.897C72.0506 18.897 72.9367 18.6519 73.7384 18.1701C74.5316 17.6883 75.1646 17.0205 75.6287 16.1668C76.0928 15.3131 76.3122 14.3495 76.3122 13.2676C76.27 12.1772 76.0506 11.2136 75.5865 10.3599ZM72.5823 15.5751C72.0084 16.1668 71.2658 16.4627 70.3966 16.4627C69.5106 16.4627 68.7679 16.1668 68.1941 15.5498C67.6203 14.9581 67.3418 14.172 67.3418 13.2253C67.3418 12.2786 67.6203 11.5179 68.1941 10.9008C68.7679 10.3091 69.4937 9.98795 70.3966 9.98795C71.2827 9.98795 72.0084 10.2838 72.5823 10.9008C73.1561 11.5179 73.4515 12.2786 73.4515 13.2253C73.4515 14.2227 73.1561 14.9834 72.5823 15.5751Z" fill="#012485"/>
<path d="M102 8.1117C102 9.47257 101.468 10.7574 100.506 11.721L98.2194 14.0454L94.8101 17.4603C94.0253 18.2464 92.9705 18.6859 91.8565 18.6859C90.7426 18.6859 89.6962 18.2548 88.9029 17.4603L79.3418 7.87503L81.1814 6.03236L90.751 15.6176C91.0464 15.9135 91.443 16.0741 91.8565 16.0741C92.2785 16.0741 92.6667 15.9135 92.962 15.6176L96.3713 12.2028L98.6582 9.8783C99.1308 9.40495 99.3924 8.77946 99.3924 8.1117C99.3924 7.44394 99.1308 6.81845 98.6582 6.3451C98.1857 5.87176 97.5612 5.60972 96.8945 5.60972C96.2278 5.60972 95.6034 5.87176 95.1308 6.3451L93.7553 7.72288L91.9156 9.57401L84.7848 2.43154L86.6245 0.588867L91.9072 5.88021L93.2827 4.50243C94.2447 3.53883 95.5274 3.00632 96.8861 3.00632C98.2447 3.00632 99.5274 3.53883 100.489 4.50243C101.468 5.45758 102 6.74238 102 8.1117Z" fill="#FF0055"/>
</svg>
