<svg width="256" height="59" viewBox="0 0 256 59" fill="none" xmlns="http://www.w3.org/2000/svg">
<path d="M6.98435 6.20557H0V46.6318H6.98435V6.20557Z" fill="#012485"/>
<path d="M21.3552 18.7695H14.3708V46.609H21.3552V18.7695Z" fill="#012485"/>
<path d="M17.8208 6.20557C16.5721 6.20557 15.4927 6.5989 14.7096 7.36372C13.863 8.12854 13.5032 9.09003 13.5032 10.2919C13.5032 11.4938 13.9265 12.4989 14.7096 13.2638C15.5561 14.0286 16.5721 14.4656 17.8208 14.4656C19.0695 14.4656 20.1489 14.0723 20.932 13.2638C21.7786 12.4989 22.1384 11.4938 22.1384 10.2919C22.1384 9.09003 21.7151 8.12854 20.932 7.36372C20.1489 6.57705 19.1118 6.20557 17.8208 6.20557Z" fill="#012485"/>
<path d="M36.8477 15.5585C36.8477 14.4003 37.0806 13.5918 37.5885 13.111C38.0965 12.6303 38.9431 12.3899 40.1494 12.3899H42.0543V6.24951H39.07C36.234 6.24951 33.9905 6.97063 32.382 8.36915C30.7523 9.81139 29.9269 12.2151 29.9269 15.5803V18.8363H26.2019V24.8456H29.9269V46.6976H36.9112V24.8456H42.7104V18.8363H36.8901V15.5585H36.8477Z" fill="#012485"/>
<path d="M67.2614 19.9282C65.2085 18.7264 62.8803 18.1582 60.2348 18.1582C57.3987 18.1582 54.9224 18.7919 52.8483 20.0375C50.753 21.283 49.1233 23.0531 47.9592 25.282C46.7952 27.5327 46.1814 30.0894 46.1814 32.9739C46.1814 35.8146 46.7952 38.3494 48.0016 40.5128C49.2079 42.6761 50.8376 44.3587 52.9329 45.5606C55.0282 46.7625 57.441 47.3306 60.1924 47.3306C62.3724 47.3306 64.3407 46.8936 66.055 46.0851C67.7694 45.2765 69.2086 44.1184 70.4361 42.6761C71.6002 41.2339 72.4256 39.6606 72.9547 37.8687H65.8857C65.4201 38.9176 64.6793 39.7917 63.7481 40.4035C62.7745 41.0809 61.6105 41.365 60.1713 41.365C58.2664 41.365 56.6791 40.7313 55.3245 39.4857C54.0123 38.2402 53.2716 36.5576 53.1446 34.3942H73.6532C73.6955 33.9135 73.6955 33.4327 73.7378 32.9957C73.7378 32.5587 73.7802 32.1216 73.7802 31.7064C73.7802 29.1716 73.2299 26.8553 72.0658 24.8012C70.8806 22.769 69.2509 21.1301 67.2614 19.9282ZM53.2081 29.9583C53.589 27.9479 54.4145 26.3964 55.7267 25.4349C57.0389 24.4297 58.5204 23.949 60.2348 23.949C62.0126 23.949 63.4941 24.4734 64.7005 25.5879C65.9069 26.7023 66.563 28.1227 66.6477 29.9583H53.2081Z" fill="#012485"/>
<path d="M96.8281 31.269C95.2407 30.7446 93.5264 30.2201 91.6216 29.7831C89.9072 29.3461 88.5103 28.909 87.4309 28.4283C86.3515 27.9475 85.8436 27.2701 85.8436 26.4616C85.8436 25.6968 86.2246 25.0194 86.923 24.4949C87.6214 23.9705 88.6373 23.7301 89.9495 23.7301C92.5528 23.7301 94.0978 24.7353 94.4576 26.8112H101.061C100.68 24.1234 99.5795 22.0038 97.6747 20.4741C95.7698 18.9445 93.2089 18.1797 90.0554 18.1797C86.6055 18.1797 83.9176 19.0538 82.0128 20.7145C80.108 22.3971 79.1767 24.4512 79.1767 26.9642C79.1767 28.319 79.4942 29.4553 80.108 30.3731C80.7217 31.2909 81.5472 32.0557 82.5207 32.6239C83.4943 33.192 84.616 33.6728 85.8224 34.0661C87.0288 34.4594 88.1929 34.7435 89.3569 35.0276C91.1771 35.4646 92.574 35.8361 93.5899 36.2731C94.6058 36.7102 95.1349 37.5187 95.1349 38.7206C95.1349 39.5291 94.7539 40.2502 94.0555 40.9276C93.3571 41.5613 92.2353 41.8891 90.7115 41.8891C89.1876 41.8891 87.9601 41.4958 86.9865 40.7309C86.0129 39.9661 85.4415 39.0483 85.2087 37.9557H78.1396C78.3725 39.835 79.0286 41.4521 80.0868 42.8943C81.1662 44.3365 82.6477 45.4291 84.4679 46.2595C86.288 47.068 88.3834 47.4614 90.7961 47.4614C93.1243 47.4614 95.1137 47.068 96.8492 46.2595C98.5636 45.4947 99.8758 44.3802 100.765 43.0036C101.654 41.605 102.119 40.0754 102.077 38.3491C102.077 36.3824 101.611 34.8528 100.68 33.782C99.6641 32.602 98.3731 31.7935 96.8281 31.269Z" fill="#012485"/>
<path d="M116.935 11.3394H110.797L109.951 18.8346H105.337V24.8439H109.951V36.9717C109.951 40.621 110.797 43.1122 112.511 44.5544C114.226 45.9966 116.469 46.674 119.305 46.674H124.046V40.5336H120.66C119.263 40.5336 118.289 40.2932 117.739 39.7688C117.189 39.2444 116.893 38.3266 116.893 36.9936V24.8002H124.194V18.7909H116.893V11.3394H116.935Z" fill="#012485"/>
<path d="M149.676 19.9282C147.624 18.7264 145.295 18.1582 142.65 18.1582C139.814 18.1582 137.337 18.7919 135.263 20.0375C133.168 21.283 131.538 23.0531 130.374 25.282C129.21 27.5327 128.596 30.0894 128.596 32.9739C128.596 35.8146 129.21 38.3494 130.417 40.5128C131.623 42.6761 133.253 44.3587 135.348 45.5606C137.443 46.7625 139.856 47.3306 142.607 47.3306C144.787 47.3306 146.756 46.8936 148.47 46.0851C150.184 45.2765 151.624 44.1184 152.851 42.6761C154.015 41.2339 154.841 39.6606 155.37 37.8687H148.301C147.835 38.9176 147.094 39.7917 146.163 40.4035C145.19 41.0809 144.026 41.365 142.586 41.365C140.681 41.365 139.094 40.7313 137.74 39.4857C136.427 38.2402 135.687 36.5576 135.56 34.3942H156.068C156.111 33.9135 156.111 33.4327 156.153 32.9957C156.153 32.5587 156.195 32.1216 156.195 31.7064C156.195 29.1716 155.645 26.8553 154.481 24.8012C153.296 22.769 151.708 21.1301 149.676 19.9282ZM135.623 29.9583C136.004 27.9479 136.83 26.3964 138.142 25.4349C139.454 24.4297 140.935 23.949 142.65 23.949C144.428 23.949 145.909 24.4734 147.116 25.5879C148.322 26.7023 148.978 28.1227 149.063 29.9583H135.623Z" fill="#012485"/>
<path d="M189.572 25.2602C188.408 23.0532 186.821 21.3269 184.831 20.0157C182.842 18.7265 180.556 18.0928 178.038 18.0928C175.752 18.0928 173.889 18.5735 172.45 19.4913C171.011 20.4528 169.847 21.5017 169 22.7472L168.259 18.7702H162.079V58.9997H169.064V42.8074C169.995 44.2496 171.244 45.3422 172.789 46.1289C174.334 46.8937 176.09 47.3307 178.143 47.3307C180.704 47.3307 182.927 46.697 184.937 45.4515C186.927 44.2059 188.514 42.4796 189.678 40.2725C190.842 38.0655 191.392 35.5744 191.392 32.7773C191.287 29.9584 190.736 27.4673 189.572 25.2602ZM182.038 38.7429C180.598 40.2725 178.736 41.0374 176.556 41.0374C174.334 41.0374 172.471 40.2725 171.032 38.6773C169.593 37.1477 168.894 35.1155 168.894 32.6681C168.894 30.2206 169.593 28.2539 171.032 26.6588C172.471 25.1291 174.291 24.2987 176.556 24.2987C178.778 24.2987 180.598 25.0636 182.038 26.6588C183.477 28.2539 184.218 30.2206 184.218 32.6681C184.218 35.2466 183.477 37.2133 182.038 38.7429Z" fill="#012485"/>
<path d="M255.818 19.4483C255.818 22.9664 254.484 26.2879 252.072 28.7791L246.336 34.7884L237.785 43.6166C235.817 45.6488 233.171 46.7851 230.378 46.7851C227.584 46.7851 224.96 45.6707 222.97 43.6166L198.99 18.8364L203.604 14.0727L227.605 38.8528C228.346 39.6177 229.341 40.0329 230.378 40.0329C231.436 40.0329 232.41 39.6177 233.15 38.8528L241.701 30.0246L247.436 24.0153C248.622 22.7916 249.278 21.1746 249.278 19.4483C249.278 17.722 248.622 16.1049 247.436 14.8812C246.251 13.6575 244.685 12.9801 243.013 12.9801C241.341 12.9801 239.775 13.6575 238.59 14.8812L235.14 18.4431L230.526 23.2287L212.642 4.76373L217.256 0L230.505 13.6793L233.955 10.1175C236.367 7.62635 239.584 6.24967 242.992 6.24967C246.399 6.24967 249.616 7.62635 252.029 10.1175C254.484 12.5867 255.818 15.9083 255.818 19.4483Z" fill="#FF0055"/>
</svg>
