<svg width="256" height="59" viewBox="0 0 256 59" fill="none" xmlns="http://www.w3.org/2000/svg">
<path d="M6.98435 6.20605H0V46.6322H6.98435V6.20605Z" fill="white"/>
<path d="M21.3552 18.7705H14.3708V46.61H21.3552V18.7705Z" fill="white"/>
<path d="M17.8208 6.20605C16.5721 6.20605 15.4927 6.59939 14.7096 7.36421C13.863 8.12903 13.5032 9.09052 13.5032 10.2924C13.5032 11.4942 13.9265 12.4994 14.7096 13.2643C15.5561 14.0291 16.5721 14.4661 17.8208 14.4661C19.0695 14.4661 20.1489 14.0728 20.932 13.2643C21.7786 12.4994 22.1384 11.4942 22.1384 10.2924C22.1384 9.09052 21.7151 8.12903 20.932 7.36421C20.1489 6.57754 19.1118 6.20605 17.8208 6.20605Z" fill="white"/>
<path d="M36.8477 15.5589C36.8477 14.4008 37.0806 13.5923 37.5885 13.1115C38.0965 12.6308 38.9431 12.3904 40.1494 12.3904H42.0543V6.25H39.07C36.234 6.25 33.9905 6.97112 32.382 8.36964C30.7523 9.81187 29.9269 12.2156 29.9269 15.5808V18.8367H26.2019V24.846H29.9269V46.698H36.9112V24.846H42.7104V18.8367H36.8901V15.5589H36.8477Z" fill="white"/>
<path d="M67.2614 19.9292C65.2085 18.7273 62.8803 18.1592 60.2348 18.1592C57.3987 18.1592 54.9224 18.7929 52.8483 20.0385C50.753 21.284 49.1233 23.054 47.9592 25.2829C46.7952 27.5337 46.1814 30.0904 46.1814 32.9748C46.1814 35.8156 46.7952 38.3504 48.0016 40.5138C49.2079 42.6771 50.8376 44.3597 52.9329 45.5616C55.0282 46.7634 57.441 47.3316 60.1924 47.3316C62.3724 47.3316 64.3407 46.8946 66.055 46.086C67.7694 45.2775 69.2086 44.1193 70.4361 42.6771C71.6002 41.2349 72.4256 39.6615 72.9547 37.8697H65.8857C65.4201 38.9186 64.6793 39.7927 63.7481 40.4045C62.7745 41.0819 61.6105 41.366 60.1713 41.366C58.2664 41.366 56.6791 40.7323 55.3245 39.4867C54.0123 38.2412 53.2716 36.5586 53.1446 34.3952H73.6532C73.6955 33.9145 73.6955 33.4337 73.7378 32.9967C73.7378 32.5596 73.7802 32.1226 73.7802 31.7074C73.7802 29.1726 73.2299 26.8563 72.0658 24.8022C70.8806 22.77 69.2509 21.1311 67.2614 19.9292ZM53.2081 29.9593C53.589 27.9489 54.4145 26.3974 55.7267 25.4359C57.0389 24.4307 58.5204 23.95 60.2348 23.95C62.0126 23.95 63.4941 24.4744 64.7005 25.5889C65.9069 26.7033 66.563 28.1237 66.6477 29.9593H53.2081Z" fill="white"/>
<path d="M96.8281 31.27C95.2407 30.7456 93.5264 30.2211 91.6216 29.7841C89.9072 29.347 88.5103 28.91 87.4309 28.4292C86.3515 27.9485 85.8436 27.2711 85.8436 26.4626C85.8436 25.6977 86.2246 25.0203 86.923 24.4959C87.6214 23.9714 88.6373 23.7311 89.9495 23.7311C92.5528 23.7311 94.0978 24.7363 94.4576 26.8122H101.061C100.68 24.1244 99.5795 22.0048 97.6747 20.4751C95.7698 18.9455 93.2089 18.1807 90.0554 18.1807C86.6055 18.1807 83.9176 19.0547 82.0128 20.7155C80.108 22.3981 79.1767 24.4522 79.1767 26.9652C79.1767 28.32 79.4942 29.4563 80.108 30.3741C80.7217 31.2919 81.5472 32.0567 82.5207 32.6248C83.4943 33.193 84.616 33.6737 85.8224 34.0671C87.0288 34.4604 88.1929 34.7445 89.3569 35.0286C91.1771 35.4656 92.574 35.8371 93.5899 36.2741C94.6058 36.7112 95.1349 37.5197 95.1349 38.7215C95.1349 39.5301 94.7539 40.2512 94.0555 40.9286C93.3571 41.5623 92.2353 41.8901 90.7115 41.8901C89.1876 41.8901 87.9601 41.4967 86.9865 40.7319C86.0129 39.9671 85.4415 39.0493 85.2087 37.9567H78.1396C78.3725 39.836 79.0286 41.453 80.0868 42.8953C81.1662 44.3375 82.6477 45.4301 84.4679 46.2605C86.288 47.069 88.3834 47.4623 90.7961 47.4623C93.1243 47.4623 95.1137 47.069 96.8492 46.2605C98.5636 45.4957 99.8758 44.3812 100.765 43.0045C101.654 41.606 102.119 40.0764 102.077 38.3501C102.077 36.3834 101.611 34.8537 100.68 33.783C99.6641 32.603 98.3731 31.7945 96.8281 31.27Z" fill="white"/>
<path d="M116.935 11.3398H110.797L109.951 18.8351H105.337V24.8444H109.951V36.9722C109.951 40.6215 110.797 43.1126 112.511 44.5549C114.226 45.9971 116.469 46.6745 119.305 46.6745H124.046V40.5341H120.66C119.263 40.5341 118.289 40.2937 117.739 39.7693C117.189 39.2448 116.893 38.3271 116.893 36.9941V24.8007H124.194V18.7914H116.893V11.3398H116.935Z" fill="white"/>
<path d="M149.676 19.9292C147.624 18.7273 145.295 18.1592 142.65 18.1592C139.814 18.1592 137.337 18.7929 135.263 20.0385C133.168 21.284 131.538 23.054 130.374 25.2829C129.21 27.5337 128.596 30.0904 128.596 32.9748C128.596 35.8156 129.21 38.3504 130.417 40.5138C131.623 42.6771 133.253 44.3597 135.348 45.5616C137.443 46.7634 139.856 47.3316 142.607 47.3316C144.787 47.3316 146.756 46.8946 148.47 46.086C150.184 45.2775 151.624 44.1193 152.851 42.6771C154.015 41.2349 154.841 39.6615 155.37 37.8697H148.301C147.835 38.9186 147.094 39.7927 146.163 40.4045C145.19 41.0819 144.026 41.366 142.586 41.366C140.681 41.366 139.094 40.7323 137.74 39.4867C136.427 38.2412 135.687 36.5586 135.56 34.3952H156.068C156.111 33.9145 156.111 33.4337 156.153 32.9967C156.153 32.5596 156.195 32.1226 156.195 31.7074C156.195 29.1726 155.645 26.8563 154.481 24.8022C153.296 22.77 151.708 21.1311 149.676 19.9292ZM135.623 29.9593C136.004 27.9489 136.83 26.3974 138.142 25.4359C139.454 24.4307 140.935 23.95 142.65 23.95C144.428 23.95 145.909 24.4744 147.116 25.5889C148.322 26.7033 148.978 28.1237 149.063 29.9593H135.623Z" fill="white"/>
<path d="M189.572 25.2612C188.408 23.0541 186.821 21.3278 184.831 20.0167C182.842 18.7275 180.556 18.0938 178.038 18.0938C175.752 18.0938 173.889 18.5745 172.45 19.4923C171.011 20.4538 169.847 21.5027 169 22.7482L168.259 18.7712H162.079V59.0007H169.064V42.8084C169.995 44.2506 171.244 45.3432 172.789 46.1299C174.334 46.8947 176.09 47.3317 178.143 47.3317C180.704 47.3317 182.927 46.698 184.937 45.4524C186.927 44.2069 188.514 42.4806 189.678 40.2735C190.842 38.0665 191.392 35.5753 191.392 32.7783C191.287 29.9594 190.736 27.4683 189.572 25.2612ZM182.038 38.7439C180.598 40.2735 178.736 41.0383 176.556 41.0383C174.334 41.0383 172.471 40.2735 171.032 38.6783C169.593 37.1487 168.894 35.1165 168.894 32.669C168.894 30.2216 169.593 28.2549 171.032 26.6597C172.471 25.1301 174.291 24.2997 176.556 24.2997C178.778 24.2997 180.598 25.0645 182.038 26.6597C183.477 28.2549 184.218 30.2216 184.218 32.669C184.218 35.2476 183.477 37.2142 182.038 38.7439Z" fill="white"/>
<path d="M255.818 19.4483C255.818 22.9664 254.484 26.2879 252.072 28.7791L246.336 34.7884L237.785 43.6166C235.817 45.6488 233.171 46.7851 230.378 46.7851C227.584 46.7851 224.96 45.6707 222.97 43.6166L198.99 18.8364L203.604 14.0727L227.605 38.8528C228.346 39.6177 229.341 40.0329 230.378 40.0329C231.436 40.0329 232.41 39.6177 233.15 38.8528L241.701 30.0246L247.436 24.0153C248.622 22.7916 249.278 21.1746 249.278 19.4483C249.278 17.722 248.622 16.1049 247.436 14.8812C246.251 13.6575 244.685 12.9801 243.013 12.9801C241.341 12.9801 239.775 13.6575 238.59 14.8812L235.14 18.4431L230.526 23.2287L212.642 4.76373L217.256 0L230.505 13.6793L233.955 10.1175C236.367 7.62635 239.584 6.24967 242.992 6.24967C246.399 6.24967 249.616 7.62635 252.029 10.1175C254.484 12.5867 255.818 15.9083 255.818 19.4483Z" fill="#FF0055"/>
</svg>
